<svg xmlns="http://www.w3.org/2000/svg" xmlns:xlink="http://www.w3.org/1999/xlink" x="0px" y="0px" width="216px" height="54px" viewBox="0 0 216 54"><g  transform="translate(19, 19)"><path fill="#ffffff" d="M16,10V5c0-0.6-0.4-1-1-1h-3V1c0-0.6-0.4-1-1-1H5C4.4,0,4,0.4,4,1v3H1C0.4,4,0,4.4,0,5v5c0,0.6,0.4,1,1,1h14&#10;&#9;C15.6,11,16,10.6,16,10z M6,2h4v2H6V2z"/>
<path data-color="color-2" fill="#ffffff" d="M1,13v2c0,0.6,0.4,1,1,1h12c0.6,0,1-0.4,1-1v-2H1z"/></g><g  transform="translate(73, 19)">
<path data-color="color-2" fill="#ffffff" d="M2.2,5.6l3.4-3.4L3.7,0.3c-0.4-0.4-1-0.4-1.4,0l-2,2c-0.4,0.4-0.4,1,0,1.4L2.2,5.6z"/>
<path data-color="color-2" fill="#ffffff" d="M13.8,10.4l-3.4,3.4l1.9,1.9c0.2,0.2,0.4,0.3,0.7,0.3h3v-3c0-0.3-0.1-0.5-0.3-0.7L13.8,10.4z&#10;&#9;"/>
<path fill="#ffffff" d="M15.7,4.3l-4-4c-0.4-0.4-1-0.4-1.4,0L9,1.6l1.7,1.7L9.3,4.7L7.6,3L6,4.6l1.7,1.7L6.3,7.7L4.6,6L3,7.6&#10;&#9;l1.7,1.7l-1.4,1.4L1.6,9l-1.3,1.3c-0.4,0.4-0.4,1,0,1.4l4,4c0.4,0.4,1,0.4,1.4,0l10-10C16.1,5.3,16.1,4.7,15.7,4.3z"/>
</g><g  transform="translate(127, 19)"><path fill="#ffffff" d="M15,0H1C0.4,0,0,0.4,0,1v14c0,0.6,0.4,1,1,1h14c0.6,0,1-0.4,1-1V1C16,0.4,15.6,0,15,0z M6,4c0.6,0,1,0.4,1,1&#10;&#9;S6.6,6,6,6C5.4,6,5,5.6,5,5S5.4,4,6,4z M3,12l2-4l2,2l3-4l3,6H3z"/></g><g  transform="translate(181, 19)">
<path fill="#ffffff" d="M14.682,2.318c-1.757-1.757-4.607-1.757-6.364,0C8.197,2.439,8.104,2.577,8,2.707&#10;&#9;&#9;C7.896,2.577,7.803,2.439,7.682,2.318c-1.757-1.757-4.607-1.757-6.364,0c-1.757,1.757-1.757,4.607,0,6.364L8,15l6.682-6.318&#10;&#9;&#9;C16.439,6.925,16.439,4.075,14.682,2.318z"/>
</g></svg>