<?xml version="1.0" standalone="no"?>
<!DOCTYPE svg PUBLIC "-//W3C//DTD SVG 1.1//EN" "http://www.w3.org/Graphics/SVG/1.1/DTD/svg11.dtd" >
<svg xmlns="http://www.w3.org/2000/svg">
<metadata>
This is a custom SVG font generated by IcoMoon.
1
</metadata>
<defs>
<font id="icomoon" horiz-adv-x="800" >
<font-face units-per-em="800" ascent="750" descent="-50" />
<missing-glyph horiz-adv-x="800" />
<glyph unicode="&#x21;" d="M 800.00,300.00L 650.00,450.00L 650.00,600.00L 550.00,600.00L 550.00,550.00L 400.00,700.00L0.00,300.00L 100.00,300.00L 100.00,0.00L 350.00,0.00L 350.00,200.00L 450.00,200.00L 450.00,0.00L 700.00,0.00L 700.00,300.00 	z" />
<glyph unicode="&#x22;" d="M 400.00,700.00L0.00,300.00l 75.00-75.00l 75.00,75.00l 50.00-300.00l 150.00,0.00 l0.00,150.00 l 100.00,0.00 l0.00-150.00 l 150.00,0.00 l 50.00,300.00l 75.00-75.00l 75.00,75.00L 400.00,700.00z M 400.00,379.291
		c-39.053,0.00-70.713,31.656-70.713,70.709s 31.659,70.711, 70.713,70.711c 39.05,0.00, 70.711-31.659, 70.711-70.711
		C 470.711,410.947, 439.05,379.291, 400.00,379.291z" />
<glyph unicode="&#x23;" d="M 700.00,550.00L 700.00,650.00 L0.00,650.00 l0.00-550.00 c0.00-27.614, 22.386-50.00, 50.00-50.00l 675.00,0.00 c 41.423,0.00, 75.00,33.577, 75.00,75.00L 800.00,550.00 L 700.00,550.00 z M 650.00,100.00L 50.00,100.00 L 50.00,600.00 l 600.00,0.00 L 650.00,100.00 zM 100.00,500.00L 600.00,500.00L 600.00,450.00L 100.00,450.00zM 400.00,400.00L 600.00,400.00L 600.00,350.00L 400.00,350.00zM 400.00,300.00L 600.00,300.00L 600.00,250.00L 400.00,250.00zM 400.00,200.00L 550.00,200.00L 550.00,150.00L 400.00,150.00zM 100.00,400.00L 350.00,400.00L 350.00,150.00L 100.00,150.00z" />
<glyph unicode="&#x24;" d="M 762.50,712.50c-50.00,50.00-100.00,50.00-150.00,0.00l-12.50-12.50l 150.00-150.00l 12.50,12.50C 812.50,612.50, 812.50,662.50, 762.50,712.50zM 50.00,150.00L0.00-50.00l 200.00,50.00l 500.00,500.00l-150.00,150.00L 50.00,150.00z M 200.00,100.00l-50.00,50.00l 400.00,400.00l 50.00-50.00L 200.00,100.00z" />
<glyph unicode="&#x25;" d="M 300.00,250.00L 400.00,300.00L 750.00,650.00L 700.00,700.00L 350.00,350.00 	zM 226.016,56.955c-24.713,52.131-66.927,94.345-119.059,119.059l 60.922,203.075L 300.00,450.00L 600.00,750.00l-150.00,0.00 L 150.00,450.00L0.00-50.00l 500.00,150.00l 300.00,300.00
		l0.00,150.00 L 500.00,250.00l-70.911-132.123" />
<glyph unicode="&#x26;" d="M 699.953,255.077c-0.009,0.552-0.023,1.095-0.033,1.645c-0.025,1.116-0.055,2.23-0.092,3.344C 691.992,506.666, 400.00,750.00, 400.00,750.00
		S 108.005,506.666, 100.172,260.061c-0.034-1.117-0.069-2.228-0.094-3.345c-0.011-0.55-0.023-1.095-0.033-1.645
		c-0.028-1.688-0.044-3.378-0.044-5.075c0.00-1.85, 0.022-3.689, 0.055-5.53c 0.003-0.153, 0.005-0.305, 0.011-0.458
		C 103.253,81.092, 236.314-50.00, 400.00-50.00c 163.684,0.00, 296.744,131.092, 299.936,294.012c 0.003,0.153, 0.006,0.306, 0.008,0.458
		c 0.033,1.841, 0.056,3.683, 0.056,5.53C 700.00,251.697, 699.981,253.387, 699.953,255.077z M 599.961,246.297l-0.006-0.317
		c-1.03-52.567-22.291-101.823-59.864-138.709C 502.48,70.339, 452.723,50.00, 400.00,50.00c-9.736,0.00-19.37,0.698-28.847,2.061
		c 108.638,64.723, 181.419,183.363, 181.419,319.002c0.00,15.20-0.922,30.183-2.697,44.906c 31.462-57.766, 48.487-111.563, 50.002-159.083
		l 0.003-0.112c 0.025-0.741, 0.041-1.478, 0.061-2.222l 0.022-1.131C 599.984,252.283, 600.00,251.141, 600.00,250.00
		C 600.00,248.763, 599.984,247.53, 599.961,246.297z" />
<glyph unicode="&#x27;" d="M0.00,650.00l0.00-600.00 l 800.00,0.00 L 800.00,650.00 L0.00,650.00 z M 750.00,100.00l-50.00,0.00 l-150.00,225.00l-100.00-75.00L 250.00,500.00L 100.00,100.00L 50.00,100.00 L 50.00,600.00 l 700.00,0.00 L 750.00,100.00 zM 550.00,475.00A75.00,75.00 10260.00 1,0 700.00,475A75.00,75.00 10260.00 1,0 550.00,475z" />
<glyph unicode="&#x28;" d="M 650.00,300.177c-50.00,0.00-100.00-50.177-150.00-50.177s-50.00,200.00-150.00,200.00S 150.00,350.00, 100.00,150.00c0.00,0.00, 550.00,0.00, 600.00,0.00
		C 700.00,149.998, 700.00,300.177, 650.00,300.177zM0.00,600.00l0.00-550.00 l 800.00,0.00 L 800.00,600.00 L0.00,600.00 z M 750.00,100.00L 50.00,100.00 L 50.00,550.00 l 700.00,0.00 L 750.00,100.00 zM 550.00,425.00A75.00,75.00 10260.00 1,0 700.00,425A75.00,75.00 10260.00 1,0 550.00,425z" />
<glyph unicode="&#x29;" d="M 240.636,325.00A159.364,159.364 10260.00 1,0 559.364,325A159.364,159.364 10260.00 1,0 240.636,325zM 750.00,550.00L 575.00,550.00 c-12.50,50.00-25.00,100.00-75.00,100.00L 300.00,650.00 c-50.00,0.00-62.50-50.00-75.00-100.00L 50.00,550.00 c-27.50,0.00-50.00-22.50-50.00-50.00l0.00-400.00 c0.00-27.50, 22.50-50.00, 50.00-50.00l 700.00,0.00 
		c 27.50,0.00, 50.00,22.50, 50.00,50.00L 800.00,500.00 C 800.00,527.50, 777.50,550.00, 750.00,550.00z M 400.00,100.00c-124.264,0.00-225.00,100.736-225.00,225.00c0.00,124.264, 100.736,225.00, 225.00,225.00
		c 124.264,0.00, 225.00-100.736, 225.00-225.00C 625.00,200.736, 524.266,100.00, 400.00,100.00z M 750.00,450.00l-100.00,0.00 l0.00,50.00 l 100.00,0.00 L 750.00,450.00 z" />
<glyph unicode="&#x2a;" d="M 243.367,700.705l-20.453-531.709c-27.289,14.003-61.527,20.063-97.45,14.966c-77.459-10.97-133.236-69.403-124.577-130.495
	c 8.661-61.097, 78.473-101.72, 155.93-90.747c 68.744,9.742, 120.345,56.867, 125.034,110.047l 0.016-0.03c 0.009,0.12, 0.017,0.302, 0.028,0.438
	c 0.114,1.352, 0.18,2.72, 0.23,4.08c 2.884,54.911, 20.544,472.003, 20.544,472.003l 434.93,44.811l-19.644-375.641
	c-27.911,15.534-63.784,22.455-101.506,17.109c-77.459-10.981-133.231-69.402-124.572-130.502c 8.658-61.091, 78.47-101.722, 155.93-90.736
	c 70.208,9.938, 122.516,58.878, 125.259,113.444l 0.033,0.033C 774.597,152.738, 800.00,739.07, 800.00,739.07L 243.367,700.705z" />
<glyph unicode="&#x2b;" d="M 766.553,624.916C 654.341,641.048, 530.356,650.00, 400.002,650.00c-130.359,0.00-254.341-8.952-366.558-25.084
	C 11.936,540.755,0.00,447.767,0.00,350.00c0.00-97.766, 11.936-190.755, 33.444-274.914C 145.661,58.952, 269.644,50.00, 400.002,50.00
	c 130.355,0.00, 254.338,8.952, 366.552,25.086C 788.063,159.245, 800.00,252.234, 800.00,350.00C 800.00,447.767, 788.063,540.755, 766.553,624.916z
	 M 300.002,200.00L 300.002,500.00 l 250.00-150.00L 300.002,200.00z" />
<glyph unicode="&#x2c;" d="M0.00,650.00l0.00-600.00 l 800.00,0.00 L 800.00,650.00 L0.00,650.00 z M 150.00,100.00L 50.00,100.00 l0.00,100.00 l 100.00,0.00 L 150.00,100.00 z M 150.00,300.00L 50.00,300.00 l0.00,100.00 l 100.00,0.00 L 150.00,300.00 z M 150.00,500.00L 50.00,500.00 L 50.00,600.00 l 100.00,0.00 L 150.00,500.00 z M 600.00,100.00L 200.00,100.00 L 200.00,600.00 l 400.00,0.00 L 600.00,100.00 z
		 M 750.00,100.00l-100.00,0.00 l0.00,100.00 l 100.00,0.00 L 750.00,100.00 z M 750.00,300.00l-100.00,0.00 l0.00,100.00 l 100.00,0.00 L 750.00,300.00 z M 750.00,500.00l-100.00,0.00 L 650.00,600.00 l 100.00,0.00 L 750.00,500.00 zM 300.00,500.00L 300.00,200.00L 500.00,350.00 	z" />
<glyph unicode="&#x2d;" d="M 764.719,549.803c-8.272,0.00-16.764-2.908-24.559-8.411L 600.00,442.475L 600.00,525.00 c0.00,41.25-33.75,75.00-75.00,75.00L 75.00,600.00 c-41.25,0.00-75.00-33.75-75.00-75.00l0.00-350.00 
	c0.00-41.25, 33.75-75.00, 75.00-75.00l 450.00,0.00 c 41.25,0.00, 75.00,33.75, 75.00,75.00l0.00,82.523 l 140.158-98.917c 7.795-5.502, 16.287-8.409, 24.558-8.411
	c 0.002,0.00, 0.002,0.00, 0.005,0.00c 11.006,0.00, 21.058,5.075, 27.572,13.923c 5.044,6.852, 7.709,15.667, 7.709,25.497L 800.002,510.383 
	C 800.00,536.262, 782.252,549.803, 764.719,549.803z" />
<glyph unicode="&#x2e;" d="M 638.727,478.008C 487.503,590.397, 435.394,680.366, 400.003,749.998l0.00,0.00C 400.00,749.998, 400.00,750.00, 400.00,750.00l0.00-0.002 
	c-35.388-69.633-87.50-159.603-238.723-271.991c-257.841-191.63-15.138-459.116, 198.248-311.894
	c-13.903-91.352-61.352-157.947-109.537-186.627L 249.987-50.00 l 150.012,0.00 l 150.012,0.00 l0.00,29.484 c-48.189,28.678-95.633,95.277-109.541,186.628
	C 653.859,18.889, 896.566,286.378, 638.727,478.008z" />
<glyph unicode="&#x2f;" d="M 614.712,443.147c-46.119,0.00-87.567-19.216-117.072-50.542c-12.497-13.269-34.189-28.994-57.656-42.82
	c 11.023,42.084, 45.841,95.078, 70.022,118.325c 30.969,29.82, 49.988,71.742, 49.988,118.359C 559.998,676.23, 488.528,749.044, 400.003,750.00
	c-88.531-0.955-159.997-73.77-159.997-163.53c0.00-46.619, 19.019-88.539, 49.989-118.359c 24.183-23.247, 59.00-76.241, 70.022-118.325
	c-23.47,13.828-45.161,29.552-57.656,42.82c-29.506,31.327-70.953,50.542-117.07,50.542c-89.364,0.00-161.781-73.175-161.781-163.537
	c0.00-90.342, 72.416-163.545, 161.781-163.545c 46.127,0.00, 87.564,19.809, 117.07,51.134c 13.128,13.963, 36.284,31.358, 61.166,45.806
	c-2.345-115.384-57.447-200.131-113.53-233.52L 249.997-50.00 l 150.008,0.00 l 150.003,0.00 l0.00,29.484 c-56.087,33.387-111.188,118.138-113.531,233.52
	c 24.884-14.448, 48.038-31.85, 61.166-45.806c 29.505-31.323, 70.944-51.134, 117.072-51.134c 89.364,0.00, 161.78,73.203, 161.78,163.545
	C 776.492,369.972, 704.078,443.147, 614.712,443.147z" />
<glyph unicode="&#x30;" d="M 400.00,750.00L 150.00,350.00L 400.00-50.00L 650.00,350.00 z" />
<glyph unicode="&#x31;" d="M 350.00,450.00L 150.00-50.00l 75.931,0.00 L 400.00,102.311L 574.072-50.00L 650.00-50.00 L 450.00,450.00L 350.00,450.00 z M 232.85,22.492l 66.986,167.467l 62.203-54.427
			L 232.85,22.492z M 567.153,22.494l-129.188,113.037l 62.202,54.427L 567.153,22.494z M 400.00,168.75l-80.48,70.419L 383.852,400.00l 32.297,0.00 
			l 64.333-160.831L 400.00,168.75zM 573.236,649.998C 590.256,620.581, 600.00,586.428, 600.00,550.00s-9.744-70.581-26.764-99.998l 43.313-25.00
			C 637.819,461.773, 650.00,504.462, 650.00,550.00s-12.181,88.227-33.452,124.998L 573.236,649.998zM 226.762,450.002C 209.747,479.419, 200.00,513.572, 200.00,550.00s 9.744,70.581, 26.762,99.998L 183.453,674.997
			C 162.181,638.225, 150.00,595.538, 150.00,550.00s 12.181-88.225, 33.453-124.998L 226.762,450.002zM 53.519,750.00C 19.484,691.164,0.00,622.858,0.00,550.00s 19.484-141.164, 53.519-199.998l 43.311,25.00C 67.048,426.481, 50.00,486.248, 50.00,550.00
			S 67.048,673.519, 96.83,725.00L 53.519,750.00zM 800.00,550.00c0.00,72.859-19.484,141.166-53.52,200.00l0.00,0.00L 703.172,725.00C 732.953,673.519, 750.00,613.752, 750.00,550.00s-17.047-123.52-46.83-175.00
			l 43.309-25.00l0.00,0.00C 780.517,408.834, 800.00,477.141, 800.00,550.00zM 350.00,550.00A50.00,50.00 10260.00 1,0 450.00,550A50.00,50.00 10260.00 1,0 350.00,550z" />
<glyph unicode="&#x32;" d="M 375.00,200.00c 69.036,0.00, 125.00,55.964, 125.00,125.00L 500.00,625.00 c0.00,69.036-55.964,125.00-125.00,125.00s-125.00-55.964-125.00-125.00l0.00-300.00 C 250.00,255.964, 305.966,200.00, 375.00,200.00zM 550.00,400.00l0.00-75.00 c0.00-96.648-78.352-175.00-175.00-175.00c-96.65,0.00-175.00,78.352-175.00,175.00l0.00,75.00 L 150.00,400.00 l0.00-75.00 c0.00-115.811, 87.503-211.172, 200.00-223.609L 350.00,0.00 
		l-100.00,0.00 l0.00-50.00 l 100.00,0.00 l 50.00,0.00 l 100.00,0.00 l0.00,50.00 l-100.00,0.00 l0.00,101.391 c 112.495,12.438, 200.00,107.798, 200.00,223.609l0.00,75.00 L 550.00,400.00 z" />
<glyph unicode="&#x33;" d="M 600.00,650.00c-76.842,0.00-146.922-28.903-200.00-76.414C 346.923,621.097, 276.842,650.00, 200.00,650.00S 53.077,621.097,0.00,573.588l0.00-13.431 l0.00-60.141 l0.00-300.006 
	L0.00,136.719 l0.00-10.275 c 0.534-0.478, 1.056-0.969, 1.594-1.444c 12.827-11.319, 26.625-21.559, 41.259-30.577c 14.734,11.923, 30.842,22.212, 48.064,30.577
	c 32.966,16.012, 69.973,25.00, 109.083,25.00s 76.119-8.987, 109.083-25.00c 17.22-8.366, 33.33-18.653, 48.064-30.577
	c 2.878-2.33, 5.703-4.722, 8.475-7.175c 12.669-11.216, 24.20-23.686, 34.378-37.234c 10.18,13.548, 21.709,26.019, 34.378,37.234
	c 2.77,2.452, 5.595,4.845, 8.475,7.175c 14.734,11.923, 30.842,22.212, 48.064,30.577c 32.966,16.012, 69.973,25.00, 109.083,25.00
	s 76.119-8.987, 109.083-25.00c 17.22-8.366, 33.33-18.653, 48.064-30.577c 14.634,9.017, 28.431,19.258, 41.258,30.577
	c 0.537,0.475, 1.061,0.966, 1.595,1.444L 800.00,136.719 l0.00,63.291 L 800.00,500.016 L 800.00,560.156 l0.00,13.431 C 746.923,621.097, 676.842,650.00, 600.00,650.00z M 200.00,200.00
	c-54.65,0.00-105.872-14.633-150.00-40.164L 50.00,550.011 C 91.783,581.398, 143.719,600.00, 200.00,600.00c 56.289,0.00, 108.216-18.623, 150.00-50.02l0.00-390.144 
	C 305.872,185.367, 254.65,200.00, 200.00,200.00z M 600.00,200.00c-54.65,0.00-105.872-14.633-150.00-40.164L 450.00,549.98 C 491.784,581.377, 543.712,600.00, 600.00,600.00
	c 56.283,0.00, 108.217-18.603, 150.00-49.991l0.00-390.175 C 705.872,185.367, 654.65,200.00, 600.00,200.00z" />
<glyph unicode="&#x34;" d="M 705.806,594.195l-111.612,111.611C 569.888,730.113, 521.875,750.00, 487.50,750.00L 112.50,750.00 C 78.125,750.00, 50.00,721.875, 50.00,687.50l0.00-675.00 c0.00-34.375, 28.125-62.50, 62.50-62.50l 575.00,0.00 c 34.375,0.00, 62.50,28.125, 62.50,62.50
	L 750.00,487.50 C 750.00,521.875, 730.112,569.889, 705.806,594.195z M 670.452,558.839c 2.445-2.445, 4.883-5.448, 7.25-8.839L 550.00,550.00 L 550.00,677.70 
	c 3.391-2.367, 6.394-4.805, 8.839-7.25L 670.452,558.839z M 700.00,12.50c0.00-6.775-5.725-12.50-12.50-12.50L 112.50,0.00 c-6.775,0.00-12.50,5.725-12.50,12.50L 100.00,687.50 c0.00,6.775, 5.725,12.50, 12.50,12.50
	l 375.00,0.00 c 3.775,0.00, 8.011-0.477, 12.50-1.331L 500.00,500.00 l 198.669,0.00 c 0.855-4.489, 1.331-8.723, 1.331-12.50L 700.00,12.50 z" />
<glyph unicode="&#x35;" d="M 550.00,750.00L 50.00,750.00 l0.00-800.00 l 700.00,0.00 L 750.00,550.00 L 550.00,750.00z M 700.00,0.00L 100.00,0.00 L 100.00,700.00 l 450.00,0.00 l0.00-150.00 l 150.00,0.00 L 700.00,0.00 z" />
<glyph unicode="&#x36;" d="M 400.00-50.00L 400.00,300.00L 50.00,300.00 	zM 50.00,750.00L 50.00,350.00L 450.00,350.00L 450.00-50.00L 750.00-50.00L 750.00,750.00 	z" />
<glyph unicode="&#x37;" d="M 350.00,450.00L 650.00,450.00L 650.00,400.00L 350.00,400.00zM 350.00,350.00L 650.00,350.00L 650.00,300.00L 350.00,300.00zM 350.00,250.00L 650.00,250.00L 650.00,200.00L 350.00,200.00zM 350.00,150.00L 550.00,150.00L 550.00,100.00L 350.00,100.00zM 750.00,600.00l-150.00,0.00 L 600.00,700.00 c0.00,27.50-22.50,50.00-50.00,50.00L 50.00,750.00 C 22.50,750.00,0.00,727.50,0.00,700.00l0.00-550.00 c0.00-27.50, 22.50-50.00, 50.00-50.00l 150.00,0.00 l0.00-100.00 c0.00-27.50, 22.50-50.00, 50.00-50.00l 500.00,0.00 
		c 27.50,0.00, 50.00,22.50, 50.00,50.00L 800.00,550.00 C 800.00,577.50, 777.50,600.00, 750.00,600.00z M 200.00,550.00l0.00-375.00 L 75.00,175.00 L 75.00,675.00 l 450.00,0.00 l0.00-75.00 L 250.00,600.00 C 222.50,600.00, 200.00,577.50, 200.00,550.00z M 725.00,25.00L 275.00,25.00 
		L 275.00,525.00 l 450.00,0.00 L 725.00,25.00 z" />
<glyph unicode="&#x38;" d="M 769.141,550.00L 30.859,550.00 c-20.625,0.00-34.191-16.547-30.145-36.772l 91.931-426.456C 96.691,66.547, 116.875,50.00, 137.50,50.00l 525.00,0.00 
		c 20.625,0.00, 40.809,16.547, 44.855,36.772l 91.931,426.456C 803.331,533.453, 789.766,550.00, 769.141,550.00zM 700.00,612.50c0.00,20.711-16.789,37.50-37.50,37.50L 325.00,650.00 l-25.00,50.00L 137.50,700.00 c-20.711,0.00-37.50-16.789-37.50-37.50l0.00-87.50 l 600.00,0.00 L 700.00,612.50 z" />
<glyph unicode="&#x39;" d="M 769.141,550.00L 700.00,550.00 L 700.00,612.50 c0.00,20.711-16.789,37.50-37.50,37.50L 325.00,650.00 l-25.00,50.00L 137.50,700.00 c-20.711,0.00-37.50-16.789-37.50-37.50l0.00-112.50 L 30.859,550.00 
	c-20.625,0.00-34.191-16.547-30.145-36.772l 91.931-426.456C 96.691,66.547, 116.875,50.00, 137.50,50.00l 525.00,0.00 c 20.625,0.00, 40.809,16.547, 44.855,36.772
	l 91.931,426.456C 803.331,533.453, 789.766,550.00, 769.141,550.00z M 150.00,650.00l 119.098,0.00 l 25.00-50.00L 650.00,600.00 l0.00-50.00 L 150.00,550.00 L 150.00,650.00 z M 659.058,100.00L 140.942,100.00 L 54.714,500.00l 690.572,0.00 
	L 659.058,100.00z" />
<glyph unicode="&#x3a;" d="M 450.00,750.00L0.00,300.00l 350.00-350.00l 450.00,450.00L 800.00,750.00 L 450.00,750.00 z M 650.00,527.50c-40.041,0.00-72.498,32.458-72.498,72.50S 609.959,672.50, 650.00,672.50
	s 72.50-32.458, 72.50-72.50S 690.041,527.50, 650.00,527.50z" />
<glyph unicode="&#x3b;" d="M 100.00,25.00A75.00,75.00 8460.00 1,0 250.00,25A75.00,75.00 8460.00 1,0 100.00,25zM 600.00,25.00A75.00,75.00 8460.00 1,0 750.00,25A75.00,75.00 8460.00 1,0 600.00,25zM 750.00,350.00L 750.00,650.00 L 100.00,650.00 C 100.00,705.228, 55.23,750.00,0.00,750.00l0.00-50.00 c 27.57,0.00, 50.00-22.43, 50.00-50.00l 37.558-321.917C 64.672,309.756, 50.00,281.598, 50.00,250.00
		c0.00-55.23, 44.772-100.00, 100.00-100.00l 600.00,0.00 l0.00,50.00 L 150.00,200.00 c-27.614,0.00-50.00,22.386-50.00,50.00c0.00,0.172, 0.011,0.341, 0.013,0.513L 750.00,350.00z" />
<glyph unicode="&#x3c;" d="M 635.147,450.00L 496.208,630.883C 498.647,636.773, 500.00,643.228, 500.00,650.00c0.00,27.614-22.384,50.00-50.00,50.00c-27.614,0.00-50.00-22.386-50.00-50.00
	s 22.386-50.00, 50.00-50.00c 2.22,0.00, 4.40,0.159, 6.544,0.441L 572.10,450.00L 227.902,450.00 l 115.556,150.441C 345.60,600.159, 347.781,600.00, 350.00,600.00
	c 27.614,0.00, 50.00,22.386, 50.00,50.00s-22.386,50.00-50.00,50.00s-50.00-22.386-50.00-50.00c0.00-6.772, 1.353-13.227, 3.792-19.116L 164.853,450.00L0.00,450.00 l0.00-100.00 l 50.00,0.00 l 50.00-400.00l 600.00,0.00 
	l 50.00,400.00l 50.00,0.00 l0.00,100.00 L 635.147,450.00 z M 250.00,50.00L 150.00,50.00 l0.00,100.00 l 100.00,0.00 L 250.00,50.00 z M 250.00,250.00L 150.00,250.00 l0.00,100.00 l 100.00,0.00 L 250.00,250.00 z M 450.00,50.00l-100.00,0.00 l0.00,100.00 l 100.00,0.00 L 450.00,50.00 z M 450.00,250.00l-100.00,0.00 l0.00,100.00 l 100.00,0.00 L 450.00,250.00 z
	 M 650.00,50.00l-100.00,0.00 l0.00,100.00 l 100.00,0.00 L 650.00,50.00 z M 650.00,250.00l-100.00,0.00 l0.00,100.00 l 100.00,0.00 L 650.00,250.00 z" />
<glyph unicode="&#x3d;" d="M 300.00,750.00L 50.00,750.00 C 22.50,750.00,0.00,727.50,0.00,700.00l0.00-250.00 c0.00-27.50, 22.497-50.00, 50.00-50.00l 250.00,0.00 c 27.50,0.00, 50.00,22.50, 50.00,50.00L 350.00,700.00 C 350.00,727.50, 327.50,750.00, 300.00,750.00z M 300.00,550.00
		L 50.00,550.00 L 50.00,600.00 l 250.00,0.00 L 300.00,550.00 zM 750.00,750.00L 500.00,750.00 c-27.503,0.00-50.00-22.50-50.00-50.00l0.00-700.00 c0.00-27.50, 22.497-50.00, 50.00-50.00l 250.00,0.00 c 27.50,0.00, 50.00,22.50, 50.00,50.00L 800.00,700.00 C 800.00,727.50, 777.50,750.00, 750.00,750.00z
		 M 750.00,250.00L 500.00,250.00 l0.00,50.00 l 250.00,0.00 L 750.00,250.00 z M 750.00,400.00L 500.00,400.00 l0.00,50.00 l 250.00,0.00 L 750.00,400.00 zM 300.00,300.00L 50.00,300.00 C 22.50,300.00,0.00,277.50,0.00,250.00l0.00-250.00 c0.00-27.50, 22.497-50.00, 50.00-50.00l 250.00,0.00 c 27.50,0.00, 50.00,22.50, 50.00,50.00L 350.00,250.00 C 350.00,277.50, 327.50,300.00, 300.00,300.00
		z M 300.00,100.00l-100.00,0.00 l0.00-100.00 L 150.00,0.00 l0.00,100.00 L 50.00,100.00 l0.00,50.00 l 100.00,0.00 l0.00,100.00 l 50.00,0.00 l0.00-100.00 l 100.00,0.00 L 300.00,100.00 z" />
<glyph unicode="&#x3e;" d="M 400.00,750.00C 179.086,750.00,0.00,570.914,0.00,350.00s 179.086-400.00, 400.00-400.00s 400.00,179.086, 400.00,400.00S 620.914,750.00, 400.00,750.00z M 250.00,350.00
	c0.00,82.844, 67.156,150.00, 150.00,150.00s 150.00-67.156, 150.00-150.00s-67.156-150.00-150.00-150.00S 250.00,267.156, 250.00,350.00z M 723.422,216.034L 723.422,216.034l-138.609,57.414
	C 594.592,297.03, 600.00,322.883, 600.00,350.00s-5.408,52.97-15.188,76.552l 95.411,39.52l 43.198,17.894C 740.538,442.698, 750.00,397.458, 750.00,350.00
	C 750.00,302.542, 740.536,257.302, 723.422,216.034L 723.422,216.034z M 533.967,673.422L 533.967,673.422L 533.967,673.422l-57.414-138.609
	C 452.972,544.592, 427.119,550.00, 400.00,550.00s-52.97-5.408-76.552-15.188l-26.922,64.998l-30.492,73.612C 307.302,690.536, 352.544,700.00, 400.00,700.00
	C 447.458,700.00, 492.698,690.536, 533.967,673.422z M 76.578,483.966l 73.612-30.492l 64.998-26.922C 205.409,402.97, 200.00,377.117, 200.00,350.00
	s 5.408-52.97, 15.188-76.552l-138.609-57.414C 59.464,257.302, 50.00,302.542, 50.00,350.00C 50.00,397.458, 59.464,442.698, 76.578,483.966z
	 M 266.034,26.578l 17.894,43.198l 39.52,95.411C 347.03,155.408, 372.883,150.00, 400.00,150.00s 52.97,5.408, 76.552,15.188l 57.414-138.609l0.00,0.00l0.00,0.00
	C 492.698,9.466, 447.458,0.00, 400.00,0.00C 352.544,0.00, 307.302,9.464, 266.034,26.578z" />
<glyph unicode="&#x3f;" d="M 550.00,250.00c-50.00-50.00-50.00-100.00-100.00-100.00s-100.00,50.00-150.00,100.00s-100.00,100.00-100.00,150.00s 50.00,50.00, 100.00,100.00S 200.00,700.00, 150.00,700.00S0.00,550.00,0.00,550.00c0.00-100.00, 102.734-302.734, 200.00-400.00
	s 300.00-200.00, 400.00-200.00c0.00,0.00, 150.00,100.00, 150.00,150.00S 600.00,300.00, 550.00,250.00z" />
<glyph unicode="&#x40;" d="M 508.762,335.653L 800.00,134.788L 800.00,597.205 	zM0.00,597.205L0.00,134.788L 291.231,335.681 	zM 400.00,237.983L 330.467,300.413L0.00,100.00L 800.00,100.00L 469.523,300.413 	zM 776.00,600.00L 24.00,600.00L 400.00,317.303 	z" />
<glyph unicode="&#x41;" d="M 400.00,750.00c-127.609,0.00-231.048-103.441-231.048-231.047c0.00-3.147, 0.095-6.408, 0.25-9.725c 0.078-1.928, 0.197-3.834, 0.327-5.753
	c 0.08-1.217, 0.177-2.459, 0.281-3.705c 0.163-2.038, 0.328-4.078, 0.547-6.103C 189.519,307.02, 400.002-50.00, 400.002-50.00
	s 210.477,357.019, 229.641,543.669c 0.223,2.023, 0.383,4.067, 0.548,6.102c 0.102,1.245, 0.205,2.488, 0.286,3.705
	c 0.131,1.92, 0.247,3.823, 0.328,5.755c 0.152,3.319, 0.245,6.58, 0.245,9.725C 631.041,646.561, 527.603,750.00, 400.00,750.00z M 500.00,500.00
	c0.00-55.23-44.772-100.00-100.00-100.00c-55.228,0.00-100.00,44.77-100.00,100.00s 44.772,100.00, 100.00,100.00C 455.228,600.00, 500.00,555.23, 500.00,500.00z" />
<glyph unicode="&#x42;" d="M 400.00,750.00C 179.086,750.00,0.00,570.914,0.00,350.00s 179.086-400.00, 400.00-400.00s 400.00,179.086, 400.00,400.00S 620.914,750.00, 400.00,750.00z M 400.00,0.00
		C 206.70,0.00, 50.00,156.70, 50.00,350.00S 206.70,700.00, 400.00,700.00s 350.00-156.70, 350.00-350.00S 593.30,0.00, 400.00,0.00zM 200.00,150.00l 264.645,123.703L 600.00,550.00l-270.711-129.289L 200.00,150.00z M 400.00,400.00c 27.614,0.00, 50.00-22.386, 50.00-50.00c0.00-27.614-22.386-50.00-50.00-50.00
		c-27.614,0.00-50.00,22.386-50.00,50.00C 350.00,377.614, 372.386,400.00, 400.00,400.00z" />
<glyph unicode="&#x43;" d="M 400.00,550.00L 400.00,300.00L 600.00,300.00L 600.00,350.00L 450.00,350.00L 450.00,550.00 	zM 450.00,700.00C 256.70,700.00, 100.00,543.30, 100.00,350.00L0.00,350.00 l 125.00-150.00l 125.00,150.00L 150.00,350.00 c0.00,165.686, 134.314,300.00, 300.00,300.00c 165.686,0.00, 300.00-134.314, 300.00-300.00
		c0.00-165.686-134.314-300.00-300.00-300.00c-17.038,0.00-33.737,1.442-50.00,4.172l0.00-50.602 c 16.333-2.336, 33.022-3.57, 50.00-3.57
		c 193.30,0.00, 350.00,156.70, 350.00,350.00S 643.30,700.00, 450.00,700.00z" />
<glyph unicode="&#x44;" d="M 375.00,700.00C 167.894,700.00,0.00,532.106,0.00,325.00c0.00-207.108, 167.894-375.00, 375.00-375.00c 207.108,0.00, 375.00,167.892, 375.00,375.00
		C 750.00,532.106, 582.108,700.00, 375.00,700.00z M 375.00,0.00c-179.492,0.00-325.00,145.508-325.00,325.00S 195.508,650.00, 375.00,650.00s 325.00-145.508, 325.00-325.00
		S 554.492,0.00, 375.00,0.00zM 400.00,395.716L 400.00,600.00 l-50.00,0.00 l0.00-204.284 c-29.127-10.297-50.00-38.063-50.00-70.716c0.00-41.422, 33.578-75.00, 75.00-75.00c 32.653,0.00, 60.417,20.873, 70.716,50.00
		L 600.00,300.00 l0.00,50.00 l-154.284,0.00 C 438.184,371.305, 421.306,388.183, 400.00,395.716z" />
<glyph unicode="&#x45;" d="M 800.00,100.00c-82.845,0.00-150.00,67.156-150.00,150.00L 650.00,472.727 c0.00,109.952-85.892,201.662-200.00,222.722L 450.00,750.00 l-100.00,0.00 l0.00-54.55 
	C 235.887,674.389, 150.00,582.68, 150.00,472.728L 150.00,250.00 c0.00-82.844-67.158-150.00-150.00-150.00l0.00-50.00 l 335.623,0.00 c-4.069-8.925-6.336-18.842-6.336-29.289
	C 329.288-18.341, 360.947-50.00, 400.00-50.00c 39.05,0.00, 70.711,31.659, 70.711,70.711c0.00,10.45-2.267,20.364-6.338,29.289L 800.00,50.00 L 800.00,100.00 z" />
<glyph unicode="&#x46;" d="M 250.00,450.00L 350.00,450.00L 350.00,350.00L 250.00,350.00zM 400.00,450.00L 500.00,450.00L 500.00,350.00L 400.00,350.00zM 550.00,450.00L 650.00,450.00L 650.00,350.00L 550.00,350.00zM 100.00,150.00L 200.00,150.00L 200.00,50.00L 100.00,50.00zM 250.00,150.00L 350.00,150.00L 350.00,50.00L 250.00,50.00zM 400.00,150.00L 500.00,150.00L 500.00,50.00L 400.00,50.00zM 250.00,300.00L 350.00,300.00L 350.00,200.00L 250.00,200.00zM 400.00,300.00L 500.00,300.00L 500.00,200.00L 400.00,200.00zM 550.00,300.00L 650.00,300.00L 650.00,200.00L 550.00,200.00zM 100.00,300.00L 200.00,300.00L 200.00,200.00L 100.00,200.00zM 650.00,750.00l0.00-50.00 l-100.00,0.00 L 550.00,750.00 L 200.00,750.00 l0.00-50.00 L 100.00,700.00 L 100.00,750.00 L0.00,750.00 l0.00-800.00 l 750.00,0.00 L 750.00,750.00 L 650.00,750.00 z M 700.00,0.00L 50.00,0.00 L 50.00,550.00 l 650.00,0.00 L 700.00,0.00 z" />
<glyph unicode="&#x47;" d="M 700.00,300.00L 700.00,100.00L 100.00,100.00L 100.00,300.00L0.00,300.00L0.00,0.00L 800.00,0.00L 800.00,300.00 		zM 650.00,700.00L 150.00,700.00 l0.00-550.00 l 500.00,0.00 L 650.00,700.00 z M 550.00,250.00L 250.00,250.00 l0.00,50.00 l 300.00,0.00 L 550.00,250.00 z M 550.00,400.00L 250.00,400.00 l0.00,50.00 l 300.00,0.00 L 550.00,400.00 z M 550.00,550.00L 250.00,550.00 L 250.00,600.00 l 300.00,0.00 L 550.00,550.00 z" />
<glyph unicode="&#x48;" d="M 500.00,688.392L 500.00,450.00 L 300.00,450.00 L 300.00,688.392 C 225.314,671.022, 150.00,631.213, 150.00,550.00l0.00-331.25 c0.00-120.809, 111.928-218.75, 250.00-218.75c 138.067,0.00, 250.00,97.941, 250.00,218.75
		L 650.00,550.00 C 650.00,631.213, 574.686,671.022, 500.00,688.392zM 450.00,696.98C 431.683,699.095, 414.564,700.00, 400.00,700.00c-14.563,0.00-31.681-0.905-50.00-3.02L 350.00,500.00 l 100.00,0.00 L 450.00,696.98 z" />
<glyph unicode="&#x49;" d="M 399.989,737.442C 179.072,737.442, 0.002,602.225, 0.002,435.444c0.00-130.298, 109.298-241.358, 262.442-283.695
	c 2.247-12.662, 5.078-30.697, 5.078-41.855c0.00-52.539-20.105-102.372-55.919-147.336c 55.381,23.325, 133.555,98.278, 181.989,170.988
	c 2.136-0.025, 4.264-0.131, 6.398-0.131c 220.938,0.00, 400.011,135.217, 400.011,302.03C 800.003,602.225, 620.93,737.442, 399.989,737.442z" />
<glyph unicode="&#x4a;" d="M 670.947,750.00C 759.797,589.037, 799.023,343.513, 450.00,351.70L 450.00,550.00 L 150.00,250.00l 300.00-300.00L 450.00,144.041 C 800.00,144.041, 890.253,512.958, 670.947,750.00
		zM 300.00,479.289L 300.00,550.00L0.00,250.00L 300.00-50.00L 300.00,20.711L 70.711,250.00 	z" />
<glyph unicode="&#x4b;" d="M 350.00,144.041L 350.00-50.00 L 50.00,250.00l 300.00,300.00l0.00-198.30 C 699.023,343.513, 684.053,589.037, 595.205,750.00
	C 814.509,512.958, 767.939,133.148, 350.00,144.041z" />
<glyph unicode="&#x4c;" d="M 204.797,750.00C 115.947,589.037, 100.977,343.513, 450.00,351.70L 450.00,550.00 l 300.00-300.00L 450.00-50.00L 450.00,144.041 C 32.063,133.148-14.509,512.958, 204.797,750.00z" />
<glyph unicode="&#x4d;" d="M 450.00,555.959L 450.00,750.00 l 300.00-300.00L 450.00,150.00L 450.00,348.30 C 100.977,356.489, 115.947,110.962, 204.797-50.00
	C-14.509,187.042, 32.063,566.852, 450.00,555.959z" />
<glyph unicode="&#x4e;" d="M 595.205-50.00C 684.053,110.962, 699.023,356.489, 350.00,348.30L 350.00,150.00 L 50.00,450.00L 350.00,750.00l0.00-194.041 
	C 767.939,566.852, 814.508,187.042, 595.205-50.00z" />
<glyph unicode="&#x4f;" d="M 450.00,750.00L 450.00-50.00L 750.00-50.00 		zM0.00-50.00L 300.00-50.00L 300.00,750.00 		z" />
<glyph unicode="&#x50;" d="M0.00,450.00L 800.00,450.00L 800.00,750.00 		zM 800.00,0.00L 800.00,300.00L0.00,300.00 		z" />
<glyph unicode="&#x51;" d="M 400.00,750.00C 179.084,750.00,0.00,694.037,0.00,625.00l0.00-100.00 c0.00-69.036, 179.08-125.00, 400.00-125.00c 220.914,0.00, 400.00,55.964, 400.00,125.00L 800.00,625.00 C 800.00,694.037, 620.914,750.00, 400.00,750.00
		zM 398.739,350.00C 219.634,350.00, 68.656,386.786, 17.688,437.50C 5.789,425.661,0.00,413.064,0.00,400.00l0.00-100.00 c0.00-69.037, 179.08-125.00, 400.00-125.00
		c 220.914,0.00, 400.00,55.963, 400.00,125.00l0.00,100.00 c0.00,13.064-7.056,25.661-18.955,37.50C 730.078,386.786, 577.844,350.00, 398.739,350.00zM 398.739,125.00C 219.634,125.00, 68.656,161.788, 17.688,212.50C 5.789,200.662,0.00,188.064,0.00,175.00l0.00-100.00 c0.00-69.036, 179.08-125.00, 400.00-125.00
		c 220.914,0.00, 400.00,55.964, 400.00,125.00l0.00,100.00 c0.00,13.064-7.056,25.662-18.955,37.50C 730.078,161.788, 577.844,125.00, 398.739,125.00z" />
<glyph unicode="&#x52;" d="M 350.00,300.00L 450.00,300.00L 450.00,500.00L 600.00,500.00L 400.00,700.00L 200.00,500.00L 350.00,500.00 	zM 500.00,412.50L 500.00,335.381L 728.958,250.00L 400.00,127.33L 71.042,250.00L 300.00,335.381L 300.00,412.50L0.00,300.00L0.00,100.00L 400.00-50.00L 800.00,100.00L 800.00,300.00 	z" />
<glyph unicode="&#x53;" d="M 400.00,300.00L 600.00,500.00L 450.00,500.00L 450.00,700.00L 350.00,700.00L 350.00,500.00L 200.00,500.00 	zM 581.817,381.819L 525.77,325.77L 728.958,250.00L 400.00,127.33L 71.042,250.00L 274.23,325.77L 218.181,381.819L0.00,300.00L0.00,100.00L 400.00-50.00L 800.00,100.00L 800.00,300.00 	z" />
<glyph unicode="&#x54;" d="M 650.00,700.00L 150.00,700.00 L0.00,550.00l0.00-525.00 c0.00-13.808, 11.192-25.00, 25.00-25.00l 750.00,0.00 c 13.806,0.00, 25.00,11.192, 25.00,25.00L 800.00,550.00 L 650.00,700.00z M 500.00,250.00l0.00-150.00 L 300.00,100.00 l0.00,150.00 L 150.00,250.00 l 250.00,200.00
	l 250.00-200.00L 500.00,250.00 z M 120.711,600.00l 50.00,50.00l 458.575,0.00 l 50.00-50.00L 120.711,600.00 z" />
<glyph unicode="&#x55;" d="M 650.00,700.00L 150.00,700.00 L0.00,550.00l0.00-525.00 c0.00-13.808, 11.192-25.00, 25.00-25.00l 750.00,0.00 c 13.806,0.00, 25.00,11.192, 25.00,25.00L 800.00,550.00 L 650.00,700.00z M 400.00,100.00L 150.00,300.00l 150.00,0.00 l0.00,150.00 l 200.00,0.00 l0.00-150.00 l 150.00,0.00 
	L 400.00,100.00z M 120.711,600.00l 50.00,50.00l 458.577,0.00 l 50.00-50.00L 120.711,600.00 z" />
<glyph unicode="&#x56;" d="M 50.00,650.00L 750.00,650.00L 750.00,550.00L 50.00,550.00zM 100.00,50.00l 600.00,0.00 L 700.00,500.00 L 100.00,500.00 L 100.00,50.00 z M 300.00,450.00l 200.00,0.00 l0.00-50.00 L 300.00,400.00 L 300.00,450.00 z" />
<glyph unicode="&#x57;" d="M 550.00,600.00L 250.00,600.00 L0.00,300.00l0.00-200.00 c0.00-27.614, 22.386-50.00, 50.00-50.00l 700.00,0.00 c 27.616,0.00, 50.00,22.386, 50.00,50.00L 800.00,300.00 L 550.00,600.00z M 500.00,200.00L 300.00,200.00 l-50.00,50.00l 300.00,0.00 
		L 500.00,200.00z M 65.086,300.00l 208.333,250.00l 253.162,0.00 l 208.333-250.00L 65.086,300.00 zM 222.628,450.00L 577.372,450.00L 535.705,500.00L 264.294,500.00 	zM 139.295,350.00L 660.706,350.00L 619.039,400.00L 180.961,400.00 	z" />
<glyph unicode="&#x58;" d="M 550.00,600.00L 250.00,600.00 L0.00,300.00l0.00-125.00 l0.00-75.00 c0.00-27.614, 22.386-50.00, 50.00-50.00l 700.00,0.00 c 27.616,0.00, 50.00,22.386, 50.00,50.00l0.00,75.00 l0.00,125.00 L 550.00,600.00z M 600.00,300.00l-100.00-100.00L 300.00,200.00 
	l-100.00,100.00L 65.086,300.00 l 208.333,250.00l 253.162,0.00 l 208.333-250.00L 600.00,300.00 z" />
<glyph unicode="&#x59;" d="M 550.00,750.00L 250.00,750.00 L 100.00,650.00l0.00-200.00 l 600.00,0.00 L 700.00,650.00 L 550.00,750.00z M 500.00,500.00l-50.00,0.00 l0.00,33.333 C 450.00,542.50, 442.50,550.00, 433.333,550.00l-66.666,0.00 
		c-9.166,0.00-16.667-7.50-16.667-16.667L 350.00,500.00 l-50.00,0.00 l0.00,83.333 C 300.00,592.50, 307.502,600.00, 316.667,600.00l 166.664,0.00 c 9.167,0.00, 16.669-7.50, 16.669-16.667
		L 500.00,500.00 zM 100.00,199.998l 600.00,0.00 L 700.00,400.00 L 100.00,400.00 L 100.00,199.998 z M 300.00,333.334c0.00,9.167, 7.502,16.666, 16.667,16.666l 166.664,0.00 
		c 9.167,0.00, 16.669-7.498, 16.669-16.666L 500.00,250.00 l-50.00,0.00 l0.00,33.334 c0.00,9.167-7.50,16.666-16.667,16.666l-66.666,0.00 
		c-9.166,0.00-16.667-7.498-16.667-16.666L 350.00,250.00 l-50.00,0.00 L 300.00,333.334 zM 100.00-50.00l 600.00,0.00 L 700.00,149.998 L 100.00,149.998 L 100.00-50.00 z M 300.00,83.334c0.00,9.167, 7.502,16.666, 16.667,16.666l 166.664,0.00 c 9.167,0.00, 16.669-7.498, 16.669-16.666
		L 500.00,0.00 l-50.00,0.00 l0.00,33.334 c0.00,9.167-7.50,16.666-16.667,16.666l-66.666,0.00 c-9.166,0.00-16.667-7.498-16.667-16.666L 350.00,0.00 l-50.00,0.00 L 300.00,83.334 z" />
<glyph unicode="&#x5a;" d="M 525.00,750.00c-13.808,0.00-25.00-11.192-25.00-25.00l0.00-75.00 L 225.00,650.00 c-13.806,0.00-25.00-11.192-25.00-25.00l0.00-650.00 c0.00-13.806, 11.194-25.00, 25.00-25.00l 300.00,0.00 c 13.808,0.00, 25.00,11.194, 25.00,25.00L 550.00,725.00 
	C 550.00,738.808, 538.808,750.00, 525.00,750.00z M 300.00,0.00l-50.00,0.00 l0.00,50.00 l 50.00,0.00 L 300.00,0.00 z M 300.00,100.00l-50.00,0.00 l0.00,50.00 l 50.00,0.00 L 300.00,100.00 z M 300.00,200.00l-50.00,0.00 l0.00,50.00 l 50.00,0.00 L 300.00,200.00 z M 400.00,0.00l-50.00,0.00 l0.00,50.00 l 50.00,0.00 L 400.00,0.00 z
	 M 400.00,100.00l-50.00,0.00 l0.00,50.00 l 50.00,0.00 L 400.00,100.00 z M 400.00,200.00l-50.00,0.00 l0.00,50.00 l 50.00,0.00 L 400.00,200.00 z M 500.00,0.00l-50.00,0.00 l0.00,50.00 l 50.00,0.00 L 500.00,0.00 z M 500.00,100.00l-50.00,0.00 l0.00,50.00 l 50.00,0.00 L 500.00,100.00 z M 500.00,200.00l-50.00,0.00 l0.00,50.00 l 50.00,0.00 L 500.00,200.00 z
	 M 500.00,325.00c0.00-13.806-11.192-25.00-25.00-25.00L 275.00,300.00 c-13.806,0.00-25.00,11.194-25.00,25.00L 250.00,575.00 c0.00,13.808, 11.194,25.00, 25.00,25.00l 200.00,0.00 c 13.808,0.00, 25.00-11.192, 25.00-25.00L 500.00,325.00 z" />
<glyph unicode="&#x5b;" d="M 700.00,200.00L 700.00,600.00 c0.00,27.50-22.50,50.00-50.00,50.00L 150.00,650.00 c-27.50,0.00-50.00-22.50-50.00-50.00l0.00-400.00 L0.00,200.00 l0.00-150.00 l 800.00,0.00 l0.00,150.00 L 700.00,200.00 z M 500.00,100.00L 300.00,100.00 l0.00,50.00 l 200.00,0.00 L 500.00,100.00 z M 650.00,200.00L 150.00,200.00 
	L 150.00,599.911 c 0.027,0.031, 0.059,0.064, 0.089,0.089l 499.82,0.00 c 0.031-0.027, 0.064-0.059, 0.091-0.091L 650.00,200.00 z" />
<glyph unicode="&#x5c;" d="M 800.00,100.00L 800.00,700.00 L0.00,700.00 l0.00-600.00 l 350.00,0.00 l0.00-50.00 l-150.00,0.00 l0.00-50.00 l 400.00,0.00 l0.00,50.00 l-150.00,0.00 l0.00,50.00 L 800.00,100.00 z M 100.00,600.00l 600.00,0.00 l0.00-400.00 L 100.00,200.00 L 100.00,600.00 z" />
<glyph unicode="&#x5d;" d="M 800.00,275.00c0.00,49.975-41.066,93.095-100.405,113.098c-5.966-90.909-79.911-169.108-186.345-209.273
		c 19.77-11.733, 43.205-20.425, 68.911-25.045c 18.569-43.389, 47.939-85.056, 83.958-112.391c-19.481,38.239-20.617,76.475-13.787,110.131
		C 735.997,160.895, 800.00,212.606, 800.00,275.00zM 650.00,400.00c0.00,110.456-134.314,200.00-300.00,200.00C 184.316,600.00, 50.00,510.456, 50.00,400.00c0.00-82.245, 74.475-152.883, 180.908-183.608
		c 16.656-41.194, 26.044-95.569-1.659-149.948c 42.102,31.95, 75.127,83.475, 92.416,134.45C 330.995,200.311, 340.442,200.00, 350.00,200.00
		C 515.686,200.00, 650.00,289.544, 650.00,400.00z" />
<glyph unicode="&#x5e;" d="M 350.00,300.00L 350.00,650.00 C 156.70,650.00,0.00,493.30,0.00,300.00s 156.70-350.00, 350.00-350.00s 350.00,156.70, 350.00,350.00c0.00,56.277-13.303,109.441-36.903,156.548
		L 350.00,300.00zM 713.097,556.548C 655.634,671.248, 537.023,750.00, 400.00,750.00l0.00-350.00 L 713.097,556.548z" />
<glyph unicode="&#x5f;" d="M 750.00,350.00c0.00,0.00-25.436,300.00-50.00,350.00S 500.00,750.00, 400.00,750.00S 124.563,750.00, 100.00,700.00S 50.00,350.00, 50.00,350.00l0.00-300.00 l 100.00,0.00 l0.00-50.00 c0.00-27.614, 22.386-50.00, 50.00-50.00
	s 50.00,22.386, 50.00,50.00l0.00,50.00 l 300.00,0.00 l0.00-50.00 c0.00-27.614, 22.386-50.00, 50.00-50.00c 27.616,0.00, 50.00,22.386, 50.00,50.00l0.00,50.00 l 100.00,0.00 L 750.00,350.00 z M 250.00,700.00l 300.00,0.00 l0.00-50.00 L 250.00,650.00 L 250.00,700.00 z
	 M 164.153,436.297c 9.505,83.327, 16.948,127.794, 21.631,150.725c 13.416,3.128, 36.244,6.998, 73.23,9.602C 307.023,600.00, 358.578,600.00, 400.00,600.00
	s 92.977,0.00, 140.986-3.377c 36.986-2.602, 59.814-6.472, 73.23-9.602c 4.681-22.931, 12.127-67.40, 21.631-150.727
	c 1.411-12.37, 2.748-24.559, 3.998-36.297L 160.155,399.998 C 161.405,411.738, 162.742,423.927, 164.153,436.297z M 200.00,177.50
	c-40.041,0.00-72.50,32.458-72.50,72.50c0.00,40.041, 32.458,72.50, 72.50,72.50s 72.50-32.459, 72.50-72.50C 272.50,209.958, 240.042,177.50, 200.00,177.50z
	 M 600.00,177.50c-40.042,0.00-72.498,32.458-72.498,72.50c0.00,40.041, 32.456,72.50, 72.498,72.50s 72.50-32.459, 72.50-72.50
	C 672.502,209.958, 640.042,177.50, 600.00,177.50z" />
<glyph unicode="&#x60;" d="M 400.00,700.00L 50.00,550.00L 400.00,400.00L 750.00,550.00 	zM 50.00,100.00L 350.00-25.00L 350.00,325.00L 50.00,450.00 	zM 450.00-25.00L 750.00,100.00L 750.00,450.00L 450.00,325.00 	z" />
<glyph unicode="&#x61;" d="M0.00,100.00L 800.00,100.00L 800.00,0.00L0.00,0.00zM 100.00,300.00L 200.00,300.00L 200.00,150.00L 100.00,150.00zM 250.00,500.00L 350.00,500.00L 350.00,150.00L 250.00,150.00zM 400.00,350.00L 500.00,350.00L 500.00,150.00L 400.00,150.00zM 550.00,650.00L 650.00,650.00L 650.00,150.00L 550.00,150.00z" />
<glyph unicode="&#x62;" d="M 725.00,750.00L 75.00,750.00 C 33.75,750.00,0.00,716.25,0.00,675.00l0.00-500.00 c0.00-41.25, 33.75-75.00, 75.00-75.00l 175.00,0.00 l 150.00-150.00l 150.00,150.00l 175.00,0.00 c 41.25,0.00, 75.00,33.75, 75.00,75.00L 800.00,675.00 
	C 800.00,716.25, 766.252,750.00, 725.00,750.00z" />
<glyph unicode="&#x63;" d="M 725.00,550.00L 275.00,550.00 c-41.25,0.00-75.00-33.75-75.00-75.00l0.00-350.00 c0.00-41.25, 33.75-75.00, 75.00-75.00l 125.00,0.00 l 100.00-100.00l 100.00,100.00l 125.00,0.00 c 41.25,0.00, 75.00,33.75, 75.00,75.00L 800.00,475.00 
		C 800.00,516.25, 766.252,550.00, 725.00,550.00zM 600.00,675.00c0.00,41.25-33.75,75.00-75.00,75.00L 75.00,750.00 C 33.75,750.00,0.00,716.25,0.00,675.00l0.00-350.00 c0.00-41.25, 33.75-75.00, 75.00-75.00l 25.00,0.00 L 100.00,575.00 c0.00,41.422, 33.578,75.00, 75.00,75.00l 425.00,0.00 L 600.00,675.00 z" />
<glyph unicode="&#x64;" d="M 50.00,200.00L 150.00,200.00L 150.00-50.00L 50.00-50.00zM 250.00,300.00L 350.00,300.00L 350.00-50.00L 250.00-50.00zM 450.00,350.00L 550.00,350.00L 550.00-50.00L 450.00-50.00zM 650.00,500.00L 750.00,500.00L 750.00-50.00L 650.00-50.00zM 600.00,750.00L 650.00,700.00L 450.00,500.00L 350.00,600.00L 50.00,300.00L 100.00,250.00L 350.00,500.00L 450.00,400.00L 700.00,650.00L 750.00,600.00L 750.00,750.00 	z" />
<glyph unicode="&#x65;" d="M 375.00,700.00L0.00,550.00l0.00-350.00 l 375.00-200.00l 375.00,200.00L 750.00,550.00 L 375.00,700.00z M 350.00,70.00L 50.00,230.00L 50.00,473.333 l 300.00-160.00L 350.00,70.00 z M 64.841,522.084L 375.00,646.148
	l 310.159-124.064L 375.00,356.667L 64.841,522.084z M 700.00,230.00L 400.00,70.00L 400.00,313.333 l 300.00,160.00L 700.00,230.00 z" />
<glyph unicode="&#x66;" d="M 748.695,549.805L 617.094,549.805 c-33.93,0.052-67.731,2.348-34.769,60.514c 33.028,58.281, 56.342,139.877-76.253,139.877 c-132.589,0.00-109.273-81.595-76.245-139.877c 32.962-58.166-0.841-60.459-34.773-60.514l-143.653,0.00 c-28.219,0.00-51.305-23.091-51.305-51.303 l0.00-159.67 c0.00-33.994, 9.225-67.989-49.052-34.966C 92.769,336.892,0.00,360.205,0.00,227.613c0.00-132.584, 92.766-109.273, 151.047-76.247 c 58.277,33.027, 49.052-0.969, 49.052-34.969l0.00-115.286 c0.00-28.222, 23.089-51.305, 51.305-51.305l 143.455,0.00 c 34.00,0.00, 67.995,13.603, 34.972,71.881 c-33.027,58.273-56.345,139.873, 76.245,139.873c 132.591,0.00, 109.278-81.595, 76.25-139.873c-33.023-58.28, 0.973-71.883, 34.97-71.883l 131.40,0.00 c 28.222,0.00, 51.308,23.089, 51.308,51.305L 800.003,498.503 C 800.003,526.717, 776.917,549.805, 748.695,549.805z" />
<glyph unicode="&#x67;" d="M 500.00,500.00l 150.00,100.00L 500.00,750.00l-93.75-218.75L 350.00,700.00l-150.00-100.00l 125.00-100.00L 50.00,500.00 l0.00-200.00 l 50.00,0.00 l0.00-350.00 l 600.00,0.00 L 700.00,300.00 l 50.00,0.00 L 750.00,500.00 L 500.00,500.00 z M 512.65,684.317l 78.489-78.489
	l-156.98-104.653L 512.65,684.317z M 329.95,641.564l 44.319-132.956l-110.797,88.638L 329.95,641.564z M 350.00,0.00L 150.00,0.00 L 150.00,325.00 l 200.00,0.00 L 350.00,0.00 z M 350.00,350.00
	L 100.00,350.00 l0.00,100.00 l 250.00,0.00 L 350.00,350.00 z M 650.00,0.00L 450.00,0.00 L 450.00,325.00 l 200.00,0.00 L 650.00,0.00 z M 700.00,350.00L 450.00,350.00 l0.00,100.00 l 250.00,0.00 L 700.00,350.00 z" />
<glyph unicode="&#x68;" d="M 750.00,650.00L 50.00,650.00 C 22.50,650.00,0.00,627.50,0.00,600.00l0.00-350.00 c0.00-27.50, 22.50-50.00, 50.00-50.00l 100.00,0.00 l0.00-150.00 l 112.50,150.00l 487.50,0.00 c 27.50,0.00, 50.00,22.50, 50.00,50.00L 800.00,600.00 
	C 800.00,627.50, 777.50,650.00, 750.00,650.00z M 250.00,350.00L 150.00,350.00 l0.00,100.00 l 100.00,0.00 L 250.00,350.00 z M 450.00,350.00l-100.00,0.00 l0.00,100.00 l 100.00,0.00 L 450.00,350.00 z M 650.00,350.00l-100.00,0.00 l0.00,100.00 l 100.00,0.00 L 650.00,350.00 z" />
<glyph unicode="&#x69;" d="M 200.00,500.00A200.00,200.00 10260.00 1,0 600.00,500A200.00,200.00 10260.00 1,0 200.00,500zM 600.00,250.00L 200.00,250.00 C 89.544,250.00,0.00,160.455,0.00,50.00l0.00-50.00 l 6.302,0.00 l 787.397,0.00 L 800.00,0.00 l0.00,50.00 C 800.00,160.455, 710.456,250.00, 600.00,250.00z" />
<glyph unicode="&#x6a;" d="M 800.00,700.00c-50.00,0.00-250.00,0.00-250.00,0.00l0.00-100.00 L 250.00,600.00 L 250.00,700.00 c0.00,0.00-200.00,0.00-250.00,0.00c0.00-250.00, 200.00-542.481, 350.00-587.50l0.00-62.50 c-50.00,0.00-100.00-25.00-100.00-50.00l 300.00,0.00 c0.00,25.00-50.00,50.00-100.00,50.00
	l0.00,62.50 C 600.00,157.519, 800.00,450.00, 800.00,700.00z M 599.766,573.083L 600.00,600.00L 600.00,650.00 l 147.23,0.00 c-4.355-40.373-13.836-83.013-28.344-127.336
	c-19.175-58.592-46.966-118.609-80.364-173.566c-32.123-52.853-68.588-99.78-105.45-135.706c-3.541-3.45-7.064-6.775-10.57-9.986
	C 588.78,336.309, 598.377,502.622, 599.766,573.083z M 266.928,213.394c-36.864,35.925-73.328,82.852-105.45,135.706
	c-33.398,54.956-61.189,114.973-80.364,173.566C 66.608,566.988, 57.125,609.627, 52.77,650.00L 200.00,650.00 l0.00-50.00 l 0.234-26.917
	c 1.389-70.462, 10.986-236.773, 77.263-369.675C 273.992,206.619, 270.467,209.944, 266.928,213.394z" />
<glyph unicode="&#x6b;" d="M0.00,550.00l0.00-400.00 l 250.00,0.00 l 150.00,150.00l 150.00-150.00l 250.00,0.00 L 800.00,550.00 L0.00,550.00 z M 350.00,350.00l-100.00-100.00L 50.00,250.00 L 50.00,450.00 l 300.00,0.00 L 350.00,350.00 z M 750.00,250.00L 550.00,250.00 l-100.00,100.00l0.00,100.00 l 300.00,0.00 L 750.00,250.00 z" />
<glyph unicode="&#x6c;" d="M 550.00,700.00l0.00-75.00 l 125.00-225.00L 125.00,400.00 l 125.00,225.00L 250.00,700.00 L0.00,400.00l0.00-400.00 l 250.00,0.00 l 150.00,150.00l 150.00-150.00l 250.00,0.00 L 800.00,400.00 L 550.00,700.00z M 350.00,200.00l-100.00-100.00L 50.00,100.00 L 50.00,300.00 l 300.00,0.00 L 350.00,200.00 z M 750.00,100.00L 550.00,100.00 
	l-100.00,100.00l0.00,100.00 l 300.00,0.00 L 750.00,100.00 z" />
<glyph unicode="&#x6d;" d="M 100.00,650.00L0.00,550.00L 200.00,550.00 	zM 400.00,550.00L 300.00,650.00L 200.00,550.00 	zM 400.002,550.00L 600.00,550.00L 500.00,650.00 	zM 800.00,550.00L 700.00,650.00L 600.00,550.00 	zM 500.00,650.00L 700.00,650.00L 650.00,700.00L 150.00,700.00L 100.00,650.00L 300.00,650.00 	zM 400.00,0.00L 175.00,450.00L 310.00,450.00L 400.00,0.00L 490.00,450.00L 625.00,450.00L 400.00,0.00L 800.00,500.00L0.00,500.00 	z" />
<glyph unicode="&#x6e;" d="M 486.583,200.987c-17.273,2.748-17.667,50.245-17.667,50.245s 50.756,50.247, 61.819,117.814
	c 29.758,0.00, 48.139,71.833, 18.377,97.106C 550.353,492.758, 587.361,675.00, 400.00,675.00c-187.361,0.00-150.352-182.242-149.113-208.847
	c-29.761-25.273-11.383-97.106, 18.377-97.106c 11.061-67.567, 61.819-117.814, 61.819-117.814s-0.394-47.497-17.667-50.245
	C 257.775,192.134, 50.00,100.492, 50.00,0.00l 350.00,0.00 l 350.00,0.00 C 750.00,100.492, 542.225,192.134, 486.583,200.987z" />
<glyph unicode="&#x6f;" d="M 250.00,600.00A150.00,150.00 8460.00 1,0 550.00,600A150.00,150.00 8460.00 1,0 250.00,600zM 600.061,400.00l-0.122,0.00 l-27.553,0.00 l-155.55-315.816L 475.00,375.00l-75.00,75.00l-75.00-75.00l 58.164-290.816L 227.616,400.00l-27.555,0.00 l-0.12,0.00 
		C 100.00,400.00, 100.00,332.823, 100.00,250.00l0.00-250.00 l 600.00,0.00 L 700.00,250.00 C 700.00,332.823, 700.00,400.00, 600.061,400.00z" />
<glyph unicode="&#x70;" d="M 661.805,404.394c 0.052,3.958, 0.077,7.931, 0.077,11.916c0.00,47.706-145.667,86.381-325.352,86.381
		c-179.683,0.00-325.348-38.675-325.348-86.381C 11.181,158.773, 114.916-50.00, 336.53-50.00c 130.333,0.00, 219.88,72.227, 271.544,184.091
		c 5.216-0.422, 10.467-0.714, 15.811-0.714c 91.089,0.00, 164.936,61.494, 164.936,137.35C 788.819,335.714, 734.614,390.123, 661.805,404.394z
		 M 545.533,381.294c-57.327-13.519-131.555-20.964-209.003-20.964c-77.445,0.00-151.672,7.445-209.00,20.964
		c-55.972,13.20-78.712,28.337-84.769,35.017c 6.056,6.68, 28.798,21.814, 84.769,35.014c 57.325,13.52, 131.552,20.967, 209.00,20.967
		c 77.445,0.00, 151.673-7.448, 209.003-20.967c 55.972-13.20, 78.714-28.334, 84.772-35.014C 624.247,409.631, 601.505,394.495, 545.533,381.294
		z M 622.294,168.417c 19.589,52.914, 31.805,112.969, 36.875,177.366c 47.656-9.759, 75.656-44.711, 75.656-80.305
		C 734.82,219.567, 701.13,173.728, 622.294,168.417zM 399.514,553.003C 443.564,619.592, 322.464,691.175, 406.106,750.00c-69.575-4.598-81.502-47.169-63.961-80.408
		C 358.797,638.044, 399.452,616.044, 399.514,553.003zM 364.317,508.592c 19.759,55.794-92.608,100.805-30.553,165.322c-58.139-17.175-56.645-64.987-31.605-91.72
		C 320.236,562.891, 352.977,553.934, 364.317,508.592z" />
<glyph unicode="&#x71;" d="M 750.00,600.00L 750.00,650.00L 400.00,550.00L 50.00,650.00L 50.00,600.00L 300.00,500.00L 300.00,300.00L 200.00-50.00L 250.00-50.00L 400.00,300.00L 550.00-50.00L 600.00-50.00L 500.00,300.00L 500.00,500.00 	zM 325.00,675.00A75.00,75.00 10260.00 1,0 475.00,675A75.00,75.00 10260.00 1,0 325.00,675z" />
<glyph unicode="&#x72;" d="M 250.00,25.00c-96.65,0.00-175.00,78.352-175.00,175.00c0.00,68.513, 39.375,127.817, 96.723,156.547l-33.547,67.091C 56.252,382.594,0.00,297.873,0.00,200.00
		c0.00-138.072, 111.928-250.00, 250.00-250.00s 250.00,111.928, 250.00,250.00l-75.00,0.00 C 425.00,103.352, 346.65,25.00, 250.00,25.00zM 750.00,200.00L 700.00,150.00L 529.286,320.711L 350.00,320.711L 350.00,400.00L 550.00,400.00L 550.00,450.00L 350.00,450.00L 350.00,550.00L 250.00,550.00L 250.00,250.00L 500.00,250.00L 700.00,50.00L 800.00,150.00 	zM 225.00,675.00A75.00,75.00 10260.00 1,0 375.00,675A75.00,75.00 10260.00 1,0 225.00,675z" />
<glyph unicode="&#x73;" d="M 550.00,700.00L 300.00,450.00L 150.00,450.00 L0.00,250.00c0.00,0.00, 158.919,44.259, 251.614,23.503L0.00-50.00l 329.611,256.363C 375.578,101.164, 300.00-50.00, 300.00-50.00l 200.00,150.00
	l0.00,150.00 l 250.00,250.00L 800.00,750.00L 550.00,700.00z" />
<glyph unicode="&#x74;" d="M 569.525,350.00C 677.145,418.23, 750.00,549.381, 750.00,700.00c0.00,16.934-0.931,33.62-2.717,50.00L 52.719,750.00 C 50.93,733.619, 50.00,716.933, 50.00,700.00
		c0.00-150.619, 72.855-281.77, 180.473-350.00C 122.855,281.77, 50.00,150.619, 50.00,0.00c0.00-16.934, 0.93-33.62, 2.717-50.00l 694.564,0.00 
		c 1.787,16.38, 2.717,33.066, 2.717,50.00C 750.00,150.619, 677.145,281.77, 569.525,350.00z M 125.00,0.00c0.00,146.025, 62.627,269.855, 175.00,310.709
		l0.00,78.583 l0.00,0.00 C 187.627,430.144, 125.00,553.973, 125.00,700.00l0.00,0.00 l 550.00,0.00 l0.00,0.00 c0.00-146.027-62.627-269.856-175.00-310.708l0.00-78.583 
		C 612.373,269.855, 675.00,146.025, 675.00,0.00L 125.00,0.00 zM 484.083,226.88c-55.98,31.753-59.069,72.944-59.083,97.942L 425.00,375.00 c0.00,24.995, 2.972,66.339, 59.175,98.175
		c 30.081,17.472, 56.10,44.022, 75.819,76.825L 240.008,550.00 c 19.739-32.837, 45.791-59.408, 75.911-76.88
		c 55.98-31.753, 59.067-72.942, 59.083-97.942L 375.002,325.00 c0.00-24.994-2.972-66.339-59.175-98.175c-56.736-32.953-99.014-98.191-111.789-176.825
		l 391.93,0.00 C 583.183,128.678, 540.866,193.944, 484.083,226.88z" />
<glyph unicode="&#x75;" d="M 300.00,650.00A100.00,100.00 10260.00 1,0 500.00,650A100.00,100.00 10260.00 1,0 300.00,650zM 512.133,562.133A100.00,100.00 10260.00 1,0 712.133,562.133A100.00,100.00 10260.00 1,0 512.133,562.133zM 650.00,350.00A50.00,50.00 10260.00 1,0 750.00,350A50.00,50.00 10260.00 1,0 650.00,350zM 562.133,137.867A50.00,50.00 10260.00 1,0 662.133,137.86699999999996A50.00,50.00 10260.00 1,0 562.133,137.86699999999996zM 350.002,50.00A50.00,50.00 10260.00 1,0 450.002,50A50.00,50.00 10260.00 1,0 350.002,50zM 137.869,137.867A50.00,50.00 10260.00 1,0 237.869,137.86699999999996A50.00,50.00 10260.00 1,0 137.869,137.86699999999996zM 112.869,562.133A75.00,75.00 10260.00 1,0 262.869,562.133A75.00,75.00 10260.00 1,0 112.869,562.133zM 43.75,350.00A56.25,56.25 10260.00 1,0 156.25,350A56.25,56.25 10260.00 1,0 43.75,350z" />
<glyph unicode="&#x76;" d="M 400.00,550.00C 179.086,550.00,0.00,370.916,0.00,150.00l 50.00,0.00 c0.00,90.952, 40.473,172.442, 104.392,227.459l 169.411-211.761
	c-1.039-5.07-1.584-10.319-1.584-15.698c0.00-42.956, 34.823-77.78, 77.78-77.78c 42.958,0.00, 77.78,34.823, 77.78,77.78
	s-34.822,77.783-77.78,77.783c-5.377,0.00-10.628-0.548-15.697-1.587L 174.967,393.667c 49.262,35.45, 109.708,56.334, 175.033,56.334
	c 165.684,0.00, 300.00-134.313, 300.00-299.998l 150.00,0.00 C 800.00,370.916, 620.914,550.00, 400.00,550.00z" />
<glyph unicode="&#x77;" d="M 400.00,750.00C 179.086,750.00,0.00,570.914,0.00,350.00s 179.086-400.00, 400.00-400.00s 400.00,179.086, 400.00,400.00S 620.914,750.00, 400.00,750.00z M 612.133,137.867
	C 567.438,93.173, 511.12,64.334, 450.00,54.138L 450.00,200.00 l-100.00,0.00 l0.00-145.863 c-61.12,10.195-117.438,39.034-162.133,83.73
	C 143.175,182.562, 114.334,238.88, 104.139,300.00L 250.00,300.00 l0.00,100.00 L 104.139,400.00 c 10.195,61.12, 39.036,117.438, 83.73,162.133
	C 232.563,606.827, 288.88,635.666, 350.00,645.863L 350.00,500.00 l 100.00,0.00 L 450.00,645.863 c 61.12-10.195, 117.438-39.036, 162.133-83.73
	c 44.694-44.694, 73.534-101.011, 83.73-162.133L 550.00,400.00 l0.00-100.00 l 145.863,0.00 C 685.666,238.88, 656.827,182.562, 612.133,137.867z" />
<glyph unicode="&#x78;" d="M 400.00,550.00C 179.086,550.00,0.00,370.916,0.00,150.00l 50.00,0.00 c0.00,165.686, 134.314,300.00, 300.00,300.00c 11.198,0.00, 22.252-0.619, 33.133-1.812l-25.916-233.225
	c-21.084-13.912-34.998-37.811-34.998-64.963c0.00-42.956, 34.825-77.78, 77.781-77.78S 477.781,107.044, 477.781,150.00
	c0.00,27.152-13.912,51.05-34.997,64.963l-25.269,227.409C 550.688,411.745, 650.00,292.472, 650.00,150.00l 150.00,0.00 C 800.00,370.916, 620.914,550.00, 400.00,550.00z" />
<glyph unicode="&#x79;" d="M 800.00,350.00c-0.998,52.236-12.331,104.309-33.263,151.923c-20.863,47.656-51.142,90.827-88.314,126.50
	c-37.15,35.70-81.206,63.922-128.894,82.541C 501.87,729.655, 450.627,738.583, 400.00,737.50c-50.633-1.002-101.041-12.011-147.136-32.309
	c-46.131-20.231-87.923-49.586-122.448-85.606c-34.55-36.002-61.844-78.678-79.833-124.842C 32.525,448.60, 23.92,399.023, 25.00,350.00
	c 1.005-49.031, 11.691-97.772, 31.355-142.348c 19.60-44.609, 48.028-85.022, 82.898-118.397c 34.852-33.402, 76.15-59.769, 120.792-77.125
	C 304.669-5.295, 352.581-13.575, 400.00-12.50c 47.428,1.008, 94.502,11.37, 137.559,30.402c 43.086,18.97, 82.122,46.469, 114.348,80.191
	c 32.252,33.703, 57.691,73.622, 74.417,116.742c 10.183,26.139, 17.094,53.438, 20.736,81.092c 0.973-0.056, 1.952-0.094, 2.939-0.094
	c 27.614,0.00, 50.00,22.384, 50.00,50.00c0.00,1.403-0.073,2.791-0.186,4.166L 800.00,349.998 z M 720.552,217.228c-18.338-41.564-44.909-79.219-77.483-110.297
	c-32.555-31.102-71.094-55.614-112.691-71.711C 488.794,19.066, 444.214,11.43, 400.00,12.50c-44.222,1.014-87.966,10.731-127.984,28.495
	c-40.039,17.708-76.316,43.352-106.245,74.775c-29.952,31.405-53.538,68.566-69.002,108.639C 81.245,264.475, 73.934,307.389, 75.00,350.00
	c 1.017,42.619, 10.412,84.697, 27.542,123.195c 17.077,38.516, 41.795,73.414, 72.067,102.195c 30.258,28.803, 66.039,51.461, 104.589,66.294
	C 317.744,656.575, 358.992,663.564, 400.00,662.50c 41.016-1.02, 81.428-10.092, 118.408-26.589c 36.994-16.445, 70.513-40.236, 98.144-69.361
	c 27.653-29.108, 49.383-63.511, 63.586-100.537C 694.394,428.988, 701.061,389.405, 700.00,350.00l 0.186,0.00 c-0.112-1.375-0.186-2.763-0.186-4.166
	c0.00-25.791, 19.525-47.011, 44.598-49.706C 739.736,268.923, 731.684,242.364, 720.552,217.228z" />
<glyph unicode="&#x7a;" d="M 400.00,750.00C 179.444,750.00,0.00,570.566,0.00,349.998C0.00,129.434, 179.444-50.00, 400.00-50.00c 220.555,0.00, 400.00,179.434, 400.00,399.998
		C 800.00,570.566, 620.556,750.00, 400.00,750.00z M 400.00,38.889c-171.545,0.00-311.109,139.567-311.109,311.109c0.00,171.547, 139.566,311.113, 311.109,311.113
		s 311.109-139.566, 311.109-311.113C 711.114,178.456, 571.544,38.889, 400.00,38.889zM 400.00,572.223c-122.534,0.00-222.225-99.689-222.225-222.225c0.00-122.533, 99.689-222.225, 222.225-222.225
		s 222.223,99.692, 222.223,222.225C 622.223,472.534, 522.536,572.223, 400.00,572.223z M 400.00,216.666
		c-73.528,0.00-133.334,59.808-133.334,133.333c0.00,73.528, 59.806,133.336, 133.334,133.336c 73.525,0.00, 133.336-59.808, 133.336-133.336
		C 533.336,276.473, 473.525,216.666, 400.00,216.666zM 350.00,350.00A50.00,50.00 10260.00 1,0 450.00,350A50.00,50.00 10260.00 1,0 350.00,350z" />
<glyph unicode="&#x7b;" d="M 300.00,750.00L0.00,350.00L 300.00,350.00L 100.00-50.00L 800.00,450.00L 400.00,450.00L 700.00,750.00 z" />
<glyph unicode="&#x7c;" d="M 650.00,150.00l 150.00,0.00 c0.00,220.916-179.086,400.00-400.00,400.00S0.00,370.916,0.00,150.00l 50.00,0.00 c0.00,165.686, 134.314,300.00, 300.00,300.00
	c 88.139,0.00, 167.40-38.009, 222.286-98.533l-156.589-125.272c-5.07,1.039-10.319,1.587-15.697,1.587
	c-42.958,0.00-77.781-34.827-77.781-77.783s 34.823-77.78, 77.781-77.78c 42.956,0.00, 77.778,34.823, 77.778,77.78
	c0.00,5.375-0.545,10.628-1.584,15.698l 122.134,152.667C 630.942,270.361, 650.00,212.408, 650.00,150.00z" />
<glyph unicode="&#x7d;" d="M 775.205,69.222L 585.711,230.389c-19.589,17.63-40.539,25.723-57.463,24.942C 572.98,307.728, 600.00,375.705, 600.00,450.00
	C 600.00,615.686, 465.686,750.00, 300.00,750.00C 134.316,750.00,0.00,615.686,0.00,450.00c0.00-165.686, 134.314-300.00, 300.00-300.00c 74.295,0.00, 142.272,27.02, 194.669,71.753
	c-0.781-16.923, 7.313-37.873, 24.942-57.463l 161.167-189.494c 27.595-30.661, 72.673-33.245, 100.172-5.747S 805.866,41.627, 775.205,69.222z
	 M 300.00,250.00c-110.456,0.00-200.00,89.544-200.00,200.00S 189.544,650.00, 300.00,650.00s 200.00-89.544, 200.00-200.00S 410.458,250.00, 300.00,250.00z" />
<glyph unicode="&#x7e;" d="M 775.205,69.222L 585.711,230.389c-19.589,17.63-40.539,25.723-57.463,24.942C 572.98,307.728, 600.00,375.705, 600.00,450.00
		C 600.00,615.686, 465.686,750.00, 300.00,750.00C 134.316,750.00,0.00,615.686,0.00,450.00c0.00-165.686, 134.314-300.00, 300.00-300.00c 74.295,0.00, 142.272,27.02, 194.669,71.753
		c-0.781-16.923, 7.313-37.873, 24.942-57.463l 161.167-189.494c 27.595-30.661, 72.673-33.245, 100.172-5.747S 805.866,41.627, 775.205,69.222
		z M 300.00,250.00c-110.456,0.00-200.00,89.544-200.00,200.00S 189.544,650.00, 300.00,650.00s 200.00-89.544, 200.00-200.00S 410.458,250.00, 300.00,250.00zM 350.00,600.00L 250.00,600.00L 250.00,500.00L 150.00,500.00L 150.00,400.00L 250.00,400.00L 250.00,300.00L 350.00,300.00L 350.00,400.00L 450.00,400.00L 450.00,500.00L 350.00,500.00 	z" />
<glyph unicode="&#xe000;" d="M 400.00,750.00C 179.086,750.00,0.00,570.914,0.00,350.00s 179.086-400.00, 400.00-400.00s 400.00,179.086, 400.00,400.00S 620.914,750.00, 400.00,750.00z M 400.00,50.00
		c-165.686,0.00-300.00,134.314-300.00,300.00c0.00,165.686, 134.314,300.00, 300.00,300.00c 165.686,0.00, 300.00-134.314, 300.00-300.00C 700.00,184.314, 565.686,50.00, 400.00,50.00zM 350.00,550.00A50.00,50.00 8460.00 1,0 450.00,550A50.00,50.00 8460.00 1,0 350.00,550zM 500.00,500.00A50.00,50.00 8460.00 1,0 600.00,500A50.00,50.00 8460.00 1,0 500.00,500zM 200.00,500.00A50.00,50.00 8460.00 1,0 300.00,500A50.00,50.00 8460.00 1,0 200.00,500zM 350.00,200.00L 350.00,150.00L 450.00,150.00L 450.00,200.00L 400.00,450.00 	z" />
<glyph unicode="&#xe001;" d="M 550.00,750.00L 100.00,300.00L 375.00,300.00L 250.00-50.00L 700.00,400.00L 425.00,400.00 z" />
<glyph unicode="&#xe002;" d="M0.00,200.00L 250.00,600.00L 500.00,350.00L 800.00,550.00L 550.00,100.00L 300.00,350.00 z" />
<glyph unicode="&#xe003;" d="M 250.787-50.00C 81.059,45.658, 36.373,136.20, 61.922,259.861c 18.861,91.313, 88.511,165.603, 94.433,256.741
	c 26.381-48.009, 29.513-82.628, 32.461-132.797C 272.722,486.606, 359.736,624.184, 340.922,750.00c0.00,0.00, 209.075-100.00, 223.416-293.966
	c 18.814,39.98, 18.814,103.477,0.00,144.63c 56.441-41.155, 396.264-406.50-35.277-650.664c 81.134,157.977, 20.931,371.136-119.939,469.583
	c 9.408-42.331-2.352-152.862-64.673-222.238c 14.111,71.725-21.166,117.584-21.166,117.584s-11.566-64.93-56.441-130.52
	C 225.864,124.514, 197.47,60.944, 250.787-50.00z" />
<glyph unicode="&#xe004;" d="M 775.205,69.222L 585.711,230.389c-19.589,17.63-40.539,25.723-57.463,24.942C 572.98,307.728, 600.00,375.705, 600.00,450.00
		C 600.00,615.686, 465.686,750.00, 300.00,750.00C 134.316,750.00,0.00,615.686,0.00,450.00c0.00-165.686, 134.314-300.00, 300.00-300.00c 74.295,0.00, 142.272,27.02, 194.669,71.753
		c-0.781-16.923, 7.313-37.873, 24.942-57.463l 161.167-189.494c 27.595-30.661, 72.673-33.245, 100.172-5.747S 805.866,41.627, 775.205,69.222
		z M 300.00,250.00c-110.456,0.00-200.00,89.544-200.00,200.00S 189.544,650.00, 300.00,650.00s 200.00-89.544, 200.00-200.00S 410.458,250.00, 300.00,250.00zM 150.00,500.00L 450.00,500.00L 450.00,400.00L 150.00,400.00z" />
<glyph unicode="&#xe005;" d="M 550.00,750.00c-138.07,0.00-250.00-111.928-250.00-250.00c0.00-15.645, 1.452-30.95, 4.20-45.80L0.00,150.00l0.00-150.00 c0.00-27.614, 22.386-50.00, 50.00-50.00
	l 50.00,0.00 l0.00,50.00 l 100.00,0.00 l0.00,100.00 l 100.00,0.00 l0.00,100.00 l 100.00,0.00 l 64.877,64.877C 491.447,255.255, 520.108,250.00, 550.00,250.00c 138.07,0.00, 250.00,111.928, 250.00,250.00S 688.07,750.00, 550.00,750.00z
	 M 624.902,499.902c-41.422,0.00-75.00,33.578-75.00,75.00s 33.578,75.00, 75.00,75.00s 75.00-33.578, 75.00-75.00S 666.323,499.902, 624.902,499.902z" />
<glyph unicode="&#xe006;" d="M 747.102,121.498L 500.00,533.236L 500.00,700.00 l 25.00,0.00 c 13.75,0.00, 25.00,11.25, 25.00,25.00s-11.25,25.00-25.00,25.00L 275.00,750.00 c-13.75,0.00-25.00-11.25-25.00-25.00s 11.25-25.00, 25.00-25.00l 25.00,0.00 l0.00-166.764 
	L 52.90,121.498C-3.695,27.175, 40.00-50.00, 150.00-50.00l 500.00,0.00 C 760.00-50.00, 803.695,27.175, 747.102,121.498z M 188.311,250.00L 350.00,519.483L 350.00,700.00 l 100.00,0.00 
	l0.00-180.517 L 611.691,250.00L 188.311,250.00 z" />
<glyph unicode="&#xe007;" d="M 600.00,650.00l-100.00,0.00 L 500.00,700.00 c0.00,27.50-22.50,50.00-50.00,50.00l-100.00,0.00 c-27.503,0.00-50.00-22.50-50.00-50.00l0.00-50.00 l-100.00,0.00 l0.00-100.00 l 400.00,0.00 L 600.00,650.00 z M 450.00,650.00l-100.00,0.00 L 350.00,699.911 
		c 0.027,0.03, 0.056,0.061, 0.089,0.089l 99.819,0.00 c 0.033-0.028, 0.064-0.059, 0.092-0.089L 450.00,650.00 L 450.00,650.00zM 675.00,650.00l-50.00,0.00 l0.00-50.00 l 25.00,0.00 l0.00-600.00 L 150.00,0.00 L 150.00,600.00 l 25.00,0.00 L 175.00,650.00 L 125.00,650.00 c-13.752,0.00-25.00-11.25-25.00-25.00l0.00-650.00 c0.00-13.75, 11.248-25.00, 25.00-25.00l 550.00,0.00 c 13.75,0.00, 25.00,11.25, 25.00,25.00L 700.00,625.00 
		C 700.00,638.75, 688.75,650.00, 675.00,650.00z" />
<glyph unicode="&#xe008;" d="M 600.00,650.00l-100.00,0.00 L 500.00,700.00 c0.00,27.50-22.50,50.00-50.00,50.00l-100.00,0.00 c-27.503,0.00-50.00-22.50-50.00-50.00l0.00-50.00 l-100.00,0.00 l0.00-100.00 l 400.00,0.00 L 600.00,650.00 z M 450.00,650.00l-100.00,0.00 L 350.00,699.911 
		c 0.027,0.03, 0.056,0.061, 0.089,0.089l 99.819,0.00 c 0.033-0.028, 0.064-0.059, 0.092-0.089L 450.00,650.00 L 450.00,650.00zM 675.00,650.00l-50.00,0.00 l0.00-50.00 l 25.00,0.00 l0.00-600.00 L 150.00,0.00 L 150.00,600.00 l 25.00,0.00 L 175.00,650.00 L 125.00,650.00 c-13.752,0.00-25.00-11.25-25.00-25.00l0.00-650.00 c0.00-13.75, 11.248-25.00, 25.00-25.00l 550.00,0.00 c 13.75,0.00, 25.00,11.25, 25.00,25.00L 700.00,625.00 
		C 700.00,638.75, 688.75,650.00, 675.00,650.00zM 200.00,450.00L 600.00,450.00L 600.00,400.00L 200.00,400.00zM 200.00,300.00L 600.00,300.00L 600.00,250.00L 200.00,250.00zM 200.00,150.00L 600.00,150.00L 600.00,100.00L 200.00,100.00z" />
<glyph unicode="&#xe009;" d="M 750.00,650.00L 500.00,650.00 L 500.00,725.00 c0.00,13.806-11.192,25.00-25.00,25.00l-150.00,0.00 c-13.806,0.00-25.00-11.194-25.00-25.00l0.00-75.00 L 50.00,650.00 L0.00,550.00l 100.00,0.00 l 50.00-600.00l 500.00,0.00 l 50.00,600.00l 100.00,0.00 L 750.00,650.00z M 350.00,50.00
	l-100.00,0.00 L 250.00,500.00 l 100.00,0.00 L 350.00,50.00 z M 350.00,700.00l 100.00,0.00 l0.00-50.00 l-100.00,0.00 L 350.00,700.00 z M 550.00,50.00l-100.00,0.00 L 450.00,500.00 l 100.00,0.00 L 550.00,50.00 z" />
<glyph unicode="&#xe00a;" d="M 782.916,504.498l-78.989,78.987c-19.369,19.37-51.07,51.069-70.439,70.441l-78.989,78.987
	c-19.369,19.37-53.87,22.786-76.664,7.591L 261.867,596.527c-22.794-15.197-31.42-47.678-19.169-72.18l 55.067-110.136
	c 1.683-3.364, 3.63-6.95, 5.773-10.672L 25.00,125.00L0.00-50.00l 150.00,0.00 l0.00,50.00 l 100.00,0.00 l0.00,100.00 l 100.00,0.00 l0.00,100.00l 100.00,0.00 l0.00,55.614 c 4.997-2.978, 9.792-5.638, 14.213-7.847
	l 110.133-55.069c 24.505-12.252, 56.984-3.623, 72.18,19.17l 143.98,215.969C 805.703,450.628, 802.284,485.127, 782.916,504.498z
	 M 117.678,82.323l-35.355,35.355l 243.416,243.414l 35.355-35.355L 117.678,82.323z M 716.422,418.934l-35.356-35.356
	c-9.723-9.722-25.631-9.722-35.355,0.00L 433.578,595.711c-9.723,9.722-9.723,25.633,0.00,35.355l 35.356,35.356
	c 9.723,9.722, 25.631,9.722, 35.355,0.00L 716.422,454.289C 726.145,444.567, 726.145,428.656, 716.422,418.934z" />
<glyph unicode="&#xe00b;" d="M 475.00,400.00l-25.00,0.00 l0.00,100.00 c0.00,110.456-89.544,200.00-200.00,200.00S 50.00,610.456, 50.00,500.00l0.00-100.00 L 25.00,400.00 c-13.75,0.00-25.00-11.25-25.00-25.00l0.00-350.00 c0.00-13.75, 11.25-25.00, 25.00-25.00l 450.00,0.00 
	c 13.75,0.00, 25.00,11.25, 25.00,25.00L 500.00,375.00 C 500.00,388.75, 488.75,400.00, 475.00,400.00z M 291.352,212.436L 300.00,100.00l-100.00,0.00 l 8.648,112.436
	C 188.377,225.861, 175.00,248.863, 175.00,275.00c0.00,41.422, 33.578,75.00, 75.00,75.00s 75.00-33.578, 75.00-75.00C 325.00,248.863, 311.623,225.861, 291.352,212.436z M 100.00,400.00
	l0.00,100.00 c0.00,82.844, 67.156,150.00, 150.00,150.00s 150.00-67.156, 150.00-150.00l0.00-100.00 L 100.00,400.00 z" />
<glyph unicode="&#xe00c;" d="M 600.00,700.00c-110.456,0.00-200.00-89.544-200.00-200.00l0.00-100.00 L 25.00,400.00 c-13.75,0.00-25.00-11.25-25.00-25.00l0.00-350.00 c0.00-13.75, 11.25-25.00, 25.00-25.00l 450.00,0.00 c 13.75,0.00, 25.00,11.25, 25.00,25.00L 500.00,375.00 
	c0.00,13.75-11.25,25.00-25.00,25.00l-25.00,0.00 l0.00,100.00 c0.00,82.844, 67.156,150.00, 150.00,150.00s 150.00-67.156, 150.00-150.00l0.00-100.00 l 50.00,0.00 l0.00,100.00 C 800.00,610.456, 710.458,700.00, 600.00,700.00z M 291.352,212.436
	L 300.00,100.00l-100.00,0.00 l 8.648,112.436C 188.377,225.861, 175.00,248.863, 175.00,275.00c0.00,41.422, 33.578,75.00, 75.00,75.00s 75.00-33.578, 75.00-75.00
	C 325.00,248.863, 311.623,225.861, 291.352,212.436z" />
<glyph unicode="&#xe00d;" d="M 225.00,500.00L 125.00,500.00 c-13.75,0.00-25.00-11.25-25.00-25.00l0.00-50.00 c0.00-13.75, 11.25-25.00, 25.00-25.00l 100.00,0.00 c 13.75,0.00, 25.00,11.25, 25.00,25.00l0.00,50.00 C 250.00,488.75, 238.75,500.00, 225.00,500.00zM 150.00,650.00L 200.00,650.00L 200.00,525.00L 150.00,525.00zM 150.00,375.00L 200.00,375.00L 200.00,50.00L 150.00,50.00zM 425.00,300.00l-100.00,0.00 c-13.75,0.00-25.00-11.25-25.00-25.00l0.00-50.00 c0.00-13.75, 11.25-25.00, 25.00-25.00l 100.00,0.00 c 13.752,0.00, 25.00,11.25, 25.00,25.00l0.00,50.00 C 450.00,288.75, 438.752,300.00, 425.00,300.00zM 350.002,650.00L 400.002,650.00L 400.002,325.00L 350.002,325.00zM 350.002,175.00L 400.002,175.00L 400.002,50.00L 350.002,50.00zM 625.00,450.00l-100.00,0.00 c-13.748,0.00-25.00-11.25-25.00-25.00l0.00-50.00 c0.00-13.75, 11.252-25.00, 25.00-25.00l 100.00,0.00 c 13.752,0.00, 25.00,11.25, 25.00,25.00l0.00,50.00 C 650.00,438.75, 638.752,450.00, 625.00,450.00zM 550.00,650.00L 600.00,650.00L 600.00,475.00L 550.00,475.00zM 550.00,325.00L 600.00,325.00L 600.00,50.00L 550.00,50.00zM 687.50,750.00L 62.50,750.00 C 28.037,750.00,0.00,721.963,0.00,687.50l0.00-675.00 c0.00-34.462, 28.037-62.50, 62.50-62.50l 625.00,0.00 c 34.462,0.00, 62.50,28.037, 62.50,62.50L 750.00,687.50 
		C 750.00,721.963, 721.962,750.00, 687.50,750.00z M 700.00,12.50c0.00-6.875-5.625-12.50-12.50-12.50L 62.50,0.00 c-6.875,0.00-12.50,5.625-12.50,12.50L 50.00,687.50 c0.00,6.875, 5.625,12.50, 12.50,12.50l 625.00,0.00 c 6.875,0.00, 12.50-5.625, 12.50-12.50L 700.00,12.50 z" />
<glyph unicode="&#xe00e;" d="M 729.523,273.242c-41.973,72.698-16.731,165.863, 56.369,208.194l-78.614,136.166c-22.461-13.167-48.575-20.717-76.442-20.717
	c-84.013,0.00-152.116,68.552-152.116,153.117L 321.488,750.002 c 0.208-26.102-6.308-52.564-20.28-76.759
	c-41.972-72.70-135.278-97.423-208.486-55.28L 14.109,481.797c 22.633-12.869, 42.227-31.709, 56.161-55.842
	c 41.905-72.584, 16.806-165.563-56.022-207.987l 78.614-136.166c 22.383,13.044, 48.372,20.511, 76.094,20.511
	c 83.747,0.00, 151.675-68.119, 152.109-152.311l 157.23,0.00 c-0.067,25.839, 6.463,52.008, 20.286,75.952
	c 41.903,72.583, 134.981,97.339, 208.136,55.478l 78.614,136.164C 762.847,230.459, 743.384,249.234, 729.523,273.242z M 400.00,188.022
	c-89.459,0.00-161.981,72.519-161.981,161.98c0.00,89.459, 72.52,161.98, 161.981,161.98c 89.459,0.00, 161.978-72.52, 161.978-161.98
	C 561.977,260.541, 489.459,188.022, 400.00,188.022z" />
<glyph unicode="&#xe00f;" d="M 793.566,643.567L 700.00,550.00l-100.00,100.00l 93.566,93.567C 679.777,747.745, 665.153,750.00, 650.00,750.00c-82.845,0.00-150.00-67.156-150.00-150.00
	c0.00-15.152, 2.253-29.777, 6.431-43.566L 193.566,243.567C 179.777,247.745, 165.153,250.00, 150.00,250.00c-82.845,0.00-150.00-67.156-150.00-150.00
	c0.00-15.152, 2.253-29.778, 6.433-43.566L 100.00,150.00l 100.00-100.00l-93.567-93.566C 120.223-47.744, 134.847-50.00, 150.00-50.00c 82.844,0.00, 150.00,67.158, 150.00,150.00
	c0.00,15.153-2.256,29.78-6.434,43.567l 312.866,312.867C 620.223,452.256, 634.847,450.00, 650.00,450.00c 82.844,0.00, 150.00,67.158, 150.00,150.00
	C 800.00,615.153, 797.744,629.778, 793.566,643.567z" />
<glyph unicode="&#xe010;" d="M 150.00-50.00L 650.00-50.00L 700.00,500.00L 100.00,500.00 	zM 500.00,650.00L 500.00,750.00 L 300.00,750.00 l0.00-100.00 L 50.00,650.00 l0.00-150.00 l 50.00,50.00l 600.00,0.00 l 50.00-50.00L 750.00,650.00 L 500.00,650.00 z M 450.00,650.00l-100.00,0.00 L 350.00,700.00 l 100.00,0.00 L 450.00,650.00 z" />
<glyph unicode="&#xe011;" d="M 225.00,75.00c 13.808,0.00, 25.00,11.192, 25.00,25.00c0.00,0.005,0.00,0.011,0.00,0.016L 250.00,449.986 c0.00,0.005,0.00,0.009,0.00,0.016c0.00,13.806-11.194,25.00-25.00,25.00
		c-13.806,0.00-25.00-11.194-25.00-25.00l0.00,0.00 l0.00-350.00 C 200.00,86.192, 211.194,75.00, 225.00,75.00zM 375.00,75.00c 13.808,0.00, 25.00,11.192, 25.00,25.00c0.00,0.005,0.00,0.011,0.00,0.016L 400.00,449.986 c0.00,0.005,0.00,0.009,0.00,0.016c0.00,13.806-11.194,25.00-25.00,25.00
		c-13.806,0.00-25.00-11.194-25.00-25.00l0.00,0.00 l0.00-350.00 C 350.00,86.192, 361.194,75.00, 375.00,75.00zM 525.00,75.00c 13.808,0.00, 25.00,11.192, 25.00,25.00c0.00,0.005,0.00,0.011,0.00,0.016L 550.00,449.986 c0.00,0.005,0.00,0.009,0.00,0.016c0.00,13.806-11.192,25.00-25.00,25.00
		c-13.806,0.00-25.00-11.194-25.00-25.00l0.00,0.00 l0.00-350.00 C 500.00,86.192, 511.194,75.00, 525.00,75.00zM 549.98,649.156C 549.984,649.437, 550.00,649.717, 550.00,650.00L 550.00,700.00 c0.00,27.50-22.50,50.00-50.00,50.00L 250.00,750.00 c-27.50,0.00-50.00-22.50-50.00-50.00l0.00-50.00 
		c0.00-0.283, 0.017-0.563, 0.022-0.844L0.00,649.156 L0.00,600.00 l 50.00,0.00 l0.00-550.00 c0.00-55.00, 45.00-100.00, 100.00-100.00l 450.00,0.00 c 55.00,0.00, 100.00,45.00, 100.00,100.00L 700.00,600.00 l 50.00,0.00 L 750.00,649.156 L 549.98,649.156 z M 250.00,699.911
		c 0.027,0.031, 0.059,0.064, 0.089,0.089l 249.82,0.00 c 0.031-0.027, 0.064-0.059, 0.091-0.091l0.00-49.82 c-0.027-0.031-0.059-0.064-0.091-0.089
		L 250.089,650.00 c-0.031,0.027-0.064,0.059-0.089,0.089L 250.00,699.911 z M 650.00,50.00c0.00-13.245-5.231-25.77-14.731-35.269
		C 625.77,5.231, 613.245,0.00, 600.00,0.00L 150.00,0.00 c-13.245,0.00-25.77,5.231-35.27,14.731C 105.231,24.23, 100.00,36.755, 100.00,50.00L 100.00,600.00 l 550.00,0.00 L 650.00,50.00 z" />
<glyph unicode="&#xe012;" d="M 725.00,500.00L 550.00,500.00 L 550.00,600.00 c0.00,27.50-22.50,50.00-50.00,50.00L 300.00,650.00 c-27.503,0.00-50.00-22.50-50.00-50.00l0.00-100.00 L 75.00,500.00 c-41.25,0.00-75.00-33.75-75.00-75.00l0.00-350.00 c0.00-41.25, 33.75-75.00, 75.00-75.00
	l 650.00,0.00 c 41.247,0.00, 75.00,33.75, 75.00,75.00L 800.00,425.00 C 800.00,466.25, 766.252,500.00, 725.00,500.00z M 300.00,599.911c 0.025,0.031, 0.058,0.064, 0.091,0.089l 199.823,0.00 
	c 0.033-0.028, 0.063-0.059, 0.091-0.089L 500.005,500.00 L 300.00,500.00 L 300.00,599.911 z" />
<glyph unicode="&#xe013;" d="M 750.00,550.00L 550.00,550.00 L 550.00,600.00 c0.00,27.50-22.50,50.00-50.00,50.00L 300.00,650.00 c-27.503,0.00-50.00-22.50-50.00-50.00l0.00-50.00 L 50.00,550.00 C 22.50,550.00,0.00,527.50,0.00,500.00l0.00-400.00 
	c0.00-27.502, 22.497-50.00, 50.00-50.00l 700.00,0.00 c 27.50,0.00, 50.00,22.498, 50.00,50.00L 800.00,500.00 C 800.00,527.50, 777.50,550.00, 750.00,550.00z M 300.00,599.909
	c 0.027,0.031, 0.058,0.064, 0.089,0.091l 199.822,0.00 c 0.033-0.027, 0.064-0.059, 0.092-0.091L 500.003,550.00 L 300.00,550.00 L 300.00,599.909 z M 750.00,350.00l-100.00,0.00 l0.00-75.00 
	c0.00-13.752-11.25-25.00-25.00-25.00l-50.00,0.00 c-13.753,0.00-25.00,11.248-25.00,25.00l0.00,75.00 L 250.00,350.00 l0.00-75.00 c0.00-13.752-11.25-25.00-25.00-25.00l-50.00,0.00 c-13.752,0.00-25.00,11.248-25.00,25.00l0.00,75.00 L 50.00,350.00 l0.00,50.00 l 700.00,0.00 
	L 750.00,350.00 z" />
<glyph unicode="&#xe014;" d="M 681.725,500.00L 550.00,700.00L 250.00,700.00 L 118.273,500.00L0.00,500.00 l0.00-350.00 l 100.00,0.00 l0.00-125.00 c0.00-13.75, 11.248-25.00, 25.00-25.00l 100.00,0.00 c 13.75,0.00, 25.00,11.25, 25.00,25.00l0.00,125.00 l 300.00,0.00 l0.00-125.00 
	c0.00-13.75, 11.247-25.00, 25.00-25.00l 100.00,0.00 c 13.75,0.00, 25.00,11.25, 25.00,25.00l0.00,125.00 l 100.00,0.00 L 800.00,500.00 L 681.725,500.00 z M 276.938,650.00l 246.123,0.00 l 98.794-150.00L 178.144,500.00 L 276.938,650.00z M 200.00,229.289
	c-39.053,0.00-70.713,31.658-70.713,70.711s 31.661,70.709, 70.713,70.709c 39.05,0.00, 70.709-31.658, 70.709-70.709
	C 270.711,260.947, 239.052,229.289, 200.00,229.289z M 600.00,229.289c-39.052,0.00-70.714,31.658-70.714,70.711s 31.661,70.709, 70.714,70.709
	c 39.048,0.00, 70.711-31.658, 70.711-70.709C 670.711,260.947, 639.048,229.289, 600.00,229.289z" />
<glyph unicode="&#xe015;" d="M 696.097,468.703C 693.564,569.248, 611.364,650.00, 510.267,650.00c-59.212,0.00-111.927-27.73-145.98-70.884
	c-19.095,24.686-48.977,40.594-82.584,40.594c-57.664,0.00-104.408-46.777-104.408-104.47c0.00-5.028, 0.375-9.969, 1.066-14.808
	c-8.767,1.581-17.786,2.452-27.008,2.452C 67.761,502.884,0.00,435.081,0.00,351.444C0.00,267.802, 67.761,200.00, 151.352,200.00l 77.938,0.00 L 400.00,29.289
	L 570.711,200.00l 93.345,0.00 l0.00,0.009 C 739.164,200.153, 800.00,261.113, 800.00,336.295C 800.00,400.428, 755.72,454.186, 696.097,468.703z M 400.00,100.00l-150.00,150.00
	l 100.00,0.00 l0.00,150.00 l 100.00,0.00 l0.00-150.00 l 100.00,0.00 L 400.00,100.00z" />
<glyph unicode="&#xe016;" d="M 800.00,236.295c0.00,64.133-44.28,117.891-103.903,132.406C 693.564,469.248, 611.364,550.00, 510.267,550.00
	c-59.212,0.00-111.927-27.73-145.98-70.884c-19.095,24.686-48.977,40.594-82.584,40.594c-57.664,0.00-104.408-46.777-104.408-104.47
	c0.00-5.028, 0.375-9.969, 1.066-14.808c-8.767,1.581-17.786,2.452-27.008,2.452C 67.761,402.884,0.00,335.081,0.00,251.444
	C0.00,167.802, 67.761,100.00, 151.352,100.00l 512.705,0.00 l0.00,0.009 C 739.164,100.153, 800.00,161.113, 800.00,236.295z" />
<glyph unicode="&#xe017;" d="M 750.00,200.00l-80.845,0.00 L 482.103,511.753C 493.025,520.944, 500.00,534.695, 500.00,550.00L 500.00,650.00 c0.00,27.50-22.50,50.00-50.00,50.00l-100.00,0.00 c-27.50,0.00-50.00-22.50-50.00-50.00
	l0.00-100.00 c0.00-15.305, 6.975-29.056, 17.898-38.247L 130.845,200.00L 50.00,200.00 c-27.50,0.00-50.00-22.50-50.00-50.00l0.00-100.00 c0.00-27.50, 22.50-50.00, 50.00-50.00l 100.00,0.00 c 27.50,0.00, 50.00,22.50, 50.00,50.00l0.00,100.00 
	c0.00,15.305-6.975,29.056-17.898,38.247L 369.156,500.00l 61.691,0.00 l 187.053-311.753C 606.977,179.056, 600.00,165.305, 600.00,150.00l0.00-100.00 
	c0.00-27.50, 22.50-50.00, 50.00-50.00l 100.00,0.00 c 27.50,0.00, 50.00,22.50, 50.00,50.00l0.00,100.00 C 800.00,177.50, 777.50,200.00, 750.00,200.00z" />
<glyph unicode="&#xe018;" d="M0.00,750.00L 350.00,750.00L 350.00,400.00L0.00,400.00zM 450.00,750.00L 800.00,750.00L 800.00,400.00L 450.00,400.00zM0.00,300.00L 350.00,300.00L 350.00-50.00L0.00-50.00zM 450.00,300.00L 800.00,300.00L 800.00-50.00L 450.00-50.00z" />
<glyph unicode="&#xe019;" d="M0.00,700.00L 500.00,700.00L 500.00,600.00L0.00,600.00zM0.00,500.00L 450.00,500.00L 450.00,400.00L0.00,400.00zM0.00,300.00L 350.00,300.00L 350.00,200.00L0.00,200.00zM0.00,100.00L 250.00,100.00L 250.00,0.00L0.00,0.00zM 650.00,750.00l-100.00,0.00 l0.00-557.123 c-15.641,4.608-32.466,7.123-50.00,7.123c-82.844,0.00-150.00-55.964-150.00-125.00s 67.156-125.00, 150.00-125.00s 150.00,55.964, 150.00,125.00L 650.00,600.00 l 150.00-50.00
		L 800.00,650.00 L 650.00,750.00z" />
<glyph unicode="&#xe01a;" d="M 700.00,200.00L 700.00,100.00L 100.00,100.00L 100.00,200.00L0.00,200.00L0.00,0.00L 800.00,0.00L 800.00,200.00 	zM 600.00,450.00L 450.00,450.00L 450.00,700.00L 350.00,700.00L 350.00,450.00L 200.00,450.00L 400.00,150.00 	z" />
<glyph unicode="&#xe01b;" d="M 400.00,750.00C 179.086,750.00,0.00,570.914,0.00,350.00s 179.081-400.00, 400.00-400.00c 220.914,0.00, 400.00,179.086, 400.00,400.00S 620.914,750.00, 400.00,750.00z M 550.00,550.00
	c 27.614,0.00, 50.00-22.386, 50.00-50.00c0.00-27.614-22.386-50.00-50.00-50.00s-50.00,22.386-50.00,50.00C 500.00,527.614, 522.386,550.00, 550.00,550.00z M 250.00,550.00
	c 27.614,0.00, 50.00-22.386, 50.00-50.00c0.00-27.614-22.386-50.00-50.00-50.00s-50.00,22.386-50.00,50.00C 200.00,527.614, 222.386,550.00, 250.00,550.00z M 400.00,100.00
	c-91.023,0.00-170.675,48.652-214.394,121.362l 42.877,25.73C 263.456,188.92, 327.181,150.00, 400.00,150.00
	c 72.819,0.00, 136.541,38.92, 171.517,97.092l 42.877-25.73C 570.672,148.652, 491.023,100.00, 400.00,100.00z" />
<glyph unicode="&#xe01c;" d="M 400.00-50.00L 800.00,350.00L 550.00,350.00L 550.00,749.998L 250.00,750.00L 250.00,350.00L0.00,350.00 z" />
<glyph unicode="&#xe01d;" d="M 450.00-50.00l 350.00,400.00L 450.00,750.00l0.00-290.977 L0.00,550.00l0.00-400.00 l 450.00,90.98L 450.00-50.00 z M 50.00,209.022L 50.00,490.978 L 500.00,400.00L 500.00,616.927 L 733.561,350.00L 500.00,83.072L 500.00,300.00 
	L 50.00,209.022z" />
<glyph unicode="&#xe01e;" d="M 400.00,750.00C 179.086,750.00,0.00,570.914,0.00,350.00s 179.086-400.00, 400.00-400.00s 400.00,179.086, 400.00,400.00S 620.914,750.00, 400.00,750.00z M 400.00,50.00
		c-165.686,0.00-300.00,134.314-300.00,300.00c0.00,165.686, 134.314,300.00, 300.00,300.00c 165.686,0.00, 300.00-134.314, 300.00-300.00C 700.00,184.314, 565.686,50.00, 400.00,50.00zM 250.00,350.00A150.00,150.00 10260.00 1,0 550.00,350A150.00,150.00 10260.00 1,0 250.00,350z" />
<glyph unicode="&#xe01f;" d="M 616.823,700.00c0.00,0.00-156.997,0.00-209.328,0.00c-93.845,0.00-182.164-71.098-182.164-153.455c0.00-84.161, 63.97-152.083, 159.444-152.083
	c 6.639,0.00, 13.091,0.133, 19.406,0.588c-6.194-11.864-10.625-25.225-10.625-39.095c0.00-23.389, 12.581-42.352, 28.491-57.831
	c-12.02,0.00-23.627-0.35-36.291-0.35c-116.236,0.002-205.703-74.031-205.703-150.798c0.00-75.608, 98.08-122.90, 214.323-122.90
	c 132.519,0.00, 205.708,75.191, 205.708,150.803c0.00,60.627-17.887,96.931-73.192,136.042c-18.919,13.392-55.103,45.966-55.103,65.112
	c0.00,22.438, 6.403,33.491, 40.178,59.88c 34.619,27.05, 59.12,65.08, 59.12,109.309c0.00,52.661-23.455,103.983-67.48,120.916l 66.372,0.00 
	L 616.823,700.00z M 543.709,187.923c 1.661-7.009, 2.566-14.225, 2.566-21.584c0.00-61.094-39.367-108.836-152.323-108.836
	c-80.345,0.00-138.372,50.862-138.372,111.953c0.00,59.877, 71.973,109.722, 152.316,108.853c 18.75-0.198, 36.225-3.216, 52.084-8.352
	C 503.595,239.623, 534.883,222.489, 543.709,187.923z M 415.067,415.80c-53.936,1.613-105.184,60.333-114.494,131.141
	c-9.309,70.833, 26.852,125.033, 80.772,123.43C 435.258,668.75, 486.53,611.922, 495.844,541.106
	C 505.145,470.278, 468.977,414.186, 415.067,415.80z" />
<glyph unicode="&#xe020;" d="M0.00,350.00A175.00,175.00 10260.00 1,0 350.00,350A175.00,175.00 10260.00 1,0 0.00,350zM 450.00,350.00A175.00,175.00 10260.00 1,0 800.00,350A175.00,175.00 10260.00 1,0 450.00,350z" />
<glyph unicode="&#xe021;" d="M 666.698,750.00L 133.35,750.00 C 60.009,750.00,0.00,689.991,0.00,616.655l0.00-533.302 C0.00,9.961, 60.009-50.00, 133.35-50.00l 533.347,0.00 
	C 740.034-50.00, 800.00,9.964, 800.00,83.356L 800.00,616.655 C 800.00,689.991, 740.034,750.00, 666.698,750.00z M 250.00,225.00c-69.036,0.00-125.00,55.963-125.00,125.00
	c0.00,69.036, 55.964,125.00, 125.00,125.00s 125.00-55.964, 125.00-125.00C 375.00,280.962, 319.036,225.00, 250.00,225.00z M 550.00,225.00c-69.034,0.00-125.00,55.963-125.00,125.00
	c0.00,69.036, 55.966,125.00, 125.00,125.00c 69.037,0.00, 125.00-55.964, 125.00-125.00C 675.00,280.962, 619.038,225.00, 550.00,225.00z" />
<glyph unicode="&#xe022;" d="M 436.77,700.00c0.00,0.00-156.997,0.00-209.328,0.00C 133.598,700.00, 45.278,628.902, 45.278,546.545c0.00-84.161, 63.97-152.083, 159.444-152.083
		c 6.639,0.00, 13.091,0.133, 19.408,0.588c-6.195-11.864-10.627-25.225-10.627-39.095c0.00-23.389, 12.581-42.352, 28.491-57.831
		c-12.02,0.00-23.627-0.35-36.291-0.35C 89.467,297.775,0.00,223.744,0.00,146.977c0.00-75.608, 98.08-122.902, 214.323-122.902
		c 132.519,0.00, 205.708,75.191, 205.708,150.803c0.00,60.625-17.887,96.931-73.192,136.042c-18.919,13.394-55.102,45.966-55.102,65.112
		c0.00,22.438, 6.403,33.491, 40.178,59.88c 34.619,27.05, 59.119,65.08, 59.119,109.309c0.00,52.661-23.453,103.983-67.478,120.916l 66.37,0.00 
		L 436.77,700.00z M 363.656,187.923c 1.661-7.009, 2.566-14.223, 2.566-21.584c0.00-61.094-39.369-108.836-152.323-108.836
		c-80.345,0.00-138.372,50.862-138.372,111.953c0.00,59.877, 71.973,109.722, 152.316,108.853c 18.75-0.198, 36.225-3.216, 52.086-8.352
		C 323.542,239.625, 354.831,222.487, 363.656,187.923z M 235.014,415.80c-53.936,1.613-105.184,60.333-114.494,131.141
		c-9.309,70.833, 26.852,125.033, 80.772,123.43c 53.914-1.62, 105.186-58.448, 114.498-129.264
		C 325.092,470.278, 288.923,414.186, 235.014,415.80zM 650.00,550.00L 650.00,700.00L 600.00,700.00L 600.00,550.00L 450.00,550.00L 450.00,500.00L 600.00,500.00L 600.00,350.00L 650.00,350.00L 650.00,500.00L 800.00,500.00L 800.00,550.00 	z" />
<glyph unicode="&#xe023;" d="M 400.00,750.00C 179.086,750.00,0.00,570.914,0.00,350.00s 179.086-400.00, 400.00-400.00s 400.00,179.086, 400.00,400.00S 620.914,750.00, 400.00,750.00z M 400.00,50.00
	c-165.686,0.00-300.00,134.314-300.00,300.00c0.00,165.686, 134.314,300.00, 300.00,300.00c 165.686,0.00, 300.00-134.314, 300.00-300.00C 700.00,184.314, 565.686,50.00, 400.00,50.00z" />
<glyph unicode="&#xe024;" d="M0.00,300.00l 400.00-350.00l 400.00,350.00L 509.025,300.00 L 600.00,750.00L 200.00,750.00 l 90.98-450.00L0.00,300.00 z M 259.023,700.00l 281.955,0.00 L 450.00,250.00l 216.927,0.00 L 400.00,16.439L 133.072,250.00L 350.00,250.00 
	L 259.023,700.00z" />
<glyph unicode="&#xe025;" d="M 600.00-50.00L 400.00,150.00L 800.00,550.00L 600.00,750.00L 200.00,349.998L0.00,549.998L0.00-50.00 z" />
<glyph unicode="&#xe026;" d="M 400.00,750.00C 179.086,750.00,0.00,570.914,0.00,350.00s 179.083-400.00, 400.00-400.00c 220.914,0.00, 400.00,179.086, 400.00,400.00S 620.914,750.00, 400.00,750.00z M 500.00,150.00L 300.00,150.00 l0.00,50.00 
	l 200.00,0.00 L 500.00,150.00 z M 550.00,550.00c 27.614,0.00, 50.00-22.386, 50.00-50.00c0.00-27.614-22.386-50.00-50.00-50.00s-50.00,22.386-50.00,50.00C 500.00,527.614, 522.386,550.00, 550.00,550.00z M 250.00,550.00
	c 27.614,0.00, 50.00-22.386, 50.00-50.00c0.00-27.614-22.386-50.00-50.00-50.00s-50.00,22.386-50.00,50.00C 200.00,527.614, 222.386,550.00, 250.00,550.00z" />
<glyph unicode="&#xe027;" d="M 697.084,448.055C 698.994,456.734, 700.00,465.748, 700.00,475.00c0.00,69.036-55.964,125.00-125.00,125.00c-11.111,0.00-21.886-1.459-32.134-4.181
	C 523.492,656.25, 466.858,700.00, 400.00,700.00c-68.241,0.00-125.823-45.575-144.005-107.945C 238.228,597.228, 219.439,600.00, 200.00,600.00C 89.544,600.00,0.00,510.456,0.00,400.00
	c0.00-110.459, 89.544-200.00, 200.00-200.00l 100.00,0.00 l0.00-150.00 l 200.00,0.00 l0.00,150.00 l 175.00,0.00 c 69.036,0.00, 125.00,55.963, 125.00,125.00C 800.00,386.50, 755.583,437.627, 697.084,448.055z M 450.00,250.00l0.00-150.00 
	l-100.00,0.00 l0.00,150.00 l-125.00,0.00 l 175.00,175.00l 175.00-175.00L 450.00,250.00 z" />
<glyph unicode="&#xe028;" d="M 700.00,200.00L 700.00,100.00L 100.00,100.00L 100.00,200.00L0.00,200.00L0.00,0.00L 800.00,0.00L 800.00,200.00 	zM 200.00,400.00L 350.00,400.00L 350.00,150.00L 450.00,150.00L 450.00,400.00L 600.00,400.00L 400.00,700.00 	z" />
<glyph unicode="&#xe029;" d="M 400.00,750.00C 179.086,750.00,0.00,570.914,0.00,350.00s 179.086-400.00, 400.00-400.00s 400.00,179.086, 400.00,400.00S 620.914,750.00, 400.00,750.00z M 450.00,300.00l0.00-250.00 l-100.00,0.00 L 350.00,300.00 L 100.00,300.00 l0.00,100.00 
	l 250.00,0.00 L 350.00,650.00 l 100.00,0.00 l0.00-250.00 l 250.00,0.00 l0.00-100.00 L 450.00,300.00 z" />
<glyph unicode="&#xe02a;" d="M0.00,350.00L 400.00-50.00L 400.00,200.00L 799.998,200.00L 800.00,500.00L 400.00,500.00L 400.00,750.00 z" />
<glyph unicode="&#xe02b;" d="M 350.00,750.00L0.00,350.00l 350.00-400.00L 350.00,240.978 l 450.00-90.977L 800.00,550.00 l-450.00-90.98L 350.00,750.00 z M 750.00,490.978l0.00-281.953 l-450.00,90.978l0.00-216.927 L 66.441,350.00
	L 300.00,616.928L 300.00,400.00 L 750.00,490.978z" />
<glyph unicode="&#xe02c;" d="M 624.684,737.338C 553.961,737.338, 508.575,750.00, 435.741,750.00C 200.363,750.00, 90.591,615.95, 90.591,479.787
	c0.00-80.217, 38.00-106.608, 112.941-106.608c-5.28,11.613-14.777,24.281-14.777,81.277c0.00,159.383, 60.161,205.827, 137.216,208.992
	c0.00,0.00-63.217-619.823-246.702-694.173L 79.269-50.00 l 131.811,0.00 l 115.528,0.00 l 84.395,400.00l 154.566,0.00 L 600.00,450.00L 432.103,450.00 l 40.581,192.336
	c 46.442-9.497, 91.83-18.997, 130.884-18.997c 48.553,0.00, 92.886,14.777, 117.162,126.661C 691.18,740.50, 659.511,737.338, 624.684,737.338z" />
<glyph unicode="&#xe02d;" d="M 666.806,750.00L 132.22,750.00 C 58.705,750.00,0.00,689.23,0.00,615.72l0.00-531.525 C0.00,8.866, 58.705-50.00, 132.22-50.00l 534.584,0.00 
	C 740.317-50.00, 800.00,8.866, 800.00,84.195L 800.00,615.72 C 800.00,689.23, 740.317,750.00, 666.806,750.00z M 550.00,725.00l0.00-125.00 l-125.00,0.00 L 425.00,725.00 L 550.00,725.00 z M 375.00,725.00l0.00-125.00 l-125.00,0.00 L 250.00,725.00 L 375.00,725.00 z
	 M 25.00,600.00L 25.00,615.72 C 25.00,675.977, 73.098,725.00, 132.22,725.00L 200.00,725.00 l0.00-125.00 L 25.00,600.00 z M 600.00,250.00l-150.00,0.00 l0.00-150.00 l-100.00,0.00 l0.00,150.00 l-150.00,0.00 l0.00,100.00 l 150.00,0.00 l0.00,150.00 l 100.00,0.00 l0.00-150.00 l 150.00,0.00 L 600.00,250.00 z M 775.00,600.00L 600.00,600.00 L 600.00,725.00 
	l 66.806,0.00 C 726.466,725.00, 775.00,675.977, 775.00,615.72L 775.00,600.00 z" />
<glyph unicode="&#xe02e;" d="M 400.00,750.00C 179.086,750.00,0.00,570.914,0.00,350.00s 179.086-400.00, 400.00-400.00s 400.00,179.086, 400.00,400.00S 620.914,750.00, 400.00,750.00z M 231.25,218.75
	c-72.488,0.00-131.25,58.762-131.25,131.25c0.00,72.488, 58.762,131.25, 131.25,131.25c 72.489,0.00, 131.25-58.762, 131.25-131.25C 362.50,277.512, 303.739,218.75, 231.25,218.75z M 568.75,218.75
	c-72.489,0.00-131.25,58.762-131.25,131.25c0.00,72.488, 58.761,131.25, 131.25,131.25s 131.25-58.762, 131.25-131.25C 700.00,277.512, 641.239,218.75, 568.75,218.75z" />
<glyph unicode="&#xe02f;" d="M 564.859,714.133C 512.586,737.775, 457.261,750.00, 399.939,750.00c-47.689,0.00-94.573-9.164-139.658-26.217l 304.578-276.313L 564.859,714.133 zM 194.097,8.381L 194.097,352.252 L 28.856,202.03C 60.88,121.772, 119.389,53.57, 194.097,8.381zM 217.675,705.609C 83.378,636.612, 0.002,500.864, 0.002,350.00c0.00-34.42, 5.177-69.325, 14.522-103.905l 354.547,322.158L 217.675,705.609zM 236.108-14.617C 288.103-38.102, 343.144-50.00, 399.939-50.00c 152.537,0.00, 292.625,88.777, 359.211,226.136L 236.108,176.136 L 236.108-14.617 zM 606.998,691.133l0.00-472.859 l 170.162,0.00 c 14.953,42.62, 22.839,86.853, 22.839,131.725C 800.003,488.964, 726.017,618.756, 606.998,691.133z" />
<glyph unicode="&#xe030;" d="M 0.63,70.575c-0.191,1.978-0.353,3.961-0.456,5.961C 0.275,74.536, 0.439,72.553, 0.63,70.575zM 184.303,308.478c 71.883-2.139, 120.105,72.42, 107.705,166.561c-12.417,94.125-80.778,169.662-152.662,171.814
		c-71.895,2.133-120.109-69.908-107.697-164.063C 44.056,388.675, 112.392,310.623, 184.303,308.478zM 800.00,550.00L 800.00,616.648 C 800.00,689.992, 740.014,750.00, 666.673,750.00L 133.348,750.00 C 61.258,750.00, 2.089,692.006, 0.095,620.37
		c 45.595,40.145, 108.847,73.684, 174.12,73.684c 69.769,0.00, 279.097,0.00, 279.097,0.00l-62.459-52.827l-88.491,0.00 
		c 58.695-22.503, 89.966-90.722, 89.966-160.72c0.00-58.788-32.664-109.339-78.819-145.287c-45.034-35.08-53.572-49.772-53.572-79.592
		c0.00-25.452, 48.239-68.75, 73.462-86.553c 73.736-51.983, 97.591-100.244, 97.591-180.825c0.00-12.834-1.595-25.648-4.739-38.25l 240.423,0.00 
		C 740.014-50.00, 800.00,9.961, 800.00,83.352L 800.00,499.998 l-150.00,0.00 L 650.00,350.00 l-50.00,0.00 l0.00,150.00 l-149.998,0.00 l0.00,50.00 L 600.00,550.00 L 600.00,700.00 l 50.00,0.00 l0.00-150.00 L 800.00,550.00 zM 145.223,151.612c 16.886,0.00, 32.361,0.461, 48.388,0.461c-21.208,20.573-37.989,45.781-37.989,76.859
		c0.00,18.444, 5.909,36.20, 14.167,51.969c-8.423-0.602-17.023-0.777-25.88-0.777c-58.091,0.00-107.427,18.809-143.909,49.886l0.00-52.533 
		l 0.005-157.602C 41.755,139.70, 91.323,151.612, 145.223,151.612zM 2.672,56.83c-0.869,4.264-1.536,8.598-1.986,12.995C 1.134,65.428, 1.803,61.094, 2.672,56.83zM 355.82,5.589c-11.764,45.942-53.48,68.722-111.631,109.038c-21.15,6.822-44.448,10.839-69.448,11.10
		c-70.014,0.753-135.241-27.298-172.044-69.041C 15.134-4.022, 69.13-50.00, 133.348-50.00l 223.784,0.00 c 1.419,8.694, 2.106,17.681, 2.106,26.90
		C 359.239-13.308, 358.041-3.731, 355.82,5.589z" />
<glyph unicode="&#xe031;" d="M0.00,600.00L 800.00,600.00L 800.00,550.00L0.00,550.00zM0.00,500.00L 550.00,500.00L 550.00,450.00L0.00,450.00zM0.00,400.00L 800.00,400.00L 800.00,350.00L0.00,350.00zM0.00,300.00L 550.00,300.00L 550.00,250.00L0.00,250.00zM0.00,200.00L 800.00,200.00L 800.00,150.00L0.00,150.00zM0.00,100.00L 550.00,100.00L 550.00,50.00L0.00,50.00z" />
<glyph unicode="&#xe032;" d="M 400.00,750.00L 50.00-50.00L 400.00,100.00L 750.00-50.00 z" />
<glyph unicode="&#xe033;" d="M0.00,750.00L0.00,300.00L 150.00,450.00L 800.00-50.00L 300.00,600.00L 445.795,750.00 z" />
<glyph unicode="&#xe034;" d="M 400.00,750.00C 179.086,750.00,0.00,570.914,0.00,350.00s 179.086-400.00, 400.00-400.00s 400.00,179.086, 400.00,400.00S 620.914,750.00, 400.00,750.00z M 100.00,300.00l0.00,100.00 l 600.00,0.00 l0.00-100.00 L 100.00,300.00 z" />
<glyph unicode="&#xe035;" d="M 250.00,200.00c 13.75-13.75, 36.933-13.067, 51.517,1.517L 548.484,448.483C 563.069,463.067, 563.75,486.25, 550.00,500.00
		s-36.933,13.067-51.517-1.517L 251.517,251.517C 236.933,236.933, 236.25,213.75, 250.00,200.00zM 372.569,222.569c 3.562-7.07, 5.461-14.969, 5.461-23.20c0.00-13.762-5.269-26.609-14.838-36.178l-127.642-127.642
		c-9.569-9.569-22.417-14.838-36.178-14.838s-26.609,5.269-36.178,14.838l-77.642,77.642c-9.569,9.569-14.838,22.417-14.838,36.178
		s 5.269,26.609, 14.838,36.178l 127.642,127.642c 9.569,9.569, 22.417,14.839, 36.178,14.839c 8.231,0.00, 16.128-1.898, 23.20-5.461l 51.045,51.045
		c-21.773,16.727-48.00,25.125-74.245,25.125c-31.239,0.00-62.478-11.848-86.178-35.548l-127.642-127.642
		c-47.398-47.398-47.398-124.959,0.00-172.358l 77.642-77.642C 136.892-38.15, 168.131-50.00, 199.37-50.00
		c 31.241,0.00, 62.48,11.85, 86.178,35.548l 127.642,127.642c 43.609,43.609, 47.061,112.733, 10.425,160.425L 372.569,222.569zM 764.452,636.809l-77.642,77.642C 663.111,738.152, 631.872,750.00, 600.631,750.00c-31.239,0.00-62.478-11.848-86.178-35.548l-127.642-127.642
		c-43.609-43.609-47.061-112.733-10.423-160.423l 51.045,51.047c-3.561,7.07-5.459,14.969-5.459,23.198c0.00,13.762, 5.269,26.609, 14.838,36.178
		l 127.642,127.642c 9.569,9.569, 22.417,14.839, 36.178,14.839s 26.609-5.27, 36.178-14.839l 77.642-77.642
		c 9.569-9.569, 14.838-22.417, 14.838-36.178s-5.269-26.609-14.838-36.178l-127.642-127.642c-9.569-9.569-22.417-14.838-36.178-14.838
		c-8.231,0.00-16.128,1.898-23.20,5.461l-51.045-51.045c 21.775-16.727, 48.00-25.125, 74.245-25.125c 31.241,0.00, 62.48,11.85, 86.178,35.548
		l 127.642,127.642C 811.85,511.85, 811.85,589.411, 764.452,636.809z" />
<glyph unicode="&#xe036;" d="M 372.569,222.567c 3.562-7.069, 5.461-14.967, 5.461-23.20c0.00-13.762-5.269-26.608-14.838-36.178l-127.641-127.641
		c-9.569-9.569-22.419-14.838-36.178-14.838s-26.609,5.269-36.178,14.838l-77.641,77.641c-9.569,9.57-14.838,22.419-14.838,36.178
		s 5.269,26.609, 14.838,36.178l 127.641,127.642c 9.569,9.567, 22.419,14.838, 36.178,14.838c 8.233,0.00, 16.128-1.898, 23.20-5.459l 51.045,51.044
		c-21.773,16.727-48.00,25.125-74.245,25.125c-31.239,0.00-62.478-11.848-86.178-35.548l-127.641-127.642
		c-47.398-47.398-47.398-124.961,0.00-172.358l 77.641-77.642c 23.698-23.697, 54.937-35.547, 86.177-35.547
		c 31.241,0.00, 62.48,11.85, 86.178,35.548l 127.641,127.641c 43.609,43.609, 47.061,112.733, 10.425,160.427L 372.569,222.567zM 764.45,636.809l-77.641,77.642C 663.111,738.152, 631.872,750.00, 600.631,750.00c-31.239,0.00-62.477-11.848-86.177-35.548l-127.642-127.642
		c-43.609-43.609-47.061-112.733-10.423-160.423l 51.045,51.047c-3.561,7.07-5.459,14.969-5.459,23.198c0.00,13.762, 5.269,26.609, 14.838,36.178
		l 127.642,127.642c 9.567,9.569, 22.417,14.839, 36.177,14.839c 13.762,0.00, 26.609-5.27, 36.178-14.839l 77.641-77.642
		c 9.569-9.569, 14.838-22.417, 14.838-36.178c0.00-13.761-5.269-26.609-14.838-36.178l-127.641-127.642c-9.569-9.569-22.417-14.838-36.178-14.838
		c-8.231,0.00-16.128,1.898-23.20,5.461l-51.045-51.045c 21.775-16.727, 48.00-25.125, 74.245-25.125c 31.241,0.00, 62.48,11.85, 86.178,35.55
		l 127.641,127.641C 811.85,511.85, 811.85,589.411, 764.45,636.809zM 182.319,532.325L 32.323,682.32L 67.68,717.677L 217.675,567.681zM 300.00,750.00L 350.00,750.00L 350.00,600.00L 300.00,600.00zM0.00,450.00L 150.00,450.00L 150.00,400.00L0.00,400.00zM 617.681,167.675L 767.678,17.678L 732.322-17.678L 582.325,132.319zM 450.00,100.00L 500.00,100.00L 500.00-50.00L 450.00-50.00zM 650.00,300.00L 800.00,300.00L 800.00,250.00L 650.00,250.00z" />
<glyph unicode="&#xe037;" d="M 400.00,750.00C 179.086,750.00,0.00,570.914,0.00,350.00s 179.086-400.00, 400.00-400.00s 400.00,179.086, 400.00,400.00S 620.914,750.00, 400.00,750.00z M 400.00,50.00
	c-41.422,0.00-75.00,33.578-75.00,75.00s 33.578,75.00, 75.00,75.00s 75.00-33.578, 75.00-75.00S 441.422,50.00, 400.00,50.00z M 575.10,473.392
	c-3.898-13.197-9.306-25.717-16.259-37.511c-6.945-11.823-15.297-23.019-25.03-33.556c-9.733-10.58-20.408-20.73-32.095-30.447
	c-13.067-10.838-23.563-20.431-31.478-28.778c-7.902-8.325-13.262-15.573-16.045-21.667c-5.217-11.209-9.145-38.067-4.205-71.433l-99.936,0.00 
	c-0.82,59.278, 7.903,88.283, 18.262,109.778c 10.569,21.694, 30.277,44.616, 59.20,68.798c 12.517,10.261, 22.244,19.387, 29.18,27.311
	c 6.952,7.917, 12.252,14.998, 15.848,21.256c 3.605,6.25, 5.827,12.084, 6.673,17.517c 0.828,5.408, 1.239,11.025, 1.239,16.873
	c0.00,10.841-1.873,20.839-5.63,30.008c-3.744,9.192-9.10,17.091-16.037,23.745c-6.964,6.689-15.15,11.902-24.60,15.658
	c-9.45,3.748-20.006,5.641-31.686,5.641c-45.569,0.00-73.367-31.83-83.383-95.475l-100.042,0.00 c 2.497,27.25, 8.688,51.892, 18.556,73.989
	c 9.864,22.109, 22.775,40.861, 38.77,56.294c 15.986,15.431, 34.603,27.297, 55.866,35.619c 21.25,8.344, 44.389,12.519, 69.405,12.519
	c 26.687,0.00, 51.003-3.814, 72.962-11.456c 21.964-7.655, 40.788-18.295, 56.478-31.906c 15.714-13.614, 27.925-29.873, 36.691-48.767
	c 8.736-18.912, 13.142-39.47, 13.142-61.694C 580.944,500.709, 578.978,486.60, 575.10,473.392z" />
<glyph unicode="&#xe038;" d="M 400.003-50.00L 312.50,550.00L 150.00,550.00L 399.998,750.00L 650.00,550.00L 487.498,550.00 z" />
<glyph unicode="&#xe039;" d="M 800.00,350.00L0.00,700.00L 150.00,350.00L0.00,0.00 z" />
<glyph unicode="&#xe03a;" d="M0.00,600.00L 800.00,600.00L 800.00,550.00L0.00,550.00zM 150.00,500.00L 650.00,500.00L 650.00,450.00L 150.00,450.00zM 150.00,300.00L 650.00,300.00L 650.00,250.00L 150.00,250.00zM 150.00,100.00L 650.00,100.00L 650.00,50.00L 150.00,50.00zM0.00,400.00L 800.00,400.00L 800.00,350.00L0.00,350.00zM0.00,200.00L 800.00,200.00L 800.00,150.00L0.00,150.00z" />
<glyph unicode="&#xe03b;" d="M 327.038,227.872c-3.45,2.40-7.025,4.889-10.716,7.497c-10.755,3.317-22.112,5.059-33.80,5.184
		c-0.492,0.005-0.969,0.008-1.453,0.008c-54.203,0.00-101.752-33.284-101.752-71.227c0.00-41.319, 40.622-73.686, 92.48-73.686
		c 37.688,0.00, 65.473,7.237, 82.584,21.509c 13.991,11.67, 20.792,27.925, 20.792,49.694c0.00,4.466-0.528,9.025-1.569,13.555
		C 369.178,197.877, 354.575,208.709, 327.038,227.872zM 400.00,750.00C 179.086,750.00,0.00,570.914,0.00,350.00s 179.086-400.00, 400.00-400.00s 400.00,179.086, 400.00,400.00S 620.914,750.00, 400.00,750.00z M 401.269,78.85
		c-32.511-26.902-77.167-41.12-129.141-41.12c-47.956,0.00-92.481,10.077-125.372,28.375C 109.552,86.802, 89.063,117.094, 89.063,151.403
		c0.00,34.794, 19.075,69.584, 52.333,95.452c 33.03,25.691, 76.213,40.02, 121.811,40.466c-4.883,9.942-7.344,20.236-7.344,30.80
		c0.00,5.014, 0.55,10.106, 1.642,15.25c-36.811,1.603-70.048,15.644-94.211,39.941c-25.058,25.198-38.858,59.598-38.858,96.861
		c0.00,35.634, 17.928,71.269, 49.186,97.769c 30.195,25.598, 69.834,40.28, 108.755,40.28l 221.948,0.00 l-52.362-58.266l-50.483,0.00 
		c 15.408-20.839, 24.328-49.22, 24.328-80.839c0.00-37.323-18.492-72.631-52.069-99.42c-25.381-20.25-25.506-25.069-25.508-35.402
		c 0.958-6.441, 18.288-26.217, 36.577-39.436c 46.402-33.506, 63.656-66.356, 63.656-121.197
		C 448.466,138.225, 431.262,103.667, 401.269,78.85z M 600.00,450.00l0.00-100.00 l-50.00,0.00 l0.00,100.00 l-100.00,0.00 l0.00,50.00 l 100.00,0.00 L 550.00,600.00 l 50.00,0.00 l0.00-100.00 l 100.00,0.00 l0.00-50.00 L 600.00,450.00 zM 319.963,395.552c 13.505,15.353, 19.462,40.881, 15.937,68.289c-6.217,48.281-39.606,88.431-74.433,89.50
		c-0.445,0.013-0.891,0.02-1.337,0.02c-11.748,0.00-22.25-4.881-30.372-14.114c-13.311-15.134-18.931-39.469-15.417-66.764
		c 6.217-48.286, 40.30-89.958, 74.43-91.00C 300.767,381.108, 311.553,385.989, 319.963,395.552z" />
<glyph unicode="&#xe03c;" d="M 800.00,616.655C 800.00,690.298, 740.302,750.00, 666.656,750.00L 133.341,750.00 C 59.698,750.00,0.00,690.298,0.00,616.655l0.00-533.309 C0.00,9.70, 59.698-50.00, 133.341-50.00
	l 533.317,0.00 C 740.302-50.00, 800.00,9.70, 800.00,83.345L 800.00,616.655 z M 399.808,626.352c 39.603,0.00, 77.789-8.447, 113.789-24.78l0.00-184.231 L 303.247,608.236
	C 334.394,620.019, 366.859,626.352, 399.808,626.352z M 123.647,350.00c0.00,104.23, 57.605,198.016, 150.389,245.681l 104.592-94.894L 133.681,278.214
	C 127.225,302.106, 123.647,326.217, 123.647,350.00z M 257.60,113.983c-51.20,31.217-92.039,78.341-114.161,133.786l 114.161,103.786L 257.60,113.983 z
	 M 399.772,73.709c-39.234,0.00-77.372,8.166-113.372,24.383L 286.40,230.00 l 361.73,0.00 C 602.127,134.798, 505.156,73.709, 399.772,73.709z
	 M 660.573,258.80l-117.372,0.00 L 543.202,585.681 c 82.398-50.003, 133.247-139.769, 133.247-235.778C 676.448,318.90, 670.909,288.40, 660.573,258.80z" />
<glyph unicode="&#xe03d;" d="M 400.00-50.00C 179.084-50.00,0.00,129.077,0.00,349.984C0.00,570.891, 179.086,750.00, 400.00,750.00c 220.898,0.00, 400.00-179.111, 400.00-400.016S 620.898-50.00, 400.00-50.00z
	 M 727.47,308.027c-78.50,10.303-148.116,11.048-210.148,1.466c 25.68-73.222, 47.169-152.103, 64.091-235.206
	C 659.916,126.055, 715.066,210.327, 727.47,308.027z M 518.408,42.073c-15.845,92.758-37.648,176.125-65.72,253.052
	c-105.045-31.527-186.719-98.967-255.272-205.47c 55.963-43.617, 126.131-69.811, 202.564-69.811
	C 441.781,19.844, 481.595,27.903, 518.408,42.073z M 69.823,349.984c0.00-81.675, 29.83-156.295, 78.973-213.956
	c 83.811,122.858, 178.139,186.85, 281.148,216.619c-8.486,19.955-17.278,39.652-26.734,58.825
	c-92.002-27.723-200.939-42.252-332.716-48.33C 70.313,358.759, 69.823,354.436, 69.823,349.984z M 77.281,419.47
	c 103.986,4.583, 205.508,16.152, 298.555,44.266c-35.434,63.313-77.039,122.786-124.517,180.767
	C 163.662,600.173, 98.431,518.109, 77.281,419.47z M 399.984,680.156c-28.938,0.00-56.847-4.094-83.602-11.083
	c 45.872-50.505, 87.639-111.933, 124.584-182.391c 64.222,26.52, 123.167,63.019, 174.605,113.037C 557.72,649.705, 482.472,680.156, 399.984,680.156z
	 M 655.548,558.963c-53.88-54.60-115.386-95.258-188.412-125.095c 9.964-21.516, 19.373-43.909, 28.48-66.756
	c 74.122,11.473, 152.231,8.939, 233.763,0.584C 725.536,440.075, 698.653,506.312, 655.548,558.963z" />
<glyph unicode="&#xe03e;" d="M 358.852,234.506L 225.528,3.516L 666.664,3.516L 800.00,234.506 	zM 762.197,300.00L 533.342,696.484L 266.664,696.484L 495.536,300.00 	zM 228.778,630.848L0.00,234.506L 133.341,3.516L 362.116,399.863 	z" />
<glyph unicode="&#xe03f;" d="M0.00,600.00L 800.00,600.00L 800.00,550.00L0.00,550.00zM 250.00,500.00L 800.00,500.00L 800.00,450.00L 250.00,450.00zM0.00,400.00L 800.00,400.00L 800.00,350.00L0.00,350.00zM 250.00,300.00L 800.00,300.00L 800.00,250.00L 250.00,250.00zM0.00,200.00L 800.00,200.00L 800.00,150.00L0.00,150.00zM 250.00,100.00L 800.00,100.00L 800.00,50.00L 250.00,50.00z" />
<glyph unicode="&#xe040;" d="M 400.00-50.00L 750.00,750.00L 400.00,600.00L 50.00,750.00 z" />
<glyph unicode="&#xe041;" d="M 800.00,750.00L 350.00,750.00L 500.00,600.00L0.00-50.00L 650.00,450.00L 800.00,304.205 z" />
<glyph unicode="&#xe042;" d="M 400.00,750.00C 179.086,750.00,0.00,570.914,0.00,350.00s 179.083-400.00, 400.00-400.00c 220.914,0.00, 400.00,179.086, 400.00,400.00S 620.914,750.00, 400.00,750.00z M 400.00,0.00
			C 206.70,0.00, 50.00,156.70, 50.00,350.00S 206.70,700.00, 400.00,700.00s 350.00-156.70, 350.00-350.00S 593.30,0.00, 400.00,0.00zM 350.00,200.00L 450.00,200.00L 450.00,100.00L 350.00,100.00zM 550.00,550.00L 250.00,550.00 l0.00-100.00 l 250.00,0.00 l0.00-50.00 l-150.00-100.00l0.00-50.00 l 100.00,0.00 l 150.00,100.00l0.00,150.00 C 600.00,527.614, 577.614,550.00, 550.00,550.00z" />
<glyph unicode="&#xe043;" d="M 675.486,745.097L 474.516,704.903C 461.033,702.206, 450.00,711.25, 450.00,725.00S 438.969,747.794, 425.486,745.097L 200.00,700.00L 200.00,750.00 L 100.00,750.00 l0.00-800.00 l 100.00,0.00 L 200.00,350.00 
	l 225.486,45.097C 438.969,397.794, 450.00,388.75, 450.00,375.00s 11.033-22.794, 24.514-20.097l 200.97,40.195C 688.969,397.794, 700.00,411.25, 700.00,425.00L 700.00,725.00 
	C 700.00,738.75, 688.969,747.794, 675.486,745.097z" />
<glyph unicode="&#xe044;" d="M 396.967,654.652C 321.689,744.105, 264.639,750.00, 150.00,750.00l0.00-400.00 c 200.417,100.00, 222.869-13.023, 349.228-1.598
		C 623.803,359.683, 729.736,455.569, 800.00,550.00C 601.006,503.98, 500.844,531.214, 396.967,654.652zM0.00,750.00L 100.00,750.00L 100.00-50.00L0.00-50.00z" />
<glyph unicode="&#xe045;" d="M0.00,350.00c0.00-220.914, 179.086-400.00, 400.00-400.00c 220.916,0.00, 400.00,179.086, 400.00,400.00S 620.916,750.00, 400.00,750.00C 179.086,750.00,0.00,570.914,0.00,350.00z M 700.00,350.00
	c0.00-57.216-16.025-110.688-43.819-156.181L 243.82,606.181C 289.313,633.977, 342.784,650.00, 400.00,650.00C 565.684,650.00, 700.00,515.686, 700.00,350.00z M 100.00,350.00
	c0.00,57.216, 16.025,110.686, 43.82,156.181l 412.361-412.362C 510.686,66.023, 457.216,50.00, 400.00,50.00C 234.316,50.00, 100.00,184.314, 100.00,350.00z" />
<glyph unicode="&#xe046;" d="M0.00,349.997L 600.00,437.50L 600.00,600.00L 800.00,350.002L 600.00,100.00L 600.00,262.502 z" />
<glyph unicode="&#xe047;" d="M0.00,350.00L 800.00,0.00L 650.00,350.00L 800.00,700.00 z" />
</font>
</defs>
</svg>
