<?xml version="1.0" standalone="no"?>
<!DOCTYPE svg PUBLIC "-//W3C//DTD SVG 1.1//EN" "http://www.w3.org/Graphics/SVG/1.1/DTD/svg11.dtd" >
<svg xmlns="http://www.w3.org/2000/svg">
<metadata>
This is a custom SVG font generated by IcoMoon.
1
</metadata>
<defs>
<font id="brankic1979" horiz-adv-x="800" >
<font-face units-per-em="800" ascent="750" descent="-50" />
<missing-glyph horiz-adv-x="800" />
<glyph unicode="&#x21;" d="M 400.00,675.00C 220.50,675.00, 75.00,529.50, 75.00,350.00s 145.50-325.00, 325.00-325.00s 325.00,145.50, 325.00,325.00S 579.50,675.00, 400.00,675.00z M 400.00,75.00C 248.125,75.00, 125.00,198.125, 125.00,350.00S 248.125,625.00, 400.00,625.00
			s 275.00-123.125, 275.00-275.00S 551.875,75.00, 400.00,75.00z M 370.70,432.275c-14.725-11.45-28.35-19.25-40.875-23.35l0.00-43.55 c 23.825,7.85, 44.525,19.975, 62.10,36.375
			l0.00-177.775 l 51.175,0.00 l0.00,250.00 l-42.15,0.00 C 395.50,458.675, 385.40,443.75, 370.70,432.275z" />
<glyph unicode="&#x22;" d="M 400.00,675.00C 220.50,675.00, 75.00,529.50, 75.00,350.00s 145.50-325.00, 325.00-325.00s 325.00,145.50, 325.00,325.00S 579.50,675.00, 400.00,675.00z M 400.00,75.00C 248.125,75.00, 125.00,198.125, 125.00,350.00S 248.125,625.00, 400.00,625.00
			s 275.00-123.125, 275.00-275.00S 551.875,75.00, 400.00,75.00z M 366.30,455.725c-16.85,18.475-37.075,27.70-60.775,27.70c-24.25,0.00-44.25-8.40-59.925-25.225
			c-6.325-6.90-11.375-15.025-15.10-24.40c-3.70-9.375-5.575-18.90-5.575-28.525c0.00-19.85, 5.60-36.75, 16.75-50.675
			c 11.175-13.925, 25.725-22.25, 43.675-25.00l 6.225-0.40l 5.375-0.85c 8.275-1.10, 12.425-4.275, 12.425-9.50c0.00-5.525-5.525-14.20-16.575-26.05
			c-11.60-12.675-29.95-25.525-55.075-38.45c-10.50-5.525-15.725-12.40-15.725-20.675c0.00-5.25, 1.775-9.60, 5.375-13.025
			c 3.575-3.45, 8.125-5.15, 13.65-5.15c 13.775,0.00, 32.80,7.975, 57.05,23.975c 28.65,18.75, 51.55,41.55, 68.625,68.45
			c 17.10,26.85, 25.625,53.40, 25.625,79.60c0.00,12.40-2.35,24.725-7.025,37.00C 380.625,436.775, 374.275,447.175, 366.30,455.725z M 563.075,455.725
			c-16.75,18.475-36.825,27.70-60.20,27.70c-24.475,0.00-44.425-8.40-59.825-25.225c-6.35-6.90-11.35-15.10-15.075-24.60
			c-3.725-9.525-5.575-18.95-5.575-28.325c0.00-19.85, 5.50-36.825, 16.475-50.875s 25.45-22.325, 43.30-24.80l 6.60-0.40l 4.925-0.85
			c 8.25-1.10, 12.375-4.275, 12.375-9.50c0.00-5.525-5.375-14.20-16.10-26.05c-11.275-12.125-29.575-24.95-54.85-38.45
			c-10.475-5.525-15.70-12.40-15.70-20.675c0.00-5.25, 1.80-9.60, 5.375-13.025c 3.60-3.45, 8.125-5.15, 13.625-5.15
			c 13.75,0.00, 32.75,7.975, 56.925,23.975c 28.625,18.75, 51.40,41.55, 68.30,68.45c 16.90,26.85, 25.375,53.40, 25.375,79.60
			c0.00,12.40-2.325,24.725-7.00,37.00C 577.40,436.775, 571.075,447.175, 563.075,455.725z" />
<glyph unicode="&#x23;" d="M 700.375,26.40l-51.225,0.00 L 649.15,0.00 l-76.075,0.00 l0.00,26.40 L 225.375,26.40 L 225.375,0.00 L 149.30,0.00 l 0.025,26.40L 99.625,26.40 
	c-27.45,0.00-49.675,22.25-49.675,49.675L 49.95,549.50 c0.00,27.425, 22.25,49.675, 49.675,49.675l 173.85,0.00 c0.00,0.00, 10.95,15.20, 30.975,29.05L 240.625,692.075l 17.575,17.55
	l 68.875-68.85c 13.10,5.625, 28.275,9.625, 45.75,9.625c 18.575,0.00, 34.325-4.575, 47.75-10.75l 69.975,69.975l 17.55-17.55L 442.75,626.70
	c 18.225-13.425, 27.875-27.55, 27.875-27.55l 229.725,0.00 c 27.45,0.00, 49.675-22.25, 49.675-49.675l0.00-473.425 C 750.05,48.625, 727.80,26.40, 700.375,26.40z
	 M 523.425,499.825c0.00,13.725-11.125,24.825-24.85,24.825L 150.875,524.65 c-13.725,0.00-24.85-11.10-24.85-24.825l0.00-374.10 c0.00-13.725, 11.125-24.825, 24.85-24.825
	l 347.675,0.00 c 13.725,0.00, 24.85,11.10, 24.85,24.825L 523.40,499.825 z M 601.05,100.90l 72.925,0.00 l0.00,24.825 l-72.925,0.00 L 601.05,100.90 z M 601.05,150.575l 72.925,0.00 l0.00,24.80 l-72.925,0.00 
	L 601.05,150.575 z M 601.05,201.80l 72.925,0.00 l0.00,24.825 l-72.925,0.00 L 601.05,201.80 z M 601.05,251.475l 72.925,0.00 l0.00,24.85 l-72.925,0.00 L 601.05,251.475 z M 635.775,524.05
	c-20.55,0.00-37.25-16.675-37.25-37.25s 16.70-37.25, 37.25-37.25c 20.575,0.00, 37.25,16.675, 37.25,37.25S 656.35,524.05, 635.775,524.05z M 635.775,425.00
	c-20.55,0.00-37.25-16.65-37.25-37.225s 16.70-37.25, 37.25-37.25c 20.575,0.00, 37.25,16.675, 37.25,37.25S 656.35,425.00, 635.775,425.00z" />
<glyph unicode="&#x24;" d="M 540.00,550.00l-275.00,0.00 L 100.00,325.00l0.00-125.00 c0.00-27.60, 22.40-50.00, 50.00-50.00l 500.00,0.00 c 27.60,0.00, 50.00,22.40, 50.00,50.00l0.00,125.00 L 540.00,550.00z
			 M 561.625,324.45l-51.30-75.075l-214.725,0.50l-55.025,74.875l-102.15,0.575l 141.55,199.375L 525.00,524.70 l 140.00-199.375L 561.625,324.45z M 328.125,400.00
			l 60.95-1.55L 389.075,300.00 c0.00-13.825, 9.625-25.00, 23.45-25.00c 13.80,0.00, 21.875,11.175, 21.875,25.00l0.00,98.45 L 495.30,400.00L 412.50,495.30L 328.125,400.00z" />
<glyph unicode="&#x25;" d="M 489.275,478.575l-78.60-118.30l-57.125,57.575l-57.15-92.425l-42.85,42.425L 207.15,275.00
			l 364.30,0.00 L 489.275,478.575z M 100.00,625.00l0.00-575.00 l 575.00,0.00 L 675.00,625.00 L 100.00,625.00 z M 625.00,225.00L 150.00,225.00 L 150.00,575.00 l 475.00,0.00 L 625.00,225.00 z M 262.275,423.225c 20.725,0.00, 37.50,16.775, 37.50,37.50s-16.775,37.50-37.50,37.50
			c-20.70,0.00-37.50-16.775-37.50-37.50S 241.575,423.225, 262.275,423.225z" />
<glyph unicode="&#x26;" d="M 599.30,75.875l-74.75,0.00 c-13.75,0.00-24.925,11.125-24.925,24.90l0.00,49.85 
	c0.00,13.725, 11.175,24.90, 24.925,24.90l 49.825,0.00 l0.00,124.60 l-174.425,0.00 l0.00-124.60 l 24.90,0.00 c 13.775,0.00, 24.925-11.175, 24.925-24.90l0.00-49.85 
	c0.00-13.775-11.15-24.90-24.925-24.90l-74.75,0.00 c-13.75,0.00-24.90,11.125-24.90,24.90l0.00,49.85 c0.00,13.725, 11.15,24.90, 24.90,24.90l 24.95,0.00 l0.00,124.60 
	L 200.60,300.125 l0.00-124.60 l 49.825,0.00 c 13.775,0.00, 24.925-11.175, 24.925-24.90l0.00-49.85 c0.00-13.775-11.15-24.90-24.925-24.90L 175.70,75.875 c-13.775,0.00-24.925,11.125-24.925,24.90
	l0.00,49.85 c0.00,13.725, 11.15,24.90, 24.925,24.90l0.00,124.60 l0.00,24.90 l 24.90,0.00 l 174.45,0.00 l0.00,99.675 l-74.75,0.00 c-13.775,0.00-24.925,11.15-24.925,24.925L 275.375,574.225 
	c0.00,13.75, 11.15,24.925, 24.925,24.925l 174.425,0.00 c 13.775,0.00, 24.90-11.15, 24.90-24.925l0.00-124.575 c0.00-13.75-11.125-24.925-24.90-24.925l-74.75,0.00 l0.00-99.675 l 174.425,0.00 
	l 24.925,0.00 l0.00-24.90 l0.00-124.60 c 13.75,0.00, 24.925-11.175, 24.925-24.90l0.00-49.85 C 624.225,87.00, 613.025,75.875, 599.30,75.875z M 175.70,150.625l0.00-49.85 l 74.725,0.00 
	l0.00,49.85 L 175.70,150.625 z M 474.70,449.625L 474.70,574.225 l-174.425,0.00 l0.00-124.575 L 474.70,449.65 z M 350.10,150.625l0.00-49.85 l 74.75,0.00 l0.00,49.85 L 350.10,150.625 z M 599.30,150.625l-74.75,0.00 l0.00-49.85 
	l 74.75,0.00 L 599.30,150.625 z" />
<glyph unicode="&#x27;" d="M 700.00-25.00L 100.00-25.00 c-41.425,0.00-75.00,33.60-75.00,75.00L 25.00,400.00 c0.00,41.425, 33.575,75.00, 75.00,75.00l 50.00,0.00 l 212.325,162.95
	C 361.375,641.825, 360.725,645.825, 360.725,650.00c0.00,27.60, 22.40,50.00, 50.00,50.00s 49.975-22.40, 49.975-50.00c0.00-8.975-2.55-17.30-6.725-24.60L 650.00,475.00l 50.00,0.00 
	c 41.40,0.00, 75.00-33.575, 75.00-75.00l0.00-350.00 C 775.00,8.60, 741.40-25.00, 700.00-25.00z M 426.775,135.425l 100.775,0.00 l0.00,18.95 l-79.50,0.00 l0.00,142.20 l-21.30,0.00 L 426.75,135.425 z M 282.575,135.425
	l 17.65,48.825l 67.70,0.00 l 18.55-48.825l 24.30,0.00 l-65.70,161.125l-23.10,0.00 l-61.95-161.125L 282.575,135.425 z M 133.55,277.65
	c-4.60-7.10-6.90-14.725-6.90-22.85c0.00-7.425, 1.875-14.10, 5.65-20.10s 9.50-10.975, 17.175-15.05c 5.90-3.15, 16.225-6.50, 30.975-10.05
	s 24.275-6.175, 28.60-7.85c 6.725-2.60, 11.55-5.725, 14.525-9.50s 4.475-8.15, 4.475-13.20c0.00-4.95-1.525-9.575-4.55-13.80
	s-7.65-7.55-13.875-9.975c-6.20-2.45-13.35-3.65-21.45-3.65c-9.125,0.00-17.325,1.575-24.625,4.80
	c-7.325,3.175-12.70,7.375-16.15,12.575s-5.70,11.85-6.65,19.925l-20.125-1.75c 0.30-10.775, 3.25-20.40, 8.85-28.925
	c 5.60-8.55, 13.30-14.95, 23.125-19.20c 9.85-4.25, 22.025-6.375, 36.575-6.375c 11.45,0.00, 21.775,2.10, 30.95,6.325
	c 9.175,4.20, 16.20,10.05, 21.10,17.65c 4.90,7.575, 7.35,15.625, 7.35,24.20c0.00,8.625-2.25,16.225-6.725,22.85
	c-4.475,6.65-11.40,12.10-20.80,16.40c-6.475,2.925-18.325,6.35-35.575,10.25c-17.275,3.925-27.95,7.775-32.025,11.525
	c-4.175,3.70-6.25,8.475-6.25,14.25c0.00,6.70, 2.95,12.375, 8.825,17.10c 5.875,4.725, 15.225,7.10, 28.075,7.10
	c 12.35,0.00, 21.675-2.60, 27.975-7.75c 6.325-5.175, 10.00-12.825, 11.10-22.925l 20.50,1.55c-0.375,9.45-3.00,17.90-7.875,25.35
	c-4.90,7.45-11.90,13.10-21.00,16.95s-19.60,5.75-31.525,5.75c-10.825,0.00-20.65-1.825-29.50-5.50
	C 144.875,290.10, 138.15,284.75, 133.55,277.65z M 441.95,611.25C 433.35,604.325, 422.60,600.00, 410.725,600.00c-16.55,0.00-31.10,8.125-40.20,20.525L 175.00,475.00l 450.00,0.00 
	L 441.95,611.25z M 673.40,154.375l-98.825,0.00 L 574.575,209.25 l 89.05,0.00 l0.00,18.95 l-89.05,0.00 l0.00,49.425 l 95.125,0.00 l0.00,18.95 l-116.40,0.00 l0.00-161.125 l 120.125,0.00 L 673.425,154.375 z M 332.85,279.75
	c 2.60-8.825, 6.40-20.00, 11.425-33.575l 16.975-44.55l-54.975,0.00 l 17.875,47.175C 327.825,258.975, 330.725,269.30, 332.85,279.75z" />
<glyph unicode="&#x28;" d="M 400.00,650.00C 234.30,650.00, 100.00,515.675, 100.00,350.00s 134.30-300.00, 300.00-300.00c 165.675,0.00, 300.00,134.325, 300.00,300.00
			S 565.675,650.00, 400.00,650.00z M 500.00,504.70c 20.70,0.00, 37.50-22.40, 37.50-50.00s-16.80-50.00-37.50-50.00s-37.50,22.40-37.50,50.00S 479.30,504.70, 500.00,504.70z M 298.125,504.375
			c 20.70,0.00, 37.50-22.40, 37.50-50.00s-16.80-50.00-37.50-50.00s-37.50,22.40-37.50,50.00S 277.425,504.375, 298.125,504.375z M 396.875,167.20
			c-102.625,0.00-171.425,67.175-183.80,178.90l 24.225,0.00 c 19.625-86.45, 72.75-129.70, 159.375-129.70s 139.75,43.225, 159.375,129.70l 25.00,0.00 
			C 568.70,234.35, 499.50,167.20, 396.875,167.20z" />
<glyph unicode="&#x29;" d="M 715.20,468.85L 400.00,684.65L 84.80,468.85L 400.00,253.075L 715.20,468.85z M 400.00,204.925
			L 121.775,388.375L 84.80,350.00L 400.00,134.225L 715.20,350.00l-37.475,39.20L 400.00,204.925z M 400.00,86.025L 121.775,269.475l-36.975-38.375L 400.00,15.325
			l 315.20,215.775l-37.475,39.20L 400.00,86.025z" />
<glyph unicode="&#x2a;" d="M 712.50,75.00c-20.70,0.00-37.50,16.80-37.50,37.50l0.00,450.00 C 675.00,583.20, 691.80,600.00, 712.50,600.00
	S 750.00,583.20, 750.00,562.50l0.00-450.00 C 750.00,91.80, 733.20,75.00, 712.50,75.00z M 525.00,125.00c0.00-27.60-22.40-50.00-50.00-50.00l-225.00,0.00 c-27.60,0.00-50.00,22.40-50.00,50.00l0.00,98.975 l-99.775,22.20l0.00,180.725 
	l 550.60,121.325l0.00-424.60 L 525.00,151.60L 525.00,125.00 z M 500.00,157.175L 225.00,218.40L 225.00,125.00 c0.00-13.80, 11.20-25.00, 25.00-25.00l 225.00,0.00 c 13.825,0.00, 25.00,11.20, 25.00,25.00L 500.00,157.175 z M 50.00,225.00
	c-13.80,0.00-25.00,11.20-25.00,25.00l0.00,175.00 c0.00,13.825, 11.20,25.00, 25.00,25.00s 25.00-11.175, 25.00-25.00l0.00-175.00 C 75.00,236.20, 63.80,225.00, 50.00,225.00z" />
<glyph unicode="&#x2b;" d="M 75.00,650.00l0.00-625.00 l 625.00,0.00 L 700.00,650.00 L 75.00,650.00 z M 275.00,50.00L 100.00,50.00 L 100.00,625.00 l 175.00,0.00 L 275.00,50.00 z M 675.00,50.00L 300.00,50.00 L 300.00,625.00 l 375.00,0.00 L 675.00,50.00 z" />
<glyph unicode="&#x2c;" d="M 626.05,283.20L 626.05,595.375 c0.00,30.85-25.00,55.90-55.90,55.90L 80.875,651.275 
			C 50.00,651.30, 24.975,626.25, 24.975,595.375l0.00-312.175 c0.00-30.875, 25.025-55.90, 55.90-55.90l 93.225,0.00 l0.00-128.425l 142.60,128.425l 253.425,0.00 
			C 601.05,227.30, 626.05,252.325, 626.05,283.20z M 719.125,528.55l-69.95,0.00 c0.00,0.00,0.00-249.30,0.00-272.725s-30.40-53.55-53.825-53.55
			s-273.625-1.375-273.625-1.375c0.00-30.875, 25.025-49.65, 55.90-49.65l 107.725,0.00 l 140.55-127.55l-0.175,127.55l 93.40,0.00 
			c 30.90,0.00, 55.90,18.775, 55.90,49.65L 775.025,474.20 C 775.025,505.05, 750.025,528.55, 719.125,528.55z" />
<glyph unicode="&#x2d;" d="M 576.525,413.975c0.00,0.00, 29.30,22.275, 7.025,44.55c-22.325,22.275-44.00-6.475-44.00-6.475
	l-174.225-174.25c0.00,0.00-52.575-67.775-92.40-26.75s 26.75,92.40, 26.75,92.40l 243.975,244.00c0.00,0.00, 68.60,75.575, 133.05,11.125
	c 64.45-64.475-11.325-133.225-11.325-133.225L 335.05,135.00c0.00,0.00-105.70-122.10-203.575-24.225s 25.40,202.375, 25.40,202.375L 407.725,564.00
	c0.00,0.00, 28.125,23.45, 7.025,44.55s-44.525-7.025-44.525-7.025L 82.475,313.75c0.00,0.00-108.625-119.175, 12.70-240.45
	c 121.325-121.325, 240.475-12.725, 240.475-12.725l 395.55,395.575c0.00,0.00, 79.10,87.325-15.225,181.70s-181.70,15.225-181.70,15.225L 244.025,362.80
	c0.00,0.00-87.25-70.85-8.125-149.95c 79.125-79.125, 148.775,9.30, 148.775,9.30L 576.525,413.975z" />
<glyph unicode="&#x2e;" d="M 625.05,540.15l0.00-313.325 l 100.975,0.00 l0.00-100.975 L 174.55,125.85 L 174.55,674.20 l 100.975,0.00 l0.00-99.425 L 586.25,574.775 l 115.975,115.975
	l 35.125-35.15L 625.05,540.15z M 275.525,475.375L 275.525,262.50 l 211.30,212.875L 275.525,475.375 z M 524.075,440.75l-215.475-213.925l 215.475,0.00 L 524.075,440.75 z M 75.15,574.775l 76.125,0.00 
	l0.00-99.425 L 75.15,475.35 L 75.15,574.775 z M 625.05,26.45l-100.975,0.00 L 524.075,101.00 l 100.975,0.00 L 625.05,26.45 z" />
<glyph unicode="&#x2f;" d="M 452.325,349.075c 57.225,99.075, 73.55,163.075, 73.55,223.90c0.00,92.825-83.425,127.875-131.90,127.875s-131.425-33.85-131.425-127.90
	c0.00-60.05, 15.50-124.625, 72.65-223.025l-134.125-236.50l 57.15-114.30L 392.50,247.75l 150.725-248.625l 55.725,103.475L 452.325,349.075z M 334.90,588.475
	c0.00,47.725, 29.35,58.125, 58.975,58.125c 29.70,0.00, 58.20-10.15, 58.20-57.90s-58.125-127.275-58.125-127.275S 334.90,540.70, 334.90,588.475z" />
<glyph unicode="&#x30;" d="M 375.00,103.125L 375.00,593.75 C 375.00,593.75, 307.80,650.00, 212.50,650.00S 50.00,600.00, 50.00,600.00l0.00-496.875 
			c0.00,0.00, 67.20,48.45, 162.50,48.45S 375.00,103.125, 375.00,103.125z M 725.00,103.125L 725.00,593.75 c0.00,0.00-67.20,56.25-162.50,56.25S 400.00,600.00, 400.00,600.00l0.00-496.875 
			c0.00,0.00, 67.20,48.45, 162.50,48.45S 725.00,103.125, 725.00,103.125z M 775.00,550.00l-25.00,0.00 l0.00-475.00 L 450.00,75.00 l0.00-25.00 l-125.00,0.00 l0.00,25.00 L 25.00,75.00 L 25.00,550.00 L0.00,550.00 l0.00-500.00 l 300.00,0.00 l0.00-25.00 l 176.55,0.00 L 475.00,50.00l 300.00,0.00 L 775.00,550.00 z" />
<glyph unicode="&#x31;" d="M 775.00,24.90L 50.00,24.90 c-27.60,0.00-50.00,22.35-50.00,49.875L0.00,498.875 c0.00,27.575, 22.40,49.90, 50.00,49.90l 529.70,0.00 
	l-206.65,112.325C 368.55,652.825, 360.10,647.00, 350.00,647.00c-14.675,0.00-26.55,11.875-26.55,26.50C 323.45,688.125, 335.325,700.00, 350.00,700.00
	s 26.55-11.875, 26.55-26.525c0.00-3.50-0.75-6.775-2.00-9.85l 297.325-114.875L 775.00,548.75 c 27.60,0.00, 50.00-22.35, 50.00-49.90l0.00-424.10 
	C 825.00,47.25, 802.60,24.90, 775.00,24.90z M 700.00,99.225c 27.60,0.00, 50.00,22.35, 50.00,49.90c0.00,27.55-22.40,49.875-50.00,49.875c-27.625,0.00-50.00-22.35-50.00-49.875
	C 650.00,121.55, 672.375,99.225, 700.00,99.225z M 550.00,99.725c 27.60,0.00, 50.00,22.35, 50.00,49.90c0.00,27.55-22.40,49.875-50.00,49.875s-50.00-22.35-50.00-49.875
	C 500.00,122.075, 522.40,99.725, 550.00,99.725z M 262.50,473.925c-103.55,0.00-187.50-83.775-187.50-187.075c0.00-103.35, 83.95-187.10, 187.50-187.10
	c 103.575,0.00, 187.50,83.775, 187.50,187.10C 450.00,390.15, 366.075,473.925, 262.50,473.925z M 750.00,473.925L 500.00,473.925 l0.00-74.825 l 137.50,0.00 l 25.00,49.875l 25.00-49.875L 750.00,399.10 L 750.00,473.925 z M 400.00,249.425
	l 20.225,0.00 c-2.05-8.625-4.825-16.925-8.20-24.95L 400.00,224.475 L 400.00,249.425 z M 400.00,299.30l 23.725,0.00 C 424.075,295.125, 425.00,291.125, 425.00,286.85
	s-0.925-8.30-1.275-12.475L 400.00,274.375 L 400.00,299.30 z M 400.00,349.20l 12.30,0.00 c 3.375-7.95, 5.725-16.40, 7.80-24.95L 400.00,324.25 L 400.00,349.20 z M 350.00,374.15l0.00,24.95 l 25.00,0.00 l0.00-24.95 
	L 350.00,374.15 z M 300.00,149.625l 25.00,0.00 l0.00-11.975 c-8.025-3.325-16.375-6.025-25.00-8.125L 300.00,149.625 z M 300.00,199.50l 25.00,0.00 l0.00-24.95 l-25.00,0.00 L 300.00,199.50 z M 300.00,249.425l 25.00,0.00 l0.00-24.95 l-25.00,0.00 L 300.00,249.425 z
	 M 300.00,299.30l 25.00,0.00 l0.00-24.925 l-25.00,0.00 L 300.00,299.30 z M 300.00,349.20l 25.00,0.00 l0.00-24.95 l-25.00,0.00 L 300.00,349.20 z M 300.00,399.10l 25.00,0.00 l0.00-24.95 l-25.00,0.00 L 300.00,399.10 z M 300.00,444.10
	c 8.60-2.10, 16.975-4.80, 25.00-8.125l0.00-11.95 l-25.00,0.00 L 300.00,444.10 z M 250.00,126.00l0.00,23.625 l 25.00,0.00 l0.00-24.05 c-4.15-0.325-8.25-0.90-12.50-0.90
	C 258.20,124.675, 254.20,125.65, 250.00,126.00z M 250.00,199.50l 25.00,0.00 l0.00-24.95 l-25.00,0.00 L 250.00,199.50 z M 250.00,249.425l 25.00,0.00 l0.00-24.95 l-25.00,0.00 L 250.00,249.425 z M 250.00,299.30l 25.00,0.00 l0.00-24.925 l-25.00,0.00 L 250.00,299.30 z
	 M 250.00,349.20l 25.00,0.00 l0.00-24.95 l-25.00,0.00 L 250.00,349.20 z M 250.00,399.10l 25.00,0.00 l0.00-24.95 l-25.00,0.00 L 250.00,399.10 z M 250.00,447.65c 4.20,0.35, 8.20,1.325, 12.50,1.325
	c 4.25,0.00, 8.35-0.575, 12.50-0.90l0.00-24.05 l-25.00,0.00 L 250.00,447.65 z M 200.00,149.625l 25.00,0.00 l0.00-19.90 c-8.55,2.125-17.025,4.55-25.00,7.925L 200.00,149.625 z M 200.00,199.50l 25.00,0.00 l0.00-24.95 L 200.00,174.55 
	L 200.00,199.50 z M 200.00,249.425l 25.00,0.00 l0.00-24.95 L 200.00,224.475 L 200.00,249.425 z M 200.00,299.30l 25.00,0.00 l0.00-24.925 L 200.00,274.375 L 200.00,299.30 z M 200.00,349.20l 25.00,0.00 l0.00-24.95 L 200.00,324.25 L 200.00,349.20 z M 200.00,399.10l 25.00,0.00 l0.00-24.95 L 200.00,374.15 L 200.00,399.10 z
	 M 200.00,435.925c 7.975,3.425, 16.45,5.825, 25.00,7.975l0.00-19.875 L 200.00,424.025 L 200.00,435.925 z M 150.00,199.50l 25.00,0.00 l0.00-24.95 L 150.00,174.55 L 150.00,199.50 z M 150.00,249.425l 25.00,0.00 l0.00-24.95 L 150.00,224.475 L 150.00,249.425 z M 150.00,299.30l 25.00,0.00 
	l0.00-24.925 L 150.00,274.375 L 150.00,299.30 z M 150.00,349.20l 25.00,0.00 l0.00-24.95 L 150.00,324.25 L 150.00,349.20 z M 150.00,399.10l 25.00,0.00 l0.00-24.95 L 150.00,374.15 L 150.00,399.10 z M 375.00,324.25l-25.00,0.00 l0.00,24.95 l 25.00,0.00 L 375.00,324.25 z M 375.00,274.375l-25.00,0.00 l0.00,24.925 l 25.00,0.00 
	L 375.00,274.375 z M 375.00,224.475l-25.00,0.00 l0.00,24.95 l 25.00,0.00 L 375.00,224.475 z M 375.00,174.55l-25.00,0.00 L 350.00,199.50 l 25.00,0.00 L 375.00,174.55 z M 104.775,249.425L 125.00,249.425 l0.00-24.95 L 113.00,224.475 
	C 109.625,232.50, 106.825,240.80, 104.775,249.425z M 100.00,286.85c0.00,4.275, 0.95,8.275, 1.275,12.45L 125.00,299.30 l0.00-24.925 L 101.275,274.375 C 100.925,278.55, 100.00,282.575, 100.00,286.85z
	 M 112.70,349.20L 125.00,349.20 l0.00-24.95 L 104.90,324.25 C 106.975,332.80, 109.325,341.225, 112.70,349.20z M 200.00-0.05C 200.00-13.825, 188.825-25.00, 175.00-25.00L 125.00-25.00 
	c-13.80,0.00-25.00,11.175-25.00,24.95s0.00,24.95,0.00,24.95l 100.00,0.00 C 200.00,24.90, 200.00,13.725, 200.00-0.05z M 725.00-0.05C 725.00-13.825, 713.825-25.00, 700.00-25.00l-50.00,0.00 
	c-13.825,0.00-25.00,11.175-25.00,24.95s0.00,24.95,0.00,24.95l 100.00,0.00 C 725.00,24.90, 725.00,13.725, 725.00-0.05z" horiz-adv-x="825" />
<glyph unicode="&#x32;" d="M 790.625,401.55c-12.70,0.00-43.275-14.075-65.075-25.00l-49.625,0.00 
	c-3.00,63.575-28.525,121.125-68.875,165.00l 32.80,32.825c 23.30,7.625, 57.55,19.975, 66.975,29.40c 14.65,14.65, 14.65,38.40,0.00,53.05
	c-14.65,14.625-38.375,14.625-53.025,0.00c-8.975-8.975-20.65-40.60-28.325-63.70l-35.075-35.05C 546.325,598.20, 488.65,623.375, 425.00,626.025L 425.00,672.45 
	c 11.05,21.875, 26.55,54.85, 26.55,68.175c0.00,20.70-16.80,37.50-37.50,37.50s-37.50-16.80-37.50-37.50c0.00-12.70, 14.075-43.275, 25.00-65.075l0.00-49.625 
	c-63.575-3.00-121.15-28.50-165.025-68.875L 203.725,589.875c-7.625,23.30-20.00,57.575-29.425,67.00c-14.625,14.625-38.375,14.625-53.025,0.00
	c-14.65-14.65-14.65-38.40,0.00-53.05C 130.25,594.825, 161.85,583.175, 184.95,575.50l 35.075-35.075c-39.775-43.725-64.85-100.825-67.825-163.85L 102.575,376.575 
	c-21.775,10.925-52.35,25.00-65.075,25.00c-20.725,0.00-37.50-16.80-37.50-37.50s 16.775-37.50, 37.50-37.50c 13.325,0.00, 46.30,15.50, 68.175,26.55l 46.45,0.00 
	c 2.625-63.65, 27.825-121.325, 67.925-165.40l-35.05-35.075c-23.125-7.675-54.70-19.325-63.70-28.325c-14.65-14.65-14.65-38.40,0.00-53.025
	c 14.65-14.65, 38.40-14.65, 53.025,0.00c 9.425,9.40, 21.775,43.65, 29.425,66.95l 32.825,32.825c 43.875-40.35, 101.425-65.875, 165.00-68.875l0.00-49.625 
	c-10.925-21.775-25.00-52.375-25.00-65.075c0.00-20.70, 16.80-37.50, 37.50-37.50s 37.50,16.80, 37.50,37.50c0.00,13.325-15.50,46.30-26.55,68.175l0.00,46.45 
	c 63.65,2.60, 121.325,27.80, 165.40,67.90l 35.075-35.05c 7.675-23.10, 19.325-54.70, 28.325-63.675c 14.65-14.65, 38.375-14.65, 53.025,0.00
	c 14.65,14.625, 14.65,38.375,0.00,53.025c-9.425,9.425-43.675,21.775-66.975,29.425l-32.80,32.80c 40.70,44.25, 66.30,102.375, 68.95,166.575l 46.45,0.00 
	c 21.875-11.075, 54.825-26.55, 68.175-26.55c 20.70,0.00, 37.50,16.80, 37.50,37.50S 811.325,401.55, 790.625,401.55z M 255.375,505.05l 88.80-88.80
	c-8.55-11.425-14.225-24.925-16.375-39.675L 202.20,376.575 C 205.075,425.80, 224.60,470.45, 255.375,505.05z M 202.10,353.125l 125.55,0.00 
	c 1.95-15.375, 7.70-29.45, 16.55-41.25l-88.825-88.80C 224.30,258.025, 204.675,303.275, 202.10,353.125z M 401.55,152.20
	c-49.80,2.90-94.875,22.85-129.65,54.25l 88.75,88.75c 11.675-9.05, 25.575-15.15, 40.90-17.35L 401.55,152.20 z M 401.55,450.30
	c-15.325-2.20-29.225-8.325-40.90-17.375l-88.75,88.75c 34.775,31.375, 79.85,51.35, 129.65,54.25L 401.55,450.30 z M 625.925,376.55l-125.625,0.00 
	c-2.20,15.30-8.30,29.225-17.35,40.90l 88.75,88.75C 603.075,471.45, 623.025,426.35, 625.925,376.55z M 555.05,522.75l-88.80-88.825
	c-11.825,8.85-25.875,14.60-41.25,16.55L 425.00,576.025 C 474.85,573.45, 520.10,553.825, 555.05,522.75z M 425.00,152.125l0.00,125.525 
	c 15.375,1.95, 29.45,7.70, 41.25,16.525l 88.80-88.80C 520.10,174.30, 474.85,154.675, 425.00,152.125z M 571.675,221.925l-88.75,88.75
	c 9.375,12.05, 15.525,26.55, 17.525,42.45l 125.525,0.00 C 623.45,302.70, 603.40,257.025, 571.675,221.925z" horiz-adv-x="825.3749847412109" />
<glyph unicode="&#x33;" d="M 649.85,346.40L 344.225,652.025L 50.00,650.90l 0.45-270.775L 367.00,63.575
			c 19.85-19.875, 51.80-20.15, 71.35-0.60l 212.10,212.125C 669.975,294.625, 669.725,326.55, 649.85,346.40z M 177.025,476.20
			c-27.60,0.00-50.00,22.40-50.00,50.00s 22.40,50.00, 50.00,50.00c 27.625,0.00, 50.00-22.40, 50.00-50.00S 204.65,476.20, 177.025,476.20z M 721.15,345.80L 415.525,651.425L 378.75,651.30
			l 306.75-305.175c 19.875-19.875, 20.125-51.775, 0.575-71.325l-212.10-212.125c-5.175-5.175-11.275-8.85-17.725-11.275
			c 18.025-6.925, 39.025-3.375, 53.375,10.95l 212.15,212.125C 741.30,294.025, 741.025,325.95, 721.15,345.80z" />
<glyph unicode="&#x34;" d="M 650.00,175.00l-50.00,0.00 l0.00,50.00 l 25.00,0.00 l0.00,50.00 L 150.00,275.00 l0.00-50.00 l 25.00,0.00 l0.00-50.00 L 125.00,175.00 c-13.80,0.00-25.00,11.20-25.00,25.00L 100.00,450.00 c0.00,24.175, 100.00,50.00, 275.00,50.00
	c 9.275,0.00, 17.475,0.00, 25.00,0.00c 173.45,0.00, 275.00-25.25, 275.00-50.00l0.00-250.00 C 675.00,186.20, 663.825,175.00, 650.00,175.00z M 587.50,425.00c-20.70,0.00-37.50-16.80-37.50-37.50s 16.80-37.50, 37.50-37.50
	s 37.50,16.80, 37.50,37.50S 608.20,425.00, 587.50,425.00z M 200.00,650.00c0.00,13.825, 11.20,25.00, 25.00,25.00l 325.00,0.00 c 13.825,0.00, 25.00-11.175, 25.00-25.00l0.00-125.00 L 200.00,525.00 L 200.00,650.00 z M 575.00,25.00c0.00-13.80-11.175-25.00-25.00-25.00L 225.00,0.00 
	c-13.80,0.00-25.00,11.20-25.00,25.00l0.00,225.00 l 375.00,0.00 L 575.00,25.00 z M 525.00,225.00L 250.00,225.00 l0.00-25.00 l 275.00,0.00 L 525.00,225.00 z M 525.00,175.00L 250.00,175.00 l0.00-25.00 l 275.00,0.00 L 525.00,175.00 z M 525.00,125.00L 250.00,125.00 l0.00-25.00 l 275.00,0.00 L 525.00,125.00 z M 525.00,75.00L 250.00,75.00 l0.00-25.00 l 275.00,0.00 L 525.00,75.00 z" />
<glyph unicode="&#x35;" d="M 425.00,100.00c0.00,0.00, 154.70,51.55, 275.00-45.30C 700.00,56.25, 700.00,100.00, 700.00,100.00
			C 559.375,178.125, 425.00,100.00, 425.00,100.00z M 50.00,600.00l0.00-496.875 c0.00,0.00, 67.20,48.45, 162.50,48.45s 162.50-48.45, 162.50-48.45L 375.00,593.75 C 375.00,593.75, 307.80,650.00, 212.50,650.00S 50.00,600.00, 50.00,600.00z
			 M 100.00,550.00l 100.00,0.00 l0.00-125.00 L 100.00,425.00 L 100.00,550.00 z M 325.00,225.00L 100.00,225.00 l0.00,25.00 l 225.00,0.00 L 325.00,225.00 z M 325.00,275.00L 100.00,275.00 l0.00,25.00 l 225.00,0.00 L 325.00,275.00 z M 325.00,325.00L 100.00,325.00 l0.00,25.00 l 225.00,0.00 L 325.00,325.00 z M 325.00,375.00L 100.00,375.00 l0.00,25.00 l 225.00,0.00 L 325.00,375.00 z M 225.00,550.00l 100.00,0.00 l0.00-25.00 L 225.00,525.00 L 225.00,550.00 z M 225.00,500.00l 100.00,0.00 l0.00-25.00 L 225.00,475.00 L 225.00,500.00 z M 225.00,450.00l 100.00,0.00 
			l0.00-25.00 L 225.00,425.00 L 225.00,450.00 z M 562.50,650.00C 467.20,650.00, 400.00,600.00, 400.00,600.00l0.00-496.875 c0.00,0.00, 67.20,48.45, 162.50,48.45s 162.50-48.45, 162.50-48.45L 725.00,593.75 C 725.00,593.75, 657.80,650.00, 562.50,650.00z M 675.00,225.00
			l-225.00,0.00 l0.00,25.00 l 225.00,0.00 L 675.00,225.00 z M 675.00,275.00l-225.00,0.00 l0.00,25.00 l 225.00,0.00 L 675.00,275.00 z M 675.00,325.00l-225.00,0.00 l0.00,25.00 l 225.00,0.00 L 675.00,325.00 z M 675.00,375.00l-225.00,0.00 l0.00,25.00 l 225.00,0.00 L 675.00,375.00 z M 675.00,425.00l-225.00,0.00 l0.00,25.00 l 225.00,0.00 L 675.00,425.00 z M 675.00,475.00l-225.00,0.00 l0.00,25.00 l 225.00,0.00 L 675.00,475.00 z M 675.00,525.00l-225.00,0.00 L 450.00,550.00 l 225.00,0.00 L 675.00,525.00 z
			 M 75.00,100.00c0.00,0.00,0.00-43.75,0.00-45.30C 195.30,151.55, 350.00,100.00, 350.00,100.00S 215.625,178.125, 75.00,100.00z" />
<glyph unicode="&#x36;" d="M 401.05,541.375c0.00,0.00-50.00,106.55-162.50,106.55c-122.925,0.00-187.50-104.175-187.50-208.325
	c0.00-172.925, 350.00-387.50, 350.00-387.50s 347.90,212.50, 347.90,387.50c0.00,106.25-66.65,208.325-185.40,208.325S 401.05,541.375, 401.05,541.375z" />
<glyph unicode="&#x37;" d="M 700.00,150.00l0.00-100.00 l-100.00,0.00 l0.00,25.00 L 200.00,75.00 l0.00-25.00 L 100.00,50.00 l0.00,100.00 l 25.00,0.00 L 125.00,550.00 L 100.00,550.00 L 100.00,650.00 l 100.00,0.00 l0.00-25.00 l 400.00,0.00 L 600.00,650.00 l 100.00,0.00 l0.00-100.00 l-25.00,0.00 l0.00-400.00 L 700.00,150.00 z M 125.00,75.00l 50.00,0.00 l0.00,50.00 L 125.00,125.00 L 125.00,75.00 z M 175.00,625.00L 125.00,625.00 
	l0.00-50.00 l 50.00,0.00 L 175.00,625.00 z M 600.00,575.00L 200.00,575.00 l0.00-25.00 L 175.00,550.00 l0.00-400.00 l 25.00,0.00 l0.00-25.00 l 400.00,0.00 l0.00,25.00 l 25.00,0.00 L 625.00,550.00 l-25.00,0.00 L 600.00,575.00 z M 675.00,625.00l-50.00,0.00 l0.00-50.00 l 50.00,0.00 L 675.00,625.00 z M 625.00,125.00l0.00-50.00 l 50.00,0.00 l0.00,50.00 L 625.00,125.00 z" />
<glyph unicode="&#x38;" d="M 612.50,50.00c 6.875,0.00, 12.50-5.60, 12.50-12.50s0.00-37.50,0.00-37.50L 150.00,0.00 c0.00,0.00,0.00,30.60,0.00,37.50
	S 155.60,50.00, 162.50,50.00l 41.75,0.00 c 2.075,166.45, 110.80,220.10, 110.80,287.375C 315.05,405.00, 204.325,409.50, 203.275,625.00L 162.50,625.00 C 155.60,625.00, 150.00,630.60, 150.00,637.50S 150.00,675.00, 150.00,675.00l 475.00,0.00 
	c0.00,0.00,0.00-30.60,0.00-37.50S 619.375,625.00, 612.50,625.00l-38.25,0.00 c-1.05-215.50-111.775-220.00-111.775-287.625c0.00-67.275, 108.75-120.925, 110.825-287.375L 612.50,50.00 z
	 M 427.775,337.375c0.00,67.90, 110.75,72.125, 111.775,287.625L 237.975,625.00 c 1.025-215.50, 111.775-219.725, 111.775-287.625c0.00-65.275-108.775-120.30-110.825-287.375
	l 18.95,0.00 c 4.45,14.825, 19.225,32.65, 44.75,45.85l 33.175,16.925c 20.85,10.775, 33.35,18.05, 37.50,21.80s 8.85,12.15, 14.10,25.20
	c 5.525-13.025, 10.25-21.425, 14.25-25.20s 16.35-11.025, 37.10-21.80l 33.00-16.925c 25.375-13.20, 40.10-31.025, 44.475-45.85l 22.35,0.00 
	C 536.525,217.075, 427.775,272.10, 427.775,337.375z M 401.75,374.075c-3.00-5.90-5.525-17.125-7.525-33.675c-0.50-5.00-1.60-12.525-3.375-22.55
	c-1.75,10.025-2.875,17.55-3.375,22.55c-2.025,16.55-4.55,27.75-7.575,33.675c-3.025,5.875-11.55,16.45-25.625,31.775l-31.275,34.20
	c-21.375,23.05-35.075,39.60-41.10,49.60c 37.10-23.625, 73.325-35.45, 108.675-35.45s 71.70,11.825, 109.05,35.45
	c-6.25-10.00-20.00-26.55-41.225-49.60l-31.15-34.20C 413.25,390.525, 404.725,379.95, 401.75,374.075z" />
<glyph unicode="&#x39;" d="M 628.30,420.875c0.00,129.125-140.675,233.80-314.15,233.80C 140.65,654.675,0.00,550.00,0.00,420.875
			c0.00-77.60, 50.80-146.35, 129.00-188.875c-0.225-0.675-62.30-113.625-62.30-113.625s 189.55,72.30, 190.075,72.60
			c 18.60-2.575, 37.775-3.875, 57.375-3.875C 487.625,187.10, 628.30,291.775, 628.30,420.875z M 859.625,347.825
			c0.00,129.10-132.425,232.85-275.775,233.775c 205.50-204.70-36.525-422.80-233.775-422.80c0.00,0.00, 21.925-44.75, 195.40-44.75
			c 19.575,0.00, 38.775,1.35, 57.375,3.90c 0.525-0.35, 190.10-72.60, 190.10-72.60s-62.10,112.925-62.30,113.60
			C 808.825,201.475, 859.625,270.25, 859.625,347.825z" horiz-adv-x="859.6249580383301" />
<glyph unicode="&#x3a;" d="M 400.00,618.15c-173.475,0.00-314.125-104.675-314.125-233.80c0.00-77.60, 50.80-146.35, 129.00-188.875
			c-0.225-0.675-62.30-113.625-62.30-113.625s 189.575,72.30, 190.10,72.60c 18.60-2.575, 37.775-3.875, 57.35-3.875
			c 173.475,0.00, 314.125,104.675, 314.125,233.775C 714.125,513.475, 573.475,618.15, 400.00,618.15z M 249.20,359.375c-13.80,0.00-25.00,11.20-25.00,25.00c0.00,13.825, 11.20,25.00, 25.00,25.00
			s 25.00-11.175, 25.00-25.00C 274.20,370.575, 263.025,359.375, 249.20,359.375z M 348.675,358.325c-13.80,0.00-25.00,11.20-25.00,25.00c0.00,13.825, 11.20,25.00, 25.00,25.00
			c 13.825,0.00, 25.00-11.175, 25.00-25.00C 373.675,369.525, 362.50,358.325, 348.675,358.325z M 449.70,358.325c-13.80,0.00-25.00,11.20-25.00,25.00c0.00,13.825, 11.20,25.00, 25.00,25.00
			c 13.825,0.00, 25.00-11.175, 25.00-25.00C 474.70,369.525, 463.525,358.325, 449.70,358.325z M 549.70,358.325c-13.80,0.00-25.00,11.20-25.00,25.00c0.00,13.825, 11.20,25.00, 25.00,25.00
			c 13.825,0.00, 25.00-11.175, 25.00-25.00C 574.70,369.525, 563.525,358.325, 549.70,358.325z" />
<glyph unicode="&#x3b;" d="M 644.625,626.20L 155.375,626.20 c-30.875,0.00-55.90-25.05-55.90-55.90l0.00-312.20 
			c0.00-30.85, 25.025-55.90, 55.90-55.90l 93.225,0.00 l 0.025-128.425l 142.60,128.425l 253.425,0.00 c 30.90,0.00, 55.90,25.05, 55.90,55.90L 700.55,570.30 
			C 700.525,601.15, 675.525,626.20, 644.625,626.20z M 250.00,400.775c-13.825,0.00-25.00,11.20-25.00,25.00c0.00,13.825, 11.175,25.00, 25.00,25.00c 13.80,0.00, 25.00-11.175, 25.00-25.00
			C 275.00,411.975, 263.80,400.775, 250.00,400.775z M 350.00,401.825c-13.825,0.00-25.00,11.20-25.00,25.00c0.00,13.825, 11.175,25.00, 25.00,25.00c 13.80,0.00, 25.00-11.175, 25.00-25.00
			C 375.00,413.025, 363.80,401.825, 350.00,401.825z M 450.50,401.30c-13.80,0.00-25.00,11.175-25.00,25.00c0.00,13.80, 11.20,25.00, 25.00,25.00c 13.825,0.00, 25.00-11.20, 25.00-25.00
			C 475.50,412.50, 464.30,401.30, 450.50,401.30z M 550.00,400.775c-13.825,0.00-25.00,11.20-25.00,25.00c0.00,13.825, 11.175,25.00, 25.00,25.00c 13.80,0.00, 25.00-11.175, 25.00-25.00
			C 575.00,411.975, 563.80,400.775, 550.00,400.775z" />
<glyph unicode="&#x3c;" d="M 75.00,25.00L 75.00,650.00 l 625.00,0.00 l0.00-400.00 l0.00-25.00 l0.00-200.00 L 75.00,25.00 z M 650.00,600.00L 125.00,600.00 l0.00-150.00 l 50.425,0.00 c 3.725,28.00, 18.65,48.975, 36.55,48.975
	c 17.925,0.00, 32.85-20.975, 36.55-48.975l 26.775,0.00 c 3.60,28.275, 18.625,49.475, 36.65,49.475s 33.05-21.225, 36.65-49.475l 176.675,0.00 
	c 3.60,28.275, 18.625,49.475, 36.65,49.475c 18.05,0.00, 33.05-21.225, 36.675-49.475L 650.00,450.00 L 650.00,600.00 z M 650.00,425.00l-51.25,0.00 c-3.35-28.775-18.525-50.525-36.80-50.525
	c-18.225,0.00-33.40,21.725-36.775,50.525L 348.75,425.00 c-3.35-28.775-18.525-50.525-36.775-50.525S 278.55,396.225, 275.20,425.00L 248.775,425.00 
	c-3.225-29.025-18.45-51.025-36.80-51.025S 178.40,395.975, 175.175,425.00L 125.00,425.00 l0.00-175.00 l 199.80,0.00 c 3.60,28.275, 18.65,49.475, 36.65,49.475
	c 18.025,0.00, 33.075-21.225, 36.675-49.475l 24.975,0.00 c 3.225,29.025, 18.45,51.05, 36.825,51.05c 18.325,0.00, 33.55-22.025, 36.80-51.05l 28.00,0.00 
	c 3.475,28.55, 18.60,50.00, 36.75,50.00s 33.275-21.45, 36.75-50.00L 650.00,250.00 L 650.00,425.00 z M 650.00,225.00l-51.80,0.00 c-3.475-28.525-18.60-50.00-36.75-50.00s-33.275,21.475-36.75,50.00l-28.25,0.00 
	c-3.725-27.975-18.65-48.95-36.55-48.95c-17.925,0.00-32.85,20.975-36.575,48.95l-25.10,0.00 c-3.35-28.775-18.525-50.525-36.775-50.525
	c-18.225,0.00-33.40,21.725-36.775,50.525L 125.00,225.00 l0.00-150.00 l 525.00,0.00 L 650.00,225.00 z" />
<glyph unicode="&#x3d;" d="M 139.55,248.65L 511.70,620.80l 159.225-159.225L 298.775,89.425L 139.55,248.65z
	 M 528.825,531.05l-17.45,17.425L 211.85,248.975l 17.45-17.45L 528.825,531.05z M 563.725,496.15l-17.45,17.45L 246.75,214.05l 17.425-17.425
	L 563.725,496.15z M 598.625,461.25l-17.45,17.45L 281.65,179.175l 17.45-17.45L 598.625,461.25z M 582.975,691.10
	c 19.525,19.575, 51.125,19.70, 70.50,0.325l 87.80-87.80c 19.375-19.375, 19.25-50.95-0.30-70.50l-54.25-54.25l-158.00,158.00L 582.975,691.10z
	 M 127.30,227.925l 150.75-150.75L 145.95,30.25l-65.575,65.575L 127.30,227.925z M 120.925,22.075l-76.65-27.925l 27.925,76.65L 120.925,22.075z" />
<glyph unicode="&#x3e;" d="M 721.425,300.00C 701.425,158.75, 590.75,46.875, 450.00,25.075L 450.00,0.00 l-100.00,0.00 l0.00,25.075 
	C 209.25,46.85, 98.575,158.75, 78.55,300.00L 50.00,300.00 l0.00,100.00 l 29.70,0.00 C 102.80,537.325, 212.025,645.25, 350.00,666.60L 350.00,700.00 l 100.00,0.00 l0.00-33.40 C 588.00,645.25, 697.175,537.325, 720.30,400.00L 750.00,400.00 l0.00-100.00 
	L 721.425,300.00 z M 375.00,25.00l 50.00,0.00 l0.00,50.00 l-50.00,0.00 L 375.00,25.00 z M 75.00,375.00l0.00-50.00 l 50.00,0.00 l0.00,50.00 L 75.00,375.00 z M 425.00,675.00l-50.00,0.00 l0.00-50.00 l 50.00,0.00 L 425.00,675.00 z M 450.00,628.70L 450.00,600.00 l-100.00,0.00 L 350.00,628.70 C 232.75,608.10, 139.975,516.625, 117.70,400.00L 150.00,400.00 l0.00-100.00 L 116.35,300.00 
	c 19.375-120.55, 113.625-215.95, 233.65-237.025L 350.00,100.00 l 100.00,0.00 l0.00-37.025 c 120.025,21.10, 214.275,116.475, 233.65,237.025L 650.00,300.00 l0.00,100.00 l 32.30,0.00 C 660.00,516.625, 567.25,608.10, 450.00,628.70
	z M 725.00,375.00l-50.00,0.00 l0.00-50.00 l 50.00,0.00 L 725.00,375.00 z" />
<glyph unicode="&#x3f;" d="M 406.175,631.675c0.00-42.10, 31.775-70.625, 71.00-70.625c 39.225,0.00, 71.05,28.55, 71.05,70.625
	c0.00,42.125-31.80,70.65-71.05,70.65C 437.975,702.325, 406.175,673.80, 406.175,631.675z M 252.40,390.625c0.00-8.35-1.525-29.075, 0.20-41.55
	l 61.975,74.575c 12.825,14.05, 27.65,23.875, 35.225,21.225c 7.60-2.65, 11.75-11.575, 9.275-19.875L 256.50,85.25
	c-11.825-39.70, 10.525-78.70, 64.975-87.60c 79.725,0.00, 127.10,53.95, 173.70,123.875c0.00,8.35, 2.775,30.325, 1.10,42.825l-61.975-74.55
	c-12.85-14.05-28.775-23.875-36.375-21.25c-7.00,2.45-11.10,10.25-9.725,18.025l 103.30,341.325c 8.60,43.35-14.75,82.80-64.10,87.85
	C 375.50,515.725, 299.00,460.525, 252.40,390.625z" />
<glyph unicode="&#x40;" d="M 700.00,150.00l0.00-100.00 l-100.00,0.00 l0.00,25.00 l-150.00,0.00 l0.00-25.00 l-100.00,0.00 l0.00,25.00 L 200.00,75.00 l0.00-25.00 L 100.00,50.00 l0.00,100.00 l 25.00,0.00 l0.00,150.00 L 100.00,300.00 l0.00,100.00 l 25.00,0.00 L 125.00,550.00 L 100.00,550.00 L 100.00,650.00 l 100.00,0.00 l0.00-25.00 l 150.00,0.00 L 350.00,650.00 l 100.00,0.00 l0.00-25.00 l 150.00,0.00 L 600.00,650.00 l 100.00,0.00 l0.00-100.00 l-25.00,0.00 l0.00-150.00 l 25.00,0.00 
	l0.00-100.00 l-25.00,0.00 l0.00-150.00 L 700.00,150.00 z M 375.00,75.00l 50.00,0.00 l0.00,50.00 l-50.00,0.00 L 375.00,75.00 z M 125.00,75.00l 50.00,0.00 l0.00,50.00 L 125.00,125.00 L 125.00,75.00 z M 125.00,325.00l 50.00,0.00 l0.00,50.00 L 125.00,375.00 L 125.00,325.00 z M 175.00,625.00L 125.00,625.00 l0.00-50.00 l 50.00,0.00 L 175.00,625.00 z M 425.00,625.00l-50.00,0.00 l0.00-50.00 l 50.00,0.00 L 425.00,625.00 z M 600.00,575.00l-150.00,0.00 l0.00-25.00 l-100.00,0.00 L 350.00,575.00 L 200.00,575.00 l0.00-25.00 L 175.00,550.00 l0.00-150.00 l 25.00,0.00 l0.00-100.00 L 175.00,300.00 l0.00-150.00 
	l 25.00,0.00 l0.00-25.00 l 150.00,0.00 l0.00,25.00 l 100.00,0.00 l0.00-25.00 l 150.00,0.00 l0.00,25.00 l 25.00,0.00 l0.00,150.00 l-25.00,0.00 l0.00,100.00 l 25.00,0.00 L 625.00,550.00 l-25.00,0.00 L 600.00,575.00 z M 675.00,625.00l-50.00,0.00 l0.00-50.00 l 50.00,0.00 L 675.00,625.00 z M 675.00,375.00l-50.00,0.00 l0.00-50.00 l 50.00,0.00 L 675.00,375.00 z M 625.00,125.00l0.00-50.00 l 50.00,0.00 l0.00,50.00 L 625.00,125.00 z" />
<glyph unicode="&#x41;" d="M 400.00,675.00C 220.50,675.00, 75.00,529.50, 75.00,350.00s 145.50-325.00, 325.00-325.00s 325.00,145.50, 325.00,325.00S 579.50,675.00, 400.00,675.00z
			 M 450.975,230.425c-24.525-36.825-49.475-65.20-91.45-65.20c-28.65,4.675-40.425,25.20-34.225,46.125l 54.00,178.85
			c 1.325,4.375-0.875,9.05-4.875,10.475c-3.975,1.40-11.775-3.775-18.525-11.175l-32.65-39.275c-0.875,6.60-0.10,17.50-0.10,21.90
			c 24.525,36.825, 64.825,65.875, 92.15,65.875c 25.975-2.65, 38.275-23.425, 33.75-46.25l-54.375-179.725c-0.725-4.05, 1.425-8.175, 5.10-9.475
			c 4.00-1.40, 12.40,3.775, 19.175,11.175l 32.625,39.25C 452.45,246.375, 450.975,234.825, 450.975,230.425z M 443.70,464.025
			c-20.65,0.00-37.40,15.05-37.40,37.20c0.00,22.15, 16.75,37.175, 37.40,37.175s 37.40-15.05, 37.40-37.175
			C 481.10,479.05, 464.35,464.025, 443.70,464.025z" />
<glyph unicode="&#x42;" d="M 725.00,599.225L 75.00,599.225 c-27.60,0.00-50.00-22.40-50.00-50.00l0.00-423.45 c0.00-27.60, 22.40-50.00, 50.00-50.00l 650.00,0.00 
			c 27.60,0.00, 50.00,22.40, 50.00,50.00L 775.00,549.225 C 775.00,576.825, 752.60,599.225, 725.00,599.225z M 150.00,150.775L 100.00,150.775 L 100.00,524.225 l 50.00,0.00 L 150.00,150.775 z M 200.00,199.225L 175.00,199.225 l0.00,325.00 l 25.00,0.00 L 200.00,199.225 z M 275.00,199.225
			l-25.00,0.00 l0.00,325.00 l 25.00,0.00 L 275.00,199.225 z M 350.00,199.225l-50.00,0.00 l0.00,325.00 l 50.00,0.00 L 350.00,199.225 z M 400.00,199.225l-25.00,0.00 l0.00,325.00 l 25.00,0.00 L 400.00,199.225 z M 500.00,199.225l-50.00,0.00 l0.00,325.00 l 50.00,0.00 L 500.00,199.225 z M 550.00,199.225l-25.00,0.00 l0.00,325.00 l 25.00,0.00 
			L 550.00,199.225 z M 625.00,199.225l-25.00,0.00 l0.00,325.00 l 25.00,0.00 L 625.00,199.225 z M 700.00,150.775l-50.00,0.00 L 650.00,524.225 l 50.00,0.00 L 700.00,150.775 z" />
<glyph unicode="&#x43;" d="M 595.175,265.05l-43.95,0.00 l0.00-14.65 l 43.95,0.00 L 595.175,265.05 z M 431.20,221.10l0.00-14.65 l 43.95,0.00 l0.00-14.65 
			l 14.65,0.00 l0.00,58.60 l-14.65,0.00 l0.00-29.30 L 431.20,221.10 z M 431.20,162.50l 29.30,0.00 l0.00,14.65 l-29.30,0.00 L 431.20,162.50 z M 460.50,177.15l 14.65,0.00 l0.00,14.65 L 460.50,191.80 L 460.50,177.15 z
			 M 431.20,250.40l-14.65,0.00 l0.00-29.30 l 14.65,0.00 L 431.20,250.40 z M 350.00,550.00l-50.00,0.00 l0.00-250.00 l 50.00,0.00 L 350.00,550.00 z M 400.00,550.00l-25.00,0.00 l0.00-250.00 l 25.00,0.00 L 400.00,550.00 z M 551.225,162.50l 43.95,0.00 l0.00,14.65 l-43.95,0.00 L 551.225,162.50 z
			 M 475.15,265.05l-43.95,0.00 l0.00-14.65 l 43.95,0.00 L 475.15,265.05 z M 609.825,177.15l0.00,73.25 l-14.65,0.00 l0.00-73.25 L 609.825,177.15 z M 625.00,550.00l-25.00,0.00 l0.00-250.00 l 25.00,0.00 L 625.00,550.00 z M 311.20,191.80l-14.65,0.00 
			l0.00-14.65 l 14.65,0.00 L 311.20,191.80 z M 500.00,550.00l-50.00,0.00 l0.00-250.00 l 50.00,0.00 L 500.00,550.00 z M 550.00,550.00l-25.00,0.00 l0.00-250.00 l 25.00,0.00 L 550.00,550.00 z M 536.575,177.15l 14.65,0.00 l0.00,73.25 l-14.65,0.00 L 536.575,177.15 z M 176.55,162.50l 73.25,0.00 l0.00,14.65 
			L 191.20,177.15 l0.00,14.65 L 176.55,191.80 L 176.55,162.50 z M 176.55,235.75l 14.65,0.00 l0.00,14.65 L 176.55,250.40 L 176.55,235.75 z M 205.85,206.45l 29.30,0.00 l0.00,14.65 L 205.85,221.10 L 205.85,206.45 z M 325.85,221.10
			l0.00-14.65 l 29.30,0.00 l0.00,14.65 L 325.85,221.10 z M 191.20,265.05l0.00-14.65 l 43.95,0.00 l0.00,14.65 L 191.20,265.05 z M 200.00,550.00L 175.00,550.00 l0.00-250.00 l 25.00,0.00 L 200.00,550.00 z M 750.00,650.00L 50.00,650.00 C 22.40,650.00,0.00,627.60,0.00,600.00l0.00-500.00 
			c0.00-27.60, 22.40-50.00, 50.00-50.00l 700.00,0.00 c 27.60,0.00, 50.00,22.40, 50.00,50.00L 800.00,600.00 C 800.00,627.60, 777.60,650.00, 750.00,650.00z M 750.00,100.00L 50.00,100.00 L 50.00,600.00 l 700.00,0.00 L 750.00,100.00 z M 150.00,550.00L 100.00,550.00 l0.00-400.00 l 50.00,0.00 L 150.00,550.00 z M 191.20,191.80l 14.65,0.00 
			l0.00,14.65 L 191.20,206.45 L 191.20,191.80 z M 369.80,250.40l-14.65,0.00 l0.00-29.30 l 14.65,0.00 L 369.80,250.40 z M 311.20,265.05l0.00-14.65 l 43.95,0.00 l0.00,14.65 L 311.20,265.05 z M 249.80,221.10
			l0.00,29.30 L 235.15,250.40 l0.00-29.30 L 249.80,221.10 z M 296.55,235.75l 14.65,0.00 l0.00,14.65 l-14.65,0.00 L 296.55,235.75 z M 275.00,550.00l-25.00,0.00 l0.00-250.00 l 25.00,0.00 L 275.00,550.00 z M 369.80,206.45l-14.65,0.00 l0.00-29.30 l 14.65,0.00 L 369.80,206.45 
			z M 355.15,162.50l0.00,14.65 l-43.95,0.00 L 311.20,162.50 L 355.15,162.50 z M 700.00,550.00l-50.00,0.00 l0.00-400.00 l 50.00,0.00 L 700.00,550.00 z" />
<glyph unicode="&#x44;" d="M 662.50,75.00l-75.00,0.00 c-6.90,0.00-12.50,5.60-12.50,12.50s 5.60,12.50, 12.50,12.50L 650.00,100.00 l0.00,62.50 
	c0.00,6.90, 5.60,12.50, 12.50,12.50c 6.875,0.00, 12.50-5.60, 12.50-12.50l0.00-75.00 C 675.00,80.60, 669.375,75.00, 662.50,75.00z M 662.50,225.00c-6.90,0.00-12.50,5.60-12.50,12.50l0.00,75.00 
	c0.00,6.90, 5.60,12.50, 12.50,12.50c 6.875,0.00, 12.50-5.60, 12.50-12.50l0.00-75.00 C 675.00,230.60, 669.375,225.00, 662.50,225.00z M 662.50,375.00c-6.90,0.00-12.50,5.60-12.50,12.50l0.00,75.00 
	c0.00,6.90, 5.60,12.50, 12.50,12.50c 6.875,0.00, 12.50-5.60, 12.50-12.50l0.00-75.00 C 675.00,380.60, 669.375,375.00, 662.50,375.00z M 662.50,525.00C 655.60,525.00, 650.00,530.60, 650.00,537.50L 650.00,600.00 l-62.50,0.00 
	C 580.60,600.00, 575.00,605.60, 575.00,612.50S 580.60,625.00, 587.50,625.00l 75.00,0.00 C 669.375,625.00, 675.00,619.40, 675.00,612.50l0.00-75.00 C 675.00,530.60, 669.375,525.00, 662.50,525.00z M 512.50,75.00l-75.00,0.00 
	c-6.90,0.00-12.50,5.60-12.50,12.50s 5.60,12.50, 12.50,12.50l 75.00,0.00 c 6.875,0.00, 12.50-5.60, 12.50-12.50S 519.375,75.00, 512.50,75.00z M 512.50,600.00l-75.00,0.00 
	C 430.60,600.00, 425.00,605.60, 425.00,612.50S 430.60,625.00, 437.50,625.00l 75.00,0.00 C 519.375,625.00, 525.00,619.40, 525.00,612.50S 519.375,600.00, 512.50,600.00z M 362.50,600.00l-75.00,0.00 C 280.60,600.00, 275.00,605.60, 275.00,612.50
	S 280.60,625.00, 287.50,625.00l 75.00,0.00 C 369.375,625.00, 375.00,619.40, 375.00,612.50S 369.375,600.00, 362.50,600.00z M 212.50,75.00l-75.00,0.00 C 130.60,75.00, 125.00,80.60, 125.00,87.50l0.00,75.00 C 125.00,169.40, 130.60,175.00, 137.50,175.00
	C 144.40,175.00, 150.00,169.40, 150.00,162.50L 150.00,100.00 l 62.50,0.00 C 219.40,100.00, 225.00,94.40, 225.00,87.50S 219.40,75.00, 212.50,75.00z M 212.50,600.00L 150.00,600.00 l0.00-62.50 C 150.00,530.60, 144.40,525.00, 137.50,525.00
	C 130.60,525.00, 125.00,530.60, 125.00,537.50l0.00,75.00 C 125.00,619.40, 130.60,625.00, 137.50,625.00l 75.00,0.00 C 219.40,625.00, 225.00,619.40, 225.00,612.50S 219.40,600.00, 212.50,600.00z M 137.50,475.00C 144.40,475.00, 150.00,469.40, 150.00,462.50l0.00-75.00 
	C 150.00,380.60, 144.40,375.00, 137.50,375.00C 130.60,375.00, 125.00,380.60, 125.00,387.50l0.00,75.00 C 125.00,469.40, 130.60,475.00, 137.50,475.00z M 137.50,325.00C 144.40,325.00, 150.00,319.40, 150.00,312.50l0.00-75.00 
	C 150.00,230.60, 144.40,225.00, 137.50,225.00C 130.60,225.00, 125.00,230.60, 125.00,237.50l0.00,75.00 C 125.00,319.40, 130.60,325.00, 137.50,325.00z M 518.40,256.925l-25.35-25.35
	c-4.65-4.675-12.20-4.675-16.875,0.00l-71.75,71.75l-71.75-71.75c-4.675-4.675-12.20-4.675-16.875,0.00l-25.325,25.35
	c-4.675,4.675-4.675,12.20,0.00,16.875l 71.775,71.75l-71.775,71.75c-4.675,4.65-4.675,12.20,0.00,16.875l 25.325,25.325
	c 4.675,4.675, 12.20,4.675, 16.875,0.00l 71.75-71.75l 71.75,71.75c 4.675,4.675, 12.225,4.675, 16.875,0.00l 25.35-25.325
	c 4.65-4.675, 4.65-12.225,0.00-16.875l-71.775-71.75l 71.775-71.75C 523.05,269.15, 523.05,261.60, 518.40,256.925z M 287.50,100.00l 75.00,0.00 
	c 6.875,0.00, 12.50-5.60, 12.50-12.50S 369.375,75.00, 362.50,75.00l-75.00,0.00 c-6.90,0.00-12.50,5.60-12.50,12.50S 280.60,100.00, 287.50,100.00z" />
<glyph unicode="&#x45;" d="M 662.50,75.00l-75.00,0.00 c-6.90,0.00-12.50,5.60-12.50,12.50s 5.60,12.50, 12.50,12.50L 650.00,100.00 l0.00,62.50 
	c0.00,6.90, 5.60,12.50, 12.50,12.50c 6.875,0.00, 12.50-5.60, 12.50-12.50l0.00-75.00 C 675.00,80.60, 669.375,75.00, 662.50,75.00z M 662.50,225.00c-6.90,0.00-12.50,5.60-12.50,12.50l0.00,75.00 
	c0.00,6.90, 5.60,12.50, 12.50,12.50c 6.875,0.00, 12.50-5.60, 12.50-12.50l0.00-75.00 C 675.00,230.60, 669.375,225.00, 662.50,225.00z M 662.50,375.00c-6.90,0.00-12.50,5.60-12.50,12.50l0.00,75.00 
	c0.00,6.90, 5.60,12.50, 12.50,12.50c 6.875,0.00, 12.50-5.60, 12.50-12.50l0.00-75.00 C 675.00,380.60, 669.375,375.00, 662.50,375.00z M 662.50,525.00C 655.60,525.00, 650.00,530.60, 650.00,537.50L 650.00,600.00 l-62.50,0.00 
	C 580.60,600.00, 575.00,605.60, 575.00,612.50S 580.60,625.00, 587.50,625.00l 75.00,0.00 C 669.375,625.00, 675.00,619.40, 675.00,612.50l0.00-75.00 C 675.00,530.60, 669.375,525.00, 662.50,525.00z M 366.65,223.675
	c-4.60-4.625-12.075-4.625-16.70,0.00l-3.70,3.70l0.00,0.00l-3.95,3.95l-17.40,17.40c-0.05,0.075-0.025,0.175-0.075,0.225L 245.125,329.25
	c-4.625,4.60-4.625,12.075,0.00,16.70l 25.05,25.075c 4.625,4.625, 12.10,4.625, 16.725,0.00l 71.50-72.025l 150.35,150.325
	c 4.60,4.625, 12.075,4.625, 16.70,0.00l 25.05-25.075c 4.65-4.625, 4.65-12.10,0.00-16.725L 366.65,223.675z M 512.50,600.00l-75.00,0.00 C 430.60,600.00, 425.00,605.60, 425.00,612.50
	S 430.60,625.00, 437.50,625.00l 75.00,0.00 C 519.375,625.00, 525.00,619.40, 525.00,612.50S 519.375,600.00, 512.50,600.00z M 362.50,600.00l-75.00,0.00 C 280.60,600.00, 275.00,605.60, 275.00,612.50S 280.60,625.00, 287.50,625.00l 75.00,0.00 
	C 369.375,625.00, 375.00,619.40, 375.00,612.50S 369.375,600.00, 362.50,600.00z M 212.50,75.00l-75.00,0.00 C 130.60,75.00, 125.00,80.60, 125.00,87.50l0.00,75.00 C 125.00,169.40, 130.60,175.00, 137.50,175.00
	C 144.40,175.00, 150.00,169.40, 150.00,162.50L 150.00,100.00 l 62.50,0.00 C 219.40,100.00, 225.00,94.40, 225.00,87.50S 219.40,75.00, 212.50,75.00z M 212.50,600.00L 150.00,600.00 l0.00-62.50 C 150.00,530.60, 144.40,525.00, 137.50,525.00
	C 130.60,525.00, 125.00,530.60, 125.00,537.50l0.00,75.00 C 125.00,619.40, 130.60,625.00, 137.50,625.00l 75.00,0.00 C 219.40,625.00, 225.00,619.40, 225.00,612.50S 219.40,600.00, 212.50,600.00z M 137.50,475.00C 144.40,475.00, 150.00,469.40, 150.00,462.50l0.00-75.00 
	C 150.00,380.60, 144.40,375.00, 137.50,375.00C 130.60,375.00, 125.00,380.60, 125.00,387.50l0.00,75.00 C 125.00,469.40, 130.60,475.00, 137.50,475.00z M 137.50,325.00C 144.40,325.00, 150.00,319.40, 150.00,312.50l0.00-75.00 
	C 150.00,230.60, 144.40,225.00, 137.50,225.00C 130.60,225.00, 125.00,230.60, 125.00,237.50l0.00,75.00 C 125.00,319.40, 130.60,325.00, 137.50,325.00z M 287.50,100.00l 75.00,0.00 c 6.875,0.00, 12.50-5.60, 12.50-12.50
	S 369.375,75.00, 362.50,75.00l-75.00,0.00 c-6.90,0.00-12.50,5.60-12.50,12.50S 280.60,100.00, 287.50,100.00z M 437.50,100.00l 75.00,0.00 c 6.875,0.00, 12.50-5.60, 12.50-12.50S 519.375,75.00, 512.50,75.00l-75.00,0.00 
	c-6.90,0.00-12.50,5.60-12.50,12.50S 430.60,100.00, 437.50,100.00z" />
<glyph unicode="&#x46;" d="M 600.00,425.575c-96.65,0.00-175.00-78.95-175.00-176.375c0.00-55.50, 25.50-104.925, 65.225-137.275
	C 438.825,73.80, 400.00,49.725, 400.00,49.725S 50.00,266.025, 50.00,440.275c0.00,105.00, 64.575,209.975, 187.50,209.975c 112.50,0.00, 162.50-107.40, 162.50-107.40s 43.75,107.40, 162.50,107.40
	s 185.40-102.875, 185.40-209.975c0.00-23.95-6.80-48.575-17.90-73.30C 697.975,402.875, 651.65,425.575, 600.00,425.575z M 600.00,400.40
	c 82.825,0.00, 150.00-67.675, 150.00-151.175s-67.175-151.20-150.00-151.20c-82.85,0.00-150.00,67.70-150.00,151.20S 517.15,400.40, 600.00,400.40z M 525.00,224.025l 50.00,0.00 l0.00-50.40 l 50.00,0.00 l0.00,50.40 l 50.00,0.00 
	l0.00,50.40 l-50.00,0.00 l0.00,50.40 l-50.00,0.00 l0.00-50.40 l-50.00,0.00 L 525.00,224.025 z" />
<glyph unicode="&#x47;" d="M 600.00,425.575c-96.65,0.00-175.00-78.95-175.00-176.375c0.00-55.50, 25.50-104.925, 65.225-137.275
	C 438.825,73.80, 400.00,49.725, 400.00,49.725S 50.00,266.025, 50.00,440.275c0.00,105.00, 64.575,209.975, 187.50,209.975c 112.50,0.00, 162.50-107.40, 162.50-107.40s 43.75,107.40, 162.50,107.40
	s 185.40-102.875, 185.40-209.975c0.00-23.95-6.80-48.575-17.90-73.30C 697.975,402.875, 651.65,425.575, 600.00,425.575z M 600.00,400.40
	c 82.825,0.00, 150.00-67.675, 150.00-151.175s-67.175-151.20-150.00-151.20c-82.85,0.00-150.00,67.70-150.00,151.20S 517.15,400.40, 600.00,400.40z M 525.00,224.025l 150.00,0.00 l0.00,50.40 l-150.00,0.00 L 525.00,224.025 z" />
<glyph unicode="&#x48;" d="M 198.225,360.35l 159.10,159.10l 80.075-80.075c-6.65-13.925-4.35-31.025, 7.20-42.55
	c 11.525-11.55, 28.65-13.85, 42.55-7.225l 82.275-82.275l-159.075-159.10L 198.225,360.35z M 497.625,449.85c-11.525,11.525-28.65,13.85-42.55,7.20
	L 375.00,537.125l 123.725,123.725c 19.525,19.525, 51.20,19.525, 70.70,0.00l 141.45-141.40c 19.50-19.525, 19.50-51.20,0.00-70.70L 587.125,325.00l-82.30,82.275
	C 511.475,421.225, 509.175,438.325, 497.625,449.85z M 215.90,24.475l-141.425,141.40l 141.425,141.425l 141.425-141.425L 215.90,24.475z M 181.65,167.025
	l-35.35,35.35l-36.475-36.475l 35.375-35.35L 181.65,167.025z M 252.35,96.30L 217.00,131.65l-36.45-36.45l 35.35-35.35L 252.35,96.30z" />
<glyph unicode="&#x49;" d="M 197.575,574.425c0.00-13.75,0.00-49.825,0.00-49.825l 350.35,0.00 c0.00,0.00,0.00,36.075,0.00,49.825
		c0.00,13.775-11.125,24.925-24.90,24.925l-74.75,0.00 c0.00,0.00, 0.85,28.45, 0.85,72.05c0.00,40.475-35.10,77.45-77.15,77.45s-74.45-35.15-74.45-77.225
		c0.00-40.475-0.30-72.275-0.30-72.275L 222.50,599.35 C 208.725,599.35, 197.575,588.20, 197.575,574.425z M 371.975,674.075c 13.75,0.00, 24.925-11.15, 24.925-24.90
		c0.00-13.775-11.175-24.925-24.925-24.925s-24.925,11.15-24.925,24.925C 347.05,662.925, 358.225,674.075, 371.975,674.075zM 597.775,599.35l0.00-247.525 c0.00,0.00, 21.50,23.725, 49.80,35.10L 647.575,624.25 
		c0.00,27.525-23.875,49.825-51.375,49.825l-123.025,0.00 L 473.175,624.25 l 99.65,0.00 C 586.60,624.25, 597.775,613.10, 597.775,599.35zM 320.575-0.15L 172.65-0.15 c-13.75,0.00-24.90,11.125-24.90,24.90L 147.75,599.35 
		c0.00,13.75, 11.15,24.90, 24.90,24.90l 101.225,0.00 L 273.875,674.075 L 147.75,674.075 c-27.525,0.00-49.825-22.325-49.825-49.825l0.00-624.40 C 97.925-27.675, 120.225-50.00, 147.75-50.00l 227.025,0.00 
		C 365.025-33.55, 347.60-14.55, 320.575-0.15zM 597.775,24.75c0.00-13.775-11.175-24.90-24.925-24.90l-68.225,0.00 
		c-12.55-16.80-24.375-33.50-35.25-49.85l 126.85,0.00 c 27.50,0.00, 51.375,22.325, 51.375,49.85l0.00,153.225 c-16.50-13.575-33.20-28.90-49.80-45.75L 597.80,24.75 zM 702.075,226.85c-28.075,62.40-12.00,113.075-8.00,171.575
		c-164.475-81.875-268.775-327.575-268.775-327.575l-64.175,120.90l-132.375-77.975c 56.175-19.475, 136.40-81.875, 204.60-163.775
		C 481.45,35.80, 629.875,211.225, 702.075,226.85z" />
<glyph unicode="&#x4a;" d="M 600.00-51.025L 150.00-51.025 c-27.625,0.00-50.00,22.325-50.00,49.90L 100.00,601.30 c0.00,27.55, 22.375,49.875, 50.00,49.875l 125.00,0.00 l0.00-51.975 
	L 175.00,599.20 c-13.80,0.00-25.00-11.15-25.00-24.95l0.00-550.425 c0.00-13.825, 11.20-24.95, 25.00-24.95l 400.00,0.00 c 13.825,0.00, 25.00,11.125, 25.00,24.95L 600.00,574.25 c0.00,13.80-11.175,24.95-25.00,24.95l-100.00,0.00 
	L 475.00,651.175 l 125.00,0.00 c 27.60,0.00, 50.00-22.35, 50.00-49.875l0.00-602.425 C 650.00-28.70, 627.60-51.025, 600.00-51.025z M 275.00,449.525l 275.00,0.00 l0.00-24.95 L 275.00,424.575 L 275.00,449.525 z M 275.00,374.675l 275.00,0.00 l0.00-24.95 
	L 275.00,349.725 L 275.00,374.675 z M 275.00,299.80l 275.00,0.00 l0.00-24.95 L 275.00,274.85 L 275.00,299.80 z M 275.00,224.95l 275.00,0.00 L 550.00,200.00 L 275.00,200.00 L 275.00,224.95 z M 550.00,50.35L 275.00,50.35 L 275.00,75.25 l 275.00,0.00 L 550.00,50.35 z M 275.00,150.10l 275.00,0.00 l0.00-24.95 L 275.00,125.15 
	L 275.00,150.10 z M 200.00,450.025l 25.00,0.00 l0.00-24.95 L 200.00,425.075 L 200.00,450.025 z M 200.00,375.175l 25.00,0.00 l0.00-24.95 L 200.00,350.225 L 200.00,375.175 z M 200.00,300.35l 25.00,0.00 l0.00-24.95 L 200.00,275.40 L 200.00,300.35 z M 200.00,225.50l 25.00,0.00 l0.00-24.95 L 200.00,200.55 L 200.00,225.50 z
	 M 225.00,50.825L 200.00,50.825 l0.00,24.95 l 25.00,0.00 L 225.00,50.825 z M 200.00,150.625l 25.00,0.00 l0.00-24.95 L 200.00,125.675 L 200.00,150.625 z M 525.00,572.725c 13.825,0.00, 25.00-11.175, 25.00-24.975c0.00-13.775,0.00-48.325,0.00-48.325L 200.00,499.425 
	c0.00,0.00,0.00,34.55,0.00,48.325c0.00,13.80, 11.175,24.975, 25.00,24.975l 75.00,0.00 c0.00,0.00, 0.30,35.475, 0.30,76.025c0.00,42.10, 32.50,77.30, 74.70,77.30
	s 75.825-37.00, 75.825-77.55C 450.825,604.825, 450.00,572.725, 450.00,572.725L 525.00,572.725 z M 375.00,651.175c-13.825,0.00-25.00-11.15-25.00-24.925c0.00-13.80, 11.175-24.95, 25.00-24.95
	s 25.00,11.15, 25.00,24.95C 400.00,640.025, 388.825,651.175, 375.00,651.175z" />
<glyph unicode="&#x4b;" d="M 212.50,625.00l-75.00,0.00 C 130.60,625.00, 125.00,619.40, 125.00,612.50l0.00-75.00 C 125.00,530.60, 130.60,525.00, 137.50,525.00C 144.40,525.00, 150.00,530.60, 150.00,537.50
			L 150.00,600.00 l 62.50,0.00 C 219.40,600.00, 225.00,605.60, 225.00,612.50S 219.40,625.00, 212.50,625.00z M 287.50,600.00l 75.00,0.00 C 369.375,600.00, 375.00,605.60, 375.00,612.50S 369.375,625.00, 362.50,625.00l-75.00,0.00 C 280.60,625.00, 275.00,619.40, 275.00,612.50
			S 280.60,600.00, 287.50,600.00z M 512.50,625.00l-75.00,0.00 C 430.60,625.00, 425.00,619.40, 425.00,612.50S 430.60,600.00, 437.50,600.00l 75.00,0.00 C 519.375,600.00, 525.00,605.60, 525.00,612.50S 519.375,625.00, 512.50,625.00z M 662.50,625.00l-75.00,0.00 
			C 580.60,625.00, 575.00,619.40, 575.00,612.50S 580.60,600.00, 587.50,600.00L 650.00,600.00 l0.00-62.50 C 650.00,530.60, 655.60,525.00, 662.50,525.00C 669.375,525.00, 675.00,530.60, 675.00,537.50l0.00,75.00 
			C 675.00,619.40, 669.375,625.00, 662.50,625.00z M 662.50,475.00c-6.90,0.00-12.50-5.60-12.50-12.50l0.00-75.00 c0.00-6.90, 5.60-12.50, 12.50-12.50c 6.875,0.00, 12.50,5.60, 12.50,12.50l0.00,75.00 
			C 675.00,469.40, 669.375,475.00, 662.50,475.00z M 662.50,325.00c-6.90,0.00-12.50-5.60-12.50-12.50l0.00-75.00 c0.00-6.90, 5.60-12.50, 12.50-12.50c 6.875,0.00, 12.50,5.60, 12.50,12.50l0.00,75.00 
			C 675.00,319.40, 669.375,325.00, 662.50,325.00z M 662.50,175.00c-6.90,0.00-12.50-5.60-12.50-12.50L 650.00,100.00 l-62.50,0.00 c-6.90,0.00-12.50-5.60-12.50-12.50s 5.60-12.50, 12.50-12.50l 75.00,0.00 
			c 6.875,0.00, 12.50,5.60, 12.50,12.50l0.00,75.00 C 675.00,169.40, 669.375,175.00, 662.50,175.00z M 512.50,100.00l-75.00,0.00 c-6.90,0.00-12.50-5.60-12.50-12.50s 5.60-12.50, 12.50-12.50l 75.00,0.00 
			c 6.875,0.00, 12.50,5.60, 12.50,12.50S 519.375,100.00, 512.50,100.00z M 362.50,100.00l-75.00,0.00 c-6.90,0.00-12.50-5.60-12.50-12.50s 5.60-12.50, 12.50-12.50l 75.00,0.00 
			c 6.875,0.00, 12.50,5.60, 12.50,12.50S 369.375,100.00, 362.50,100.00z M 212.50,100.00L 150.00,100.00 l0.00,62.50 C 150.00,169.40, 144.40,175.00, 137.50,175.00C 130.60,175.00, 125.00,169.40, 125.00,162.50l0.00-75.00 
			C 125.00,80.60, 130.60,75.00, 137.50,75.00l 75.00,0.00 C 219.40,75.00, 225.00,80.60, 225.00,87.50S 219.40,100.00, 212.50,100.00z M 137.50,225.00C 144.40,225.00, 150.00,230.60, 150.00,237.50l0.00,75.00 
			C 150.00,319.40, 144.40,325.00, 137.50,325.00C 130.60,325.00, 125.00,319.40, 125.00,312.50l0.00-75.00 C 125.00,230.60, 130.60,225.00, 137.50,225.00z M 137.50,375.00C 144.40,375.00, 150.00,380.60, 150.00,387.50l0.00,75.00 
			C 150.00,469.40, 144.40,475.00, 137.50,475.00C 130.60,475.00, 125.00,469.40, 125.00,462.50l0.00-75.00 C 125.00,380.60, 130.60,375.00, 137.50,375.00z M 298.45,325.00l 200.00,0.00 c 13.825,0.00, 25.00,11.20, 25.00,25.00
			c0.00,13.825-11.175,25.00-25.00,25.00l-200.00,0.00 c-13.825,0.00-25.00-11.175-25.00-25.00C 273.45,336.20, 284.625,325.00, 298.45,325.00z" />
<glyph unicode="&#x4c;" d="M 662.50,75.00l-75.00,0.00 c-6.90,0.00-12.50,5.60-12.50,12.50s 5.60,12.50, 12.50,12.50L 650.00,100.00 l0.00,62.50 
	c0.00,6.90, 5.60,12.50, 12.50,12.50c 6.875,0.00, 12.50-5.60, 12.50-12.50l0.00-75.00 C 675.00,80.60, 669.375,75.00, 662.50,75.00z M 662.50,225.00c-6.90,0.00-12.50,5.60-12.50,12.50l0.00,75.00 
	c0.00,6.90, 5.60,12.50, 12.50,12.50c 6.875,0.00, 12.50-5.60, 12.50-12.50l0.00-75.00 C 675.00,230.60, 669.375,225.00, 662.50,225.00z M 662.50,375.00c-6.90,0.00-12.50,5.60-12.50,12.50l0.00,75.00 
	c0.00,6.90, 5.60,12.50, 12.50,12.50c 6.875,0.00, 12.50-5.60, 12.50-12.50l0.00-75.00 C 675.00,380.60, 669.375,375.00, 662.50,375.00z M 662.50,525.00C 655.60,525.00, 650.00,530.60, 650.00,537.50L 650.00,600.00 l-62.50,0.00 
	C 580.60,600.00, 575.00,605.60, 575.00,612.50S 580.60,625.00, 587.50,625.00l 75.00,0.00 C 669.375,625.00, 675.00,619.40, 675.00,612.50l0.00-75.00 C 675.00,530.60, 669.375,525.00, 662.50,525.00z M 512.50,75.00l-75.00,0.00 
	c-6.90,0.00-12.50,5.60-12.50,12.50s 5.60,12.50, 12.50,12.50l 75.00,0.00 c 6.875,0.00, 12.50-5.60, 12.50-12.50S 519.375,75.00, 512.50,75.00z M 512.50,600.00l-75.00,0.00 
	C 430.60,600.00, 425.00,605.60, 425.00,612.50S 430.60,625.00, 437.50,625.00l 75.00,0.00 C 519.375,625.00, 525.00,619.40, 525.00,612.50S 519.375,600.00, 512.50,600.00z M 498.45,375.00c 13.80,0.00, 25.00-11.175, 25.00-25.00
	c0.00-13.80-11.20-25.00-25.00-25.00l-75.00,0.00 l0.00-75.00 c0.00-13.80-11.20-25.00-25.00-25.00c-13.825,0.00-25.00,11.20-25.00,25.00l0.00,75.00 l-75.00,0.00 c-13.80,0.00-25.00,11.20-25.00,25.00c0.00,13.825, 11.175,25.00, 25.00,25.00l 75.00,0.00 l0.00,75.00 
	c0.00,13.825, 11.175,25.00, 25.00,25.00c 13.80,0.00, 25.00-11.175, 25.00-25.00l0.00-75.00 L 498.45,375.00 z M 362.50,600.00l-75.00,0.00 C 280.60,600.00, 275.00,605.60, 275.00,612.50S 280.60,625.00, 287.50,625.00l 75.00,0.00 
	C 369.375,625.00, 375.00,619.40, 375.00,612.50S 369.375,600.00, 362.50,600.00z M 212.50,75.00l-75.00,0.00 C 130.60,75.00, 125.00,80.60, 125.00,87.50l0.00,75.00 C 125.00,169.40, 130.60,175.00, 137.50,175.00
	C 144.40,175.00, 150.00,169.40, 150.00,162.50L 150.00,100.00 l 62.50,0.00 C 219.40,100.00, 225.00,94.40, 225.00,87.50S 219.40,75.00, 212.50,75.00z M 212.50,600.00L 150.00,600.00 l0.00-62.50 C 150.00,530.60, 144.40,525.00, 137.50,525.00
	C 130.60,525.00, 125.00,530.60, 125.00,537.50l0.00,75.00 C 125.00,619.40, 130.60,625.00, 137.50,625.00l 75.00,0.00 C 219.40,625.00, 225.00,619.40, 225.00,612.50S 219.40,600.00, 212.50,600.00z M 137.50,475.00C 144.40,475.00, 150.00,469.40, 150.00,462.50l0.00-75.00 
	C 150.00,380.60, 144.40,375.00, 137.50,375.00C 130.60,375.00, 125.00,380.60, 125.00,387.50l0.00,75.00 C 125.00,469.40, 130.60,475.00, 137.50,475.00z M 137.50,325.00C 144.40,325.00, 150.00,319.40, 150.00,312.50l0.00-75.00 
	C 150.00,230.60, 144.40,225.00, 137.50,225.00C 130.60,225.00, 125.00,230.60, 125.00,237.50l0.00,75.00 C 125.00,319.40, 130.60,325.00, 137.50,325.00z M 287.50,100.00l 75.00,0.00 c 6.875,0.00, 12.50-5.60, 12.50-12.50
	S 369.375,75.00, 362.50,75.00l-75.00,0.00 c-6.90,0.00-12.50,5.60-12.50,12.50S 280.60,100.00, 287.50,100.00z" />
<glyph unicode="&#x4d;" d="M 345.40,600.275L 150.775,599.125l 0.075-193.375l 64.75,64.775l 86.35-86.35l 66.625,66.625
			L 282.25,537.15L 345.40,600.275z M 301.975,316.25l-86.35-86.375l-64.75,64.80l-0.075-194.975l 194.625,0.45l-63.15,63.125l 86.35,86.325
			L 301.975,316.25z M 498.05,384.175l 86.325,86.35l 64.75-64.775l 0.10,193.375l-194.625,1.15l 63.15-63.125l-86.35-86.35L 498.05,384.175z
			 M 584.375,229.875l-86.325,86.375l-66.65-66.65l 86.35-86.325l-63.15-63.125l 194.625-0.45l-0.10,194.975L 584.375,229.875z" />
<glyph unicode="&#x4e;" d="M 287.325,531.075L 200.975,617.40L 134.35,550.775l 86.35-86.325l-64.75-64.75l 194.925-0.10
			l-0.425,194.60L 287.325,531.075z M 579.30,464.45l 86.35,86.325l-66.625,66.625l-86.35-86.325l-63.125,63.125l-0.425-194.60l 194.925,0.10
			L 579.30,464.45z M 220.70,235.55l-86.35-86.325l 66.625-66.625l 86.35,86.325l 63.15-63.125l 0.425,194.60l-194.925-0.10L 220.70,235.55z
			 M 644.05,300.30l-194.925,0.10l 0.425-194.60l 63.125,63.125l 86.35-86.325l 66.625,66.625l-86.35,86.325L 644.05,300.30z" />
<glyph unicode="&#x4f;" d="M 392.35,411.475l 66.65-66.625l 125.40,125.425l 64.75-64.75l 0.10,193.35l-194.625,1.15
			l 63.15-63.125L 392.35,411.475z M 648.15,326.375l-48.00,48.675l 0.875-225.175L 200.65,149.65L 201.05,548.975L 425.00,549.975l-50.00,50.00L 200.00,599.975 
			c-27.60,0.00-50.00-22.40-50.00-50.00l0.00-400.00 c0.00-27.60, 22.40-50.00, 50.00-50.00l 400.00,0.00 c 27.60,0.00, 50.00,22.40, 50.00,50.00L 648.15,326.375z" />
<glyph unicode="&#x50;" d="M 375.00,326.85l 194.60-1.15l-63.125,63.125l 125.425,125.425l-66.65,66.625l-125.40-125.425
			l-64.75,64.775L 375.00,326.85z M 648.15,326.40l-48.00,48.675l 0.875-225.175L 200.65,149.675L 201.05,549.025L 425.00,550.00l-50.00,50.00L 200.00,600.00 C 172.40,600.00, 150.00,577.60, 150.00,550.00l0.00-400.00 
			c0.00-27.60, 22.40-50.00, 50.00-50.00l 400.00,0.00 c 27.60,0.00, 50.00,22.40, 50.00,50.00L 648.15,326.40z" />
<glyph unicode="&#x51;" d="M 703.05,660.40l-53.675-47.45l-32.575-0.50l-68.25-71.375
	c 44.00-46.75, 71.15-109.575, 71.15-178.85c0.00-144.325-117.025-261.375-261.375-261.375c-144.325,0.00-261.35,117.05-261.35,261.375
	c0.00,144.35, 117.025,261.375, 261.35,261.375c 66.125,0.00, 126.325-24.725, 172.35-65.20l 65.875,65.875l 0.05,29.025l 50.55,58.375l-0.05-51.975
	L 703.05,660.40z M 522.125,514.65l-66.45-66.475c 22.50-24.425, 36.575-56.75, 36.575-92.575c0.00-75.625-61.275-136.90-136.90-136.90
	s-136.925,61.275-136.925,136.90c0.00,75.60, 61.30,136.925, 136.925,136.925c 30.775,0.00, 58.875-10.525, 81.775-27.675l 67.15,67.15
	c-39.225,33.75-90.125,54.275-145.95,54.275c-123.725,0.00-224.025-100.325-224.025-224.05c0.00-123.725, 100.30-224.00, 224.025-224.00s 224.025,100.30, 224.025,224.00
	C 582.325,421.175, 559.375,474.65, 522.125,514.65z M 354.30,316.20c-20.60,0.00-37.325,16.70-37.325,37.325c0.00,20.625, 16.725,37.35, 37.325,37.35
	c 2.60,0.00, 4.90-0.975, 7.375-1.50l 57.825,57.825c-18.20,12.775-40.225,20.40-64.15,20.40c-61.875,0.00-112.00-50.175-112.00-112.025
	c0.00-61.85, 50.15-112.00, 112.00-112.00s 112.00,50.15, 112.00,112.00c0.00,28.95-11.275,55.075-29.325,74.975l-54.625-54.65
	c 4.825-6.30, 8.225-13.85, 8.225-22.40C 391.65,332.90, 374.925,316.20, 354.30,316.20z M 246.375,81.30
	c 7.425-3.75, 15.05-7.125, 22.875-10.15l-44.20-76.55c-3.45-5.95-11.05-7.95-17.025-4.55c-5.925,3.425-7.975,11.025-4.55,17.00
	L 246.375,81.30z M 371.40,61.725l0.00-34.875 c0.00-6.875-5.60-12.45-12.45-12.45c-6.875,0.00-12.45,5.575-12.45,12.45l0.00,34.875 
	c 4.15-0.20, 8.25-0.625, 12.45-0.625S 367.25,61.525, 371.40,61.725z M 523.775,7.025c 3.425-5.95, 1.40-13.575-4.575-17.00
	s-13.55-1.425-17.025,4.55l-44.175,76.55c 7.80,3.025, 15.45,6.40, 22.875,10.15L 523.775,7.025z" />
<glyph unicode="&#x52;" d="M 632.675,445.125c-6.20,0.00-11.925,1.60-17.20,4.10l-56.775-98.375l 57.15-99.025
	c 4.70,1.90, 9.775,3.05, 15.125,3.05c 22.50,0.00, 40.75-18.225, 40.75-40.75s-18.225-40.775-40.75-40.775c-22.525,0.00-40.775,16.70-40.775,39.20
	c0.00,0.375, 0.225,1.025, 0.225,1.025l-110.10,0.00 l-59.325-101.25c 11.625-7.175, 19.775-19.425, 19.775-34.075c0.00-22.50-18.25-40.775-40.775-40.775
	s-40.75,18.25-40.75,40.775c0.00,15.725, 9.175,28.925, 22.20,35.75l-58.375,99.575L 207.875,213.575 c0.00-0.375, 0.20-0.65, 0.20-1.025
	c0.00-22.50-18.25-39.20-40.75-39.20s-40.75,18.25-40.75,40.775s 18.25,40.75, 40.75,40.75c 6.95,0.00, 13.20-2.20, 18.95-5.275l 58.45,101.25l-57.75,100.00
	c-5.90-3.325-12.375-5.725-19.65-5.725c-22.50,0.00-40.75,18.225-40.75,40.75s 18.25,40.775, 40.75,40.775c 22.275,0.00, 40.225-17.90, 40.625-40.10l 115.10,0.00 
	l 57.675,99.925c-12.60,6.90-21.50,19.85-21.50,35.25C 359.25,644.275, 377.50,662.50, 400.00,662.50s 40.775-18.225, 40.775-40.775
	c0.00-14.325-7.85-26.35-19.10-33.625l 58.65-101.55l 111.725,0.00 c 0.40,22.20, 18.35,40.10, 40.625,40.10c 22.50,0.00, 40.775-18.25, 40.775-40.775
	S 655.175,445.125, 632.675,445.125z M 400.00,460.40c-60.025,0.00-108.70-48.65-108.70-108.70S 339.975,243.00, 400.00,243.00c 60.00,0.00, 108.70,48.675, 108.70,108.725
	S 460.00,460.40, 400.00,460.40z M 400.00,265.10c-47.85,0.00-86.625,38.775-86.625,86.625c0.00,47.825, 38.775,86.60, 86.625,86.60
	c 47.825,0.00, 86.625-38.775, 86.625-86.60C 486.625,303.85, 447.825,265.10, 400.00,265.10z" />
<glyph unicode="&#x53;" d="M 613.80,404.70l-159.10,159.10c-9.75,9.775-9.75,25.575,0.00,35.35
	c 9.775,9.775, 25.60,9.775, 35.375,0.00l 17.675-17.675l 79.575,79.55c 34.15,34.175, 89.55,34.175, 123.725,0.00c 34.175-34.15, 34.175-89.575,0.00-123.725
	l-79.55-79.575l 17.675-17.675c 9.775-9.775, 9.775-25.575,0.00-35.35S 623.55,394.925, 613.80,404.70z M 240.05,66.30
	c-15.475-15.475-54.125,16.55-70.70,0.00l-42.00-42.00c-14.625-14.65-38.375-14.65-53.025,0.00s-14.65,38.375,0.00,53.025l 42.00,42.00
	c 16.575,16.55-15.475,55.225,0.00,70.70C 131.775,205.525, 454.40,528.125, 454.40,528.125l 123.725-123.75C 578.125,404.375, 255.525,81.775, 240.05,66.30z
	 M 542.775,404.375l-88.375,88.40c0.00,0.00-287.275-287.275-302.725-302.75c-15.475-15.475, 15.475-55.225,0.00-70.70L 92.00,59.675
	c-4.875-4.875-4.875-12.80,0.00-17.675s 12.80-4.875, 17.675,0.00l 59.675,59.675c 15.475,15.475, 55.225-15.475, 70.70,0.00
	C 255.525,117.15, 542.775,404.375, 542.775,404.375z" />
<glyph unicode="&#x54;" d="M 387.50-26.55c-172.60,0.00-312.50,139.925-312.50,312.50c0.00,132.875, 83.075,246.10, 200.00,291.275l0.00-111.225 
	c-59.975-37.575-100.00-104.05-100.00-180.05c0.00-117.35, 95.15-212.50, 212.50-212.50s 212.50,95.15, 212.50,212.50c0.00,64.90-29.15,122.875-75.00,161.875L 525.00,566.225 
	c 103.575-50.90, 175.00-157.10, 175.00-280.30C 700.00,113.35, 560.075-26.55, 387.50-26.55z M 400.00,323.45c-27.60,0.00-50.00,22.40-50.00,50.00L 350.00,651.55 c0.00,27.60, 22.40,50.00, 50.00,50.00
	s 50.00-22.40, 50.00-50.00l0.00-278.125 C 450.00,345.825, 427.60,323.45, 400.00,323.45z" />
<glyph unicode="&#x55;" d="M 650.00-50.00L 150.00-50.00 c-27.625,0.00-50.00,22.35-50.00,49.90L 100.00,625.25 c0.00,27.575, 22.375,49.90, 50.00,49.90l 150.00,0.00 L 300.00,625.25 L 175.00,625.25 
	c-13.80,0.00-25.00-11.15-25.00-24.95l0.00-575.45 c0.00-13.775, 11.20-24.95, 25.00-24.95l 450.00,0.00 c 13.825,0.00, 25.00,11.175, 25.00,24.95L 650.00,600.30 c0.00,13.80-11.175,24.95-25.00,24.95l-125.00,0.00 
	L 500.00,675.15 l 150.00,0.00 c 27.60,0.00, 50.00-22.35, 50.00-49.90l0.00-625.35 C 700.00-27.65, 677.60-50.00, 650.00-50.00z M 625.00,600.30l0.00-575.45 L 175.00,24.85 L 175.00,600.30 l 25.00,0.00 l0.00-101.375 l 400.00,0.00 L 600.00,600.30 L 625.00,600.30 z M 275.00,424.075l-25.00,0.00 
	l0.00-24.95 l 25.00,0.00 L 275.00,424.075 z M 275.00,374.175l-25.00,0.00 l0.00-24.95 l 25.00,0.00 L 275.00,374.175 z M 275.00,324.275l-25.00,0.00 l0.00-24.95 l 25.00,0.00 L 275.00,324.275 z M 275.00,274.375l-25.00,0.00 l0.00-24.95 l 25.00,0.00 L 275.00,274.375 z M 275.00,224.475l-25.00,0.00 l0.00-24.95 
	l 25.00,0.00 L 275.00,224.475 z M 275.00,174.55l-25.00,0.00 l0.00-24.95 l 25.00,0.00 L 275.00,174.55 z M 275.00,124.65l-25.00,0.00 l0.00-24.95 l 25.00,0.00 L 275.00,124.65 z M 550.00,424.075L 300.00,424.075 l0.00-24.95 l 250.00,0.00 L 550.00,424.075 z M 550.00,374.175L 300.00,374.175 l0.00-24.95 l 250.00,0.00 
	L 550.00,374.175 z M 550.00,324.275L 300.00,324.275 l0.00-24.95 l 250.00,0.00 L 550.00,324.275 z M 550.00,274.375L 300.00,274.375 l0.00-24.95 l 250.00,0.00 L 550.00,274.375 z M 550.00,224.475L 300.00,224.475 l0.00-24.95 l 250.00,0.00 L 550.00,224.475 z M 550.00,174.55L 300.00,174.55 l0.00-24.95 l 250.00,0.00 
	L 550.00,174.55 z M 550.00,124.65L 300.00,124.65 l0.00-24.95 l 250.00,0.00 L 550.00,124.65 z M 550.00,600.30c 13.825,0.00, 25.00-11.15, 25.00-24.95c0.00-13.775,0.00-49.90,0.00-49.90L 225.00,525.45 c0.00,0.00,0.00,36.125,0.00,49.90
	c0.00,13.80, 11.175,24.95, 25.00,24.95l 75.00,0.00 c0.00,0.00, 0.30,31.85, 0.30,72.40C 325.30,714.80, 357.80,750.00, 400.00,750.00s 75.825-37.00, 75.825-77.575
	C 475.825,628.775, 475.00,600.30, 475.00,600.30L 550.00,600.30 z M 400.00,675.15c-13.825,0.00-25.00-11.15-25.00-24.95c0.00-13.775, 11.175-24.95, 25.00-24.95s 25.00,11.175, 25.00,24.95
	C 425.00,664.00, 413.825,675.15, 400.00,675.15z" />
<glyph unicode="&#x56;" d="M 617.175,349.075c 57.325-61.825, 83.00-122.65, 60.725-161.65
	c-22.225-38.90-87.025-46.925-168.45-27.85c-24.375-81.475-63.85-134.675-108.525-134.675c-44.725,0.00-84.175,53.375-108.50,135.075
	c-82.325-19.625-147.90-11.75-170.30,27.45c-22.275,39.00, 3.425,99.90, 60.75,161.80c-58.425,62.40-84.725,124.00-62.25,163.30
	c 22.50,39.40, 88.70,47.175, 171.60,27.175c 24.35,81.875, 63.95,135.40, 108.725,135.40c 44.75,0.00, 84.225-53.35, 108.55-135.025
	c 82.125,19.50, 147.60,11.60, 169.975-27.55C 701.875,473.20, 675.55,411.55, 617.175,349.075z M 143.80,498.975
	c-17.20-30.10, 6.525-79.45, 56.75-131.625c 20.475,19.975, 44.05,39.80, 70.30,58.85c 3.20,31.65, 8.075,61.675, 14.75,89.00
	C 215.425,533.225, 161.075,529.20, 143.80,498.975z M 268.025,390.975c-18.00-13.70-34.425-27.60-49.15-41.475c 14.925-13.95, 31.025-27.95, 49.25-41.75
	c-0.75,13.875-1.275,27.90-1.275,42.25C 266.85,363.90, 267.30,377.55, 268.025,390.975z M 270.825,272.65
	c-26.275,18.975-49.775,38.75-70.325,58.65c-49.325-51.70-72.225-100.475-55.175-130.325c 17.175-30.025, 70.95-34.20, 140.50-16.55
	C 279.15,211.60, 274.00,241.15, 270.825,272.65z M 502.225,254.125c-11.15-7.325-22.55-14.525-34.425-21.45
	c-12.05-7.025-24.10-13.475-36.10-19.625c 20.575-8.75, 40.70-16.375, 59.80-22.225C 495.975,210.425, 499.45,231.80, 502.225,254.125z
	 M 400.90,52.00c 34.225,0.00, 64.60,44.625, 84.25,113.925c-27.125,7.80-55.775,18.65-84.975,31.85c-28.675-13.025-56.725-23.50-83.425-31.325
	C 336.35,96.975, 366.675,52.00, 400.90,52.00z M 310.575,191.45c 18.55,5.775, 37.95,12.95, 57.90,21.45
	c-12.05,6.175-24.175,12.70-36.275,19.75c-11.225,6.575-22.025,13.325-32.60,20.25C 302.325,230.975, 306.20,210.75, 310.575,191.45z
	 M 299.65,446.10c 11.025,7.225, 22.325,14.325, 34.05,21.20c 11.575,6.775, 23.15,13.00, 34.70,18.95c-20.025,8.55-39.625,16.10-58.275,21.925
	C 305.775,488.925, 302.40,467.95, 299.65,446.10z M 400.90,648.00c-34.325,0.00-64.85-45.05-84.475-114.85c 26.675-7.85, 54.775-18.625, 83.40-31.675
	c 29.30,13.425, 57.95,24.15, 85.225,32.10C 465.45,603.00, 435.15,648.00, 400.90,648.00z M 491.275,508.625c-19.20-5.975-39.25-13.375-59.95-22.275
	c 11.625-5.975, 23.30-12.25, 34.95-19.075c 12.55-7.325, 24.55-14.95, 36.275-22.70C 499.80,467.45, 495.825,488.575, 491.275,508.625z M 506.00,409.90
	c-16.75,11.65-34.45,23.025-53.15,33.90c-17.90,10.45-35.65,19.575-53.20,28.10c-17.325-8.45-34.90-17.825-52.525-28.10
	c-17.825-10.375-34.85-21.225-50.875-32.275c-1.55-19.925-2.60-40.325-2.60-61.55c0.00-21.45, 0.875-42.325, 2.425-62.475
	c 15.675-10.775, 32.225-21.30, 49.525-31.40c 18.40-10.725, 36.65-20.10, 54.70-28.80c 17.825,8.65, 35.925,18.225, 54.05,28.80
	c 17.975,10.475, 35.05,21.375, 51.225,32.55c 1.525,19.85, 2.60,40.175, 2.60,61.325C 508.175,370.525, 507.425,390.55, 506.00,409.90z
	 M 654.675,200.975c 17.05,29.80-6.05,78.50-55.275,130.075c-20.025-19.35-42.95-38.55-68.40-57.025c-3.20-32.05-8.15-62.475-14.95-90.10
	C 584.70,166.80, 637.675,171.225, 654.675,200.975z M 533.825,309.25c 17.225,13.15, 33.025,26.50, 47.275,39.775
	c-14.30,13.50-29.725,27.075-47.175,40.45c 0.625-12.975, 1.075-26.10, 1.075-39.475C 534.975,336.15, 534.525,322.60, 533.825,309.25z
	 M 656.175,498.975c-17.15,29.975-70.75,34.225-140.125,16.65c 6.825-27.95, 12.10-58.475, 15.25-91.025c 25.475-18.625, 48.25-38.00, 68.20-57.475
	C 649.825,419.40, 673.425,468.825, 656.175,498.975z M 405.00,298.45c-29.425,0.00-53.275,24.075-53.275,53.80c0.00,29.70, 23.85,53.80, 53.275,53.80
	c 29.40,0.00, 53.25-24.10, 53.25-53.80C 458.25,322.50, 434.40,298.45, 405.00,298.45z" />
<glyph unicode="&#x57;" d="M 700.00,550.00l0.00-400.00 c0.00-27.60-22.40-50.00-50.00-50.00L 125.00,100.00 c0.00-27.60, 22.40-50.00, 50.00-50.00l 525.00,0.00 c 27.60,0.00, 50.00,22.40, 50.00,50.00L 750.00,500.00 
			C 750.00,527.60, 727.60,550.00, 700.00,550.00z M 675.00,175.00L 675.00,575.00 c0.00,27.60-22.40,50.00-50.00,50.00L 100.00,625.00 C 72.40,625.00, 50.00,602.60, 50.00,575.00l0.00-400.00 c0.00-27.60, 22.40-50.00, 50.00-50.00l 525.00,0.00 
			C 652.60,125.00, 675.00,147.40, 675.00,175.00z M 100.00,575.00l 525.00,0.00 l0.00-400.00 L 100.00,175.00 L 100.00,575.00 z M 390.675,317.225l-74.70,79.525l-74.725-127.60l-56.05,58.575l-60.725-128.225l 476.375,0.00 
			l-107.425,281.125L 390.675,317.225z M 200.00,400.00c 27.60,0.00, 50.00,22.40, 50.00,50.00s-22.40,50.00-50.00,50.00s-50.00-22.40-50.00-50.00S 172.40,400.00, 200.00,400.00z" />
<glyph unicode="&#x58;" d="M 365.275,278.60c-8.65-8.80-13.00-19.55-13.00-32.30c0.00-13.775, 4.925-25.35, 14.75-34.725c 9.075-8.65, 19.975-12.975, 32.725-12.975
	c 13.025,0.00, 24.275,4.70, 33.65,14.15s 14.05,20.70, 14.05,33.75c0.00,12.60-4.55,23.575-13.625,32.95c-9.075,9.525-20.025,14.275-32.775,14.275
	C 386.875,293.75, 374.95,288.70, 365.275,278.60L 365.275,278.60z M 359.775,480.30c-7.475-11.275-11.175-25.275-11.175-41.975
	c0.00-13.625, 2.30-28.65, 6.90-45.05s 10.875-31.775, 18.775-46.15c 10.70-19.475, 19.00-29.225, 24.85-29.225c 6.00,0.00, 13.925,7.625, 23.725,22.85
	c 8.65,13.475, 15.55,28.80, 20.75,46.025s 7.80,33.30, 7.80,48.25c0.00,22.55-6.10,40.00-18.25,52.30C 424.075,496.70, 413.025,501.40, 400.00,501.40
	C 382.425,501.40, 369.00,494.35, 359.775,480.30L 359.775,480.30z" />
<glyph unicode="&#x59;" d="M 151.45,579.125l 17.15-17.15l-70.20-70.20l 54.70-54.70l 70.525,70.525l 16.025-16.025
			l-70.525-70.55l 54.00-53.975l 160.40,160.40L 188.225,721.60L 28.40,561.775L 81.25,508.90L 151.45,579.125z M 577.475,333.525l-160.40-160.425l 53.975-53.975
			l 70.55,70.525l 16.025-16.025l-70.525-70.525l 54.70-54.70l 70.175,70.20l 17.15-17.15l-70.175-70.20l 52.825-52.85l 159.85,159.85L 577.475,333.525z
			 M 745.55,538.725c 19.525,19.55, 19.675,51.125, 0.30,70.525l-87.80,87.775c-19.375,19.375-50.975,19.275-70.50-0.30l-54.25-54.25l 158.00-158.00
			L 745.55,538.725z M 84.95,101.45l 65.575-65.575l 132.10,46.925l-150.75,150.75L 84.95,101.45z M 516.25,626.425L 144.125,254.275l 159.225-159.225
			L 675.50,467.20L 516.25,626.425z M 216.425,254.60L 515.95,554.125l 17.45-17.45L 233.85,237.125L 216.425,254.60z M 251.325,219.675l 299.50,299.525
			l 17.45-17.45L 268.75,202.25L 251.325,219.675z M 286.225,184.80L 585.75,484.325l 17.425-17.45l-299.50-299.525L 286.225,184.80z M 48.85-0.25
			l 76.65,27.925l-48.725,48.725L 48.85-0.25z" />
<glyph unicode="&#x5a;" d="M 272.375,560.65c0.00-188.75, 129.475-341.75, 289.175-341.75c 39.70,0.00, 77.525,9.50, 111.975,26.575
	c-42.375-111.50-149.90-190.90-276.275-190.90c-163.325,0.00-295.75,132.425-295.75,295.75c0.00,120.50, 72.20,223.975, 175.575,270.075
	C 274.175,600.95, 272.375,581.075, 272.375,560.65z" />
<glyph unicode="&#x5b;" d="M 200.775,337.50c0.00-103.575, 83.95-187.50, 187.50-187.50c 103.575,0.00, 187.50,83.925, 187.50,187.50
			S 491.85,525.00, 388.275,525.00C 284.725,525.00, 200.775,441.075, 200.775,337.50z M 388.275,656.25l-52.725-105.475l 105.475,0.00 L 388.275,656.25z M 613.575,563.575l-111.875-37.275
			l 74.55-74.575L 613.575,563.575z M 274.85,526.30L 163.00,563.575l 37.275-111.875L 274.85,526.30z M 174.225,391.025L 68.75,338.275l 105.475-52.725L 174.225,391.025 z
			 M 600.775,283.975l 105.475,52.725l-105.475,52.725L 600.775,283.975 z M 388.275,18.75l 52.725,105.475l-105.475,0.00 L 388.275,18.75z M 501.70,148.70l 111.875-37.275
			l-37.30,111.875L 501.70,148.70z M 163.00,111.425l 111.875,37.275l-74.575,74.575L 163.00,111.425z" />
<glyph unicode="&#x5c;" d="M 616.325,478.35c0.00,0.00, 11.975,161.10-135.65,179.50
			c-126.55,12.925-165.05-104.675-165.05-104.675s-38.075,36.65-89.80,6.725c-46.275-28.575-38.075-80.85-38.075-80.85S 85.00,459.05, 85.00,354.30
			c 2.825-106.45, 110.925-103.775, 110.925-103.775l 114.575,0.775l 54.85,125.45l 159.875-3.125l-71.10-122.875l 146.15-1.275c0.00,0.00, 96.775-1.15, 114.40,98.55
			C 721.45,456.875, 616.325,478.35, 616.325,478.35z M 484.85,351.25l-103.075,0.00 l-65.80-150.425l 94.30,0.00 l-76.775-169.80l 166.675,195.825l-87.70,0.00 
			L 484.85,351.25z" />
<glyph unicode="&#x5d;" d="M 616.325,470.20c0.00,0.00, 11.975,161.10-135.65,179.50c-126.55,12.925-165.05-104.675-165.05-104.675s-38.075,36.65-89.80,6.725
			c-46.275-28.575-38.075-80.85-38.075-80.85S 85.00,450.90, 85.00,346.15c 2.30-104.65, 111.60-105.70, 111.60-105.70l 402.05,0.00 
			c0.00,0.00, 101.70-0.10, 116.025,99.425C 721.45,448.725, 616.325,470.20, 616.325,470.20z M 243.90,176.325c-4.475,8.85-8.475,20.775-11.975,35.725
			c-3.45-14.95-7.425-26.85-11.90-35.725c-9.40-18.675-24.425-33.20-24.425-33.20c-11.975-13.325-17.95-26.675-17.95-40.025
			c0.00-14.75, 5.35-27.375, 16.025-37.95c 10.675-10.55, 23.425-15.825, 38.225-15.825c 14.90,0.00, 27.65,5.275, 38.325,15.825
			c 10.70,10.575, 16.025,23.20, 16.025,37.95c0.00,13.325-5.975,26.675-17.925,40.025C 268.325,143.125, 253.325,157.65, 243.90,176.325z M 418.90,176.325
			c-4.475,8.85-8.475,20.775-11.975,35.725c-3.475-14.95-7.425-26.85-11.90-35.725c-9.40-18.675-24.45-33.20-24.45-33.20
			c-11.95-13.325-17.925-26.675-17.925-40.025c0.00-14.75, 5.325-27.375, 16.025-37.95c 10.65-10.55, 23.40-15.825, 38.225-15.825
			c 14.90,0.00, 27.65,5.275, 38.325,15.825c 10.70,10.575, 16.025,23.20, 16.025,37.95c0.00,13.325-5.975,26.675-17.95,40.025
			C 443.30,143.125, 428.30,157.65, 418.90,176.325z M 593.90,176.325c-4.475,8.85-8.475,20.775-11.975,35.725
			c-3.475-14.95-7.425-26.85-11.90-35.725c-9.425-18.675-24.45-33.20-24.45-33.20c-11.95-13.325-17.925-26.675-17.925-40.025
			c0.00-14.75, 5.325-27.375, 16.025-37.95c 10.65-10.55, 23.40-15.825, 38.225-15.825c 14.90,0.00, 27.65,5.275, 38.325,15.825
			c 10.70,10.575, 16.025,23.20, 16.025,37.95c0.00,13.325-5.975,26.675-17.925,40.025C 618.325,143.125, 603.30,157.65, 593.90,176.325z" />
<glyph unicode="&#x5e;" d="M0.00,125.00L0.00,575.00 l 800.00,0.00 l0.00-450.00 L0.00,125.00 z M 50.00,526.55L 50.00,175.00 l 700.00,0.00 L 750.00,526.55 L 50.00,526.55 z M 525.00,350.00c0.00,82.825-55.95,150.00-125.00,150.00l 325.00,0.00 l0.00-300.00 L 400.00,200.00 
	C 469.05,200.00, 525.00,267.175, 525.00,350.00z M 625.00,300.00c 20.70,0.00, 37.50,22.40, 37.50,50.00s-16.80,50.00-37.50,50.00s-37.50-22.40-37.50-50.00S 604.30,300.00, 625.00,300.00z M 452.95,413.05
	c-0.375-1.375-0.90-2.35-1.55-2.975c-0.675-0.625-1.575-0.925-2.725-0.925s-2.95,0.70-5.475,2.15
	c-2.50,1.475-5.575,3.025-9.20,4.725c-3.65,1.70-7.85,3.25-12.65,4.675c-4.80,1.40-10.05,2.075-15.775,2.075
	c-4.50,0.00-8.40-0.525-11.725-1.625c-3.325-1.075-6.125-2.60-8.35-4.50c-2.25-1.925-3.90-4.25-5.00-6.925
	c-1.075-2.675-1.625-5.55-1.625-8.55c0.00-4.50, 1.225-8.375, 3.675-11.65c 2.45-3.275, 5.725-6.20, 9.85-8.75
	c 4.125-2.575, 8.775-4.95, 14.00-7.175c 5.175-2.25, 10.50-4.625, 15.925-7.10c 5.425-2.525, 10.725-5.35, 15.925-8.525
	c 5.225-3.175, 9.875-6.975, 13.925-11.40s 7.325-9.625, 9.85-15.60c 2.50-6.00, 3.725-13.025, 3.725-21.175c0.00-10.625-1.95-19.925-5.90-27.95
	c-3.975-8.00-9.325-14.70-16.125-20.05c-6.775-5.375-14.675-9.40-23.725-12.10c-1.15-0.35-2.40-0.50-3.575-0.775l0.00-27.30 l-24.575,0.00 
	l0.00,24.075 c-0.325,0.00-0.60-0.05-0.90-0.05c-6.975,0.00-13.475,0.55-19.45,1.675c-6.00,1.15-11.275,2.525-15.85,4.10
	c-4.60,1.60-8.40,3.275-11.475,5.025c-3.075,1.75-5.275,3.30-6.625,4.65c-1.35,1.35-2.325,3.30-2.90,5.85
	c-0.575,2.575-0.875,6.225-0.875,11.025c0.00,3.225, 0.10,5.925, 0.325,8.125s 0.55,3.95, 1.025,5.325s 1.075,2.325, 1.875,2.90
	c 0.775,0.55, 1.675,0.85, 2.725,0.85c 1.45,0.00, 3.50-0.85, 6.175-2.575c 2.65-1.725, 6.075-3.625, 10.225-5.70
	c 4.175-2.10, 9.125-3.975, 14.925-5.725c 5.775-1.70, 12.475-2.575, 20.075-2.575c 5.00,0.00, 9.475,0.60, 13.425,1.80s 7.325,2.875, 10.075,5.075
	s 4.85,4.90, 6.325,8.125c 1.475,3.25, 2.20,6.825, 2.20,10.825c0.00,4.575-1.275,8.50-3.75,11.80c-2.50,3.275-5.75,6.175-9.775,8.75
	c-4.00,2.55-8.55,4.925-13.65,7.175c-5.10,2.25-10.35,4.625-15.775,7.10c-5.40,2.50-10.675,5.325-15.775,8.525
	c-5.10,3.175-9.65,6.95-13.65,11.375c-4.00,4.425-7.275,9.675-9.75,15.70c-2.50,6.025-3.75,13.275-3.75,21.70
	c0.00,9.70, 1.80,18.20, 5.375,25.525c 3.60,7.325, 8.425,13.425, 14.525,18.25s 13.275,8.45, 21.55,10.85c 4.25,1.25, 8.65,2.125, 13.15,2.725
	l0.00,25.85 l 24.575,0.00 l0.00-25.85 c 0.975-0.125, 1.95-0.075, 2.925-0.225c 4.775-0.725, 9.275-1.70, 13.425-2.95c 4.175-1.225, 7.85-2.60, 11.10-4.175
	c 3.225-1.55, 5.35-2.825, 6.40-3.875c 1.05-1.025, 1.725-1.90, 2.125-2.625c 0.35-0.725, 0.65-1.70, 0.925-2.90
	c 0.25-1.20, 0.45-2.70, 0.525-4.55c 0.10-1.80, 0.15-4.075, 0.15-6.775c0.00-3.025-0.075-5.60-0.225-7.70
	C 453.575,416.15, 453.325,414.40, 452.95,413.05z M 275.00,350.00c0.00-82.825, 55.95-150.00, 125.00-150.00L 75.00,200.00 L 75.00,500.00 l 325.00,0.00 C 330.95,500.00, 275.00,432.825, 275.00,350.00z M 175.00,400.00
	c-20.725,0.00-37.50-22.40-37.50-50.00s 16.775-50.00, 37.50-50.00c 20.70,0.00, 37.50,22.40, 37.50,50.00S 195.70,400.00, 175.00,400.00z" />
<glyph unicode="&#x5f;" d="M0.00,50.00L0.00,625.00 l 775.00,0.00 l0.00-575.00 L0.00,50.00 z M 150.00,300.00L 125.00,300.00 L 125.00,600.00 L 25.00,600.00 l0.00-525.00 l 125.00,0.00 L 150.00,300.00 z M 300.00,300.00l-25.00,0.00 L 275.00,600.00 L 200.00,600.00 l0.00-300.00 L 175.00,300.00 l0.00-225.00 l 125.00,0.00 L 300.00,300.00 z M 450.00,300.00l-25.00,0.00 L 425.00,600.00 l-75.00,0.00 
	l0.00-300.00 l-25.00,0.00 l0.00-225.00 l 125.00,0.00 L 450.00,300.00 z M 500.00,600.00l0.00-300.00 l-25.00,0.00 l0.00-225.00 l 125.00,0.00 l0.00,225.00 l-25.00,0.00 L 575.00,600.00 L 500.00,600.00 z M 750.00,600.00l-100.00,0.00 l0.00-300.00 l-25.00,0.00 l0.00-225.00 l 125.00,0.00 L 750.00,600.00 z" />
<glyph unicode="&#x60;" d="M 725.60,587.525l-61.675-61.675l-88.075,88.075l 61.675,61.675
	c 24.325,24.325, 63.775,24.325, 88.075,0.00S 749.925,611.85, 725.60,587.525z M 690.35,517.075c 4.875,4.85, 12.775,4.85, 17.625,0.00
	c 4.875-4.875, 4.875-12.775,0.00-17.625l-229.00-229.025c-4.875-4.85-12.775-4.85-17.625,0.00s-4.85,12.75,0.00,17.60l 149.75,149.75l-123.35,123.35
	l 52.85,52.825l 123.325-123.325L 690.35,517.075z M 487.775,525.85l 88.075-88.075L 223.50,85.425L 135.425,173.50L 490.75,528.825L 487.775,525.85z
	 M 56.15,6.15l 61.65,149.725l 88.075-88.075L 56.15,6.15z" />
<glyph unicode="&#x61;" d="M 583.125,26.65l-209.50,146.00L 373.625,503.925 l 209.50,144.425c 27.625,0.00, 67.225-20.90, 67.225-46.675
	l0.00-528.325 C 650.375,47.55, 610.775,26.65, 583.125,26.65z M 350.325,177.55L 199.65,177.55 c-27.625,0.00-50.00,33.05-50.00,58.85l0.00,202.25 
	c0.00,25.75, 22.40,62.375, 50.00,62.375l 150.675,0.00 L 350.325,177.55 z" />
<glyph unicode="&#x62;" d="M 591.75,485.425l-24.75-50.475c 23.675-20.30, 38.675-50.425, 38.675-84.025
			c0.00-37.05-8.40-70.55-36.325-90.65l 23.925-42.675c 36.525,32.775, 59.525,80.325, 59.525,133.275C 652.775,404.50, 629.15,452.65, 591.75,485.425z
			 M 775.45,662.175l-34.825-42.25c 64.95-70.90, 106.05-165.375, 106.05-269.10c0.00-103.55-41.025-197.90-105.75-268.775l 34.775-43.125
			c 74.075,83.40, 118.95,191.20, 118.95,311.90C 894.625,471.20, 849.175,578.825, 775.45,662.175z M 683.05,575.85l-31.00-44.575
			c 46.05-46.25, 75.25-110.00, 75.25-180.425c0.00-71.85-30.375-136.725-78.075-183.225l 32.225-42.775c 57.625,58.85, 92.325,137.10, 92.325,225.975
			C 773.775,438.05, 738.825,517.275, 683.05,575.85z M0.00,449.825l0.00-202.25 c0.00-25.775, 22.40-58.85, 50.00-58.85l 150.675,0.00 L 200.675,512.20 L 50.00,512.20 
			C 22.40,512.20,0.00,475.575,0.00,449.825z M 433.525,659.525L 224.00,515.10l0.00-331.25 l 209.525-146.00c 27.60,0.00, 67.20,20.90, 67.20,46.675L 500.725,612.85 
			C 500.725,638.625, 461.125,659.525, 433.525,659.525z" horiz-adv-x="894.6249961853027" />
<glyph unicode="&#x63;" d="M 717.875,351.60l 56.00-56.05c 3.65-3.625, 3.65-9.525,0.00-13.175l-19.775-19.775
	c-3.625-3.625-9.525-3.625-13.175,0.00l-56.00,56.05l-56.05-56.05c-3.65-3.625-9.525-3.625-13.175,0.00l-19.775,19.775
	c-3.625,3.65-3.625,9.575,0.00,13.175l 56.05,56.05l-56.05,56.05c-3.625,3.65-3.625,9.525,0.00,13.175l 19.775,19.775
	c 3.65,3.65, 9.55,3.65, 13.175,0.00l 56.05-56.025l 56.00,56.025c 3.65,3.65, 9.575,3.65, 13.175,0.00l 19.775-19.775
	c 3.65-3.65, 3.65-9.55,0.00-13.175L 717.875,351.60z M 456.875,39.15l-209.475,146.00L 247.40,516.425 l 209.475,144.425c 27.625,0.00, 67.225-20.90, 67.225-46.675
	l0.00-528.325 C 524.125,60.05, 484.525,39.15, 456.875,39.15z M 23.40,247.325l0.00,203.825 c0.00,25.75, 22.40,62.375, 50.00,62.375l 150.675,0.00 l0.00-325.025 L 73.40,188.50 
	C 45.775,188.475, 23.40,221.525, 23.40,247.325z" />
<glyph unicode="&#x64;" d="M 150.00,50.00l 75.00,0.00 l0.00,225.00 L 150.00,275.00 L 150.00,50.00 z M 450.00,300.00l-125.00,0.00 c-13.825,0.00-25.00-11.175-25.00-25.00l0.00-75.00 c0.00-13.80, 11.175-25.00, 25.00-25.00l 125.00,0.00 
			c 13.80,0.00, 25.00,11.20, 25.00,25.00l0.00,75.00 C 475.00,288.825, 463.80,300.00, 450.00,300.00z M 350.775,200.775l-25.00,0.00 l0.00,73.45 l 25.00,0.00 L 350.775,200.775 z M 399.225,200.775l-25.00,0.00 l0.00,73.45 l 25.00,0.00 L 399.225,200.775 z
			 M 450.775,200.775l-25.00,0.00 l0.00,73.45 l 25.00,0.00 L 450.775,200.775 z M 425.00,650.00l-75.00,0.00 l0.00-325.00 l 75.00,0.00 L 425.00,650.00 z M 625.00,650.00l-75.00,0.00 l0.00-125.00 l 75.00,0.00 L 625.00,650.00 z M 225.00,650.00L 150.00,650.00 l0.00-200.00 l 75.00,0.00 L 225.00,650.00 z M 550.00,50.00l 75.00,0.00 L 625.00,350.00 l-75.00,0.00 L 550.00,50.00 z M 350.00,50.00l 75.00,0.00 l0.00,100.00 l-75.00,0.00 L 350.00,50.00 z
			 M 250.00,425.00L 125.00,425.00 c-13.825,0.00-25.00-11.175-25.00-25.00l0.00-75.00 c0.00-13.80, 11.175-25.00, 25.00-25.00l 125.00,0.00 c 13.80,0.00, 25.00,11.20, 25.00,25.00l0.00,75.00 C 275.00,413.825, 263.80,425.00, 250.00,425.00z M 150.775,325.775l-25.00,0.00 
			l0.00,73.45 l 25.00,0.00 L 150.775,325.775 z M 200.775,325.775l-25.00,0.00 l0.00,73.45 l 25.00,0.00 L 200.775,325.775 z M 250.775,325.775l-25.00,0.00 l0.00,73.45 l 25.00,0.00 L 250.775,325.775 z M 650.00,500.00l-125.00,0.00 c-13.825,0.00-25.00-11.175-25.00-25.00l0.00-75.00 
			c0.00-13.80, 11.175-25.00, 25.00-25.00l 125.00,0.00 c 13.80,0.00, 25.00,11.20, 25.00,25.00l0.00,75.00 C 675.00,488.825, 663.80,500.00, 650.00,500.00z M 550.775,400.775l-25.00,0.00 l0.00,73.45 l 25.00,0.00 L 550.775,400.775 z M 599.225,400.775l-25.00,0.00 
			l0.00,73.45 l 25.00,0.00 L 599.225,400.775 z M 650.775,400.775l-25.00,0.00 l0.00,73.45 l 25.00,0.00 L 650.775,400.775 z" />
<glyph unicode="&#x65;" d="M 649.75,598.95l-0.10-243.375l-93.30,93.325L 445.00,337.525l-66.625,66.625l 111.35,111.35
	l-84.60,84.575L 649.75,598.95z M 287.35,179.875l 80.95-79.55L 125.25,99.90l 0.10,242.00l 95.375-95.375l 123.125,123.10l 66.625-66.625L 287.35,179.875z
	" />
<glyph unicode="&#x66;" d="M 685.175,552.95l-66.625,66.625l-123.125-123.125l-95.375,95.375l-0.10-242.00l 243.075,0.425
			l-80.95,79.575L 685.175,552.95z M 214.425,240.425l-111.325-111.325l 66.625-66.65l 111.325,111.375l 93.30-93.30l 0.10,243.35L 129.85,325.00L 214.425,240.425z
			" />
<glyph unicode="&#x67;" d="M 537.50,225.30c 48.35,0.00, 87.50-50.40, 87.50-112.50c0.00-62.15-39.15-112.50-87.50-112.50
	s-87.50,50.35-87.50,112.50c0.00,37.45, 14.40,70.40, 36.30,90.875L 400.00,327.55l-86.325-123.875C 335.60,183.20, 350.00,150.25, 350.00,112.80
	c0.00-62.15-39.175-112.50-87.50-112.50c-48.325,0.00-87.50,50.35-87.50,112.50c0.00,62.10, 39.175,112.50, 87.50,112.50c 4.975,0.00, 9.80-0.875, 14.55-1.90l 86.875,155.95
	l-90.775,130.30c-74.025,128.225-15.50,190.10-15.50,190.10L 400.00,444.125l 142.35,255.60c0.00,0.00, 58.525-61.875-15.50-190.10l-90.775-130.30l 86.875-155.95
	C 527.675,224.425, 532.525,225.30, 537.50,225.30z M 262.50,175.775c-27.60,0.00-50.00-27.975-50.00-62.50s 22.40-62.50, 50.00-62.50s 50.00,27.975, 50.00,62.50
	S 290.10,175.775, 262.50,175.775z M 400.00,398.175c-13.80,0.00-25.00-11.175-25.00-25.00c0.00-13.80, 11.20-25.00, 25.00-25.00c 13.825,0.00, 25.00,11.20, 25.00,25.00
	C 425.00,387.00, 413.825,398.175, 400.00,398.175z M 487.50,113.275c0.00-34.525, 22.40-62.50, 50.00-62.50s 50.00,27.975, 50.00,62.50s-22.40,62.50-50.00,62.50S 487.50,147.80, 487.50,113.275z
	" />
<glyph unicode="&#x68;" d="M 776.55,350.00c0.00-53.125-30.675-98.175-76.25-116.05l0.00-58.25 c0.00-13.75-11.15-24.90-24.875-24.90
	L 99.60,150.80 c-13.775,0.00-24.90,11.15-24.90,24.90l0.00,58.25 C 29.10,251.825-1.55,296.875-1.55,350.00s 30.675,98.175, 76.275,116.05l0.00,58.25 
	c0.00,13.775, 11.125,24.90, 24.90,24.90l 575.825,0.00 c 13.725,0.00, 24.875-11.125, 24.875-24.90l0.00-58.25 C 745.90,448.175, 776.55,403.125, 776.55,350.00z M 298.80,350.00
	L 199.20,350.00 l0.00-24.90 l 99.60,0.00 L 298.80,350.00 z M 417.05,434.90c-7.025,7.725-16.675,11.575-28.925,11.575c-12.175,0.00-21.775-3.85-28.775-11.575
	c-7.025-7.70-10.55-19.55-10.55-35.55c0.00-16.075, 3.525-27.95, 10.55-35.675c 7.00-7.70, 12.025-11.55, 24.475-11.55
	c 12.00,0.00, 26.225,3.85, 33.25,11.55c 7.00,7.725, 10.525,19.60, 10.525,35.675C 427.575,415.35, 424.05,427.225, 417.05,434.90z M 501.75,450.375
	l-127.75-200.55l 25.30,0.00 l 127.125,200.55L 501.75,450.375 z M 541.525,335.325c-7.00,7.70-16.675,11.55-28.925,11.55c-12.15,0.00-21.775-3.85-28.80-11.55
	c-7.00-7.725-10.50-19.55-10.50-35.55c0.00-16.075, 3.50-27.975, 10.50-35.675c 7.025-7.725, 16.75-11.575, 29.20-11.575
	c 12.00,0.00, 21.525,3.85, 28.55,11.575c 7.00,7.70, 10.525,19.60, 10.525,35.675C 552.05,315.775, 548.525,327.60, 541.525,335.325z M 512.375,271.80
	c-3.60,0.00-6.40,1.525-8.425,4.525c-2.675,3.925-4.025,11.725-4.025,23.40s 1.35,19.50, 4.025,23.50c 1.95,2.925, 4.75,4.425, 8.425,4.425
	s 6.525-1.50, 8.55-4.425c 2.60-4.00, 3.90-11.85, 3.90-23.50s-1.35-19.50-4.025-23.50C 518.85,273.275, 516.05,271.80, 512.375,271.80z
	 M 387.90,371.375c-3.60,0.00-6.40,1.525-8.425,4.55c-2.675,3.925-4.025,11.725-4.025,23.40s 1.35,19.50, 4.025,23.50
	c 1.95,2.925, 4.75,4.40, 8.425,4.40s 6.50-1.475, 8.55-4.40c 2.60-4.00, 3.90-11.85, 3.90-23.50s-1.35-19.50-4.025-23.50
	C 394.35,372.875, 391.55,371.375, 387.90,371.375z" />
<glyph unicode="&#x69;" d="M 474.325,304.95l-194.85,112.50c-23.90,13.825-54.50,5.625-68.30-18.275
			c-13.80-23.925-5.60-54.50, 18.30-68.30l 194.825-112.50c 23.925-13.825, 54.50-5.625, 68.30,18.30C 506.45,260.575, 498.25,291.15, 474.325,304.95z
			 M 313.625,426.60l 151.55-87.50l 51.55,143.45l-104.65,60.40L 313.625,426.60z M 201.90,58.10l 144.975,176.10l-64.95,37.50L 201.90,58.10z
			 M 579.35,561.875l-129.875,75.00c-17.95,10.35-40.875,4.225-51.225-13.725c-10.375-17.95-4.20-40.875, 13.725-51.225l 129.90-75.00
			c 17.95-10.35, 40.875-4.225, 51.225,13.725C 603.45,528.60, 597.30,551.525, 579.35,561.875z" />
<glyph unicode="&#x6a;" d="M 512.50,375.00l-225.00,0.00 c-27.60,0.00-50.00-22.40-50.00-50.00s 22.40-50.00, 50.00-50.00l 225.00,0.00 c 27.60,0.00, 50.00,22.40, 50.00,50.00
			S 540.10,375.00, 512.50,375.00z M 339.575,550.00L 312.50,400.00l 175.00,0.00 l-27.10,150.00L 339.575,550.00 z M 400.00,25.00l 37.50,225.00l-75.00,0.00 L 400.00,25.00z M 325.00,575.00l 150.00,0.00 c 20.70,0.00, 37.50,16.80, 37.50,37.50
			S 495.70,650.00, 475.00,650.00l-150.00,0.00 c-20.725,0.00-37.50-16.80-37.50-37.50S 304.275,575.00, 325.00,575.00z" />
<glyph unicode="&#x6b;" d="M 900.05,174.75l 1.425,427.225L 125.225,601.50L 125.20,650.50L 950.00,650.50 l0.00-475.775 L 900.05,174.75z
	 M 874.875,99.575l-49.925,0.05l 1.425,427.225l-776.25-0.50l-0.025,49.00l 824.80,0.00 L 874.90,99.575 z M 801.325,49.50L0.00,49.50 L0.00,500.25 l 801.325,0.00 L 801.325,49.50 z
	 M 751.225,451.725L 50.075,451.725 l0.00-352.15l 701.125,0.00 L 751.20,451.725 z M 676.125,137.125c0.00-4.425, 1.10-8.55, 2.525-12.50L 400.65,124.625 c 69.15,0.00, 125.225,67.25, 125.225,150.25
	s-56.075,150.25-125.225,150.25l 277.975,0.00 c-1.425-3.95-2.525-8.075-2.525-12.525c0.00-20.75, 16.80-37.55, 37.55-37.55
	c 4.45,0.00, 8.575,1.10, 12.525,2.525l0.00-205.375 c-3.95,1.40-8.075,2.525-12.525,2.525C 692.925,174.70, 676.125,157.875, 676.125,137.125z
	 M 626.025,327.025c-20.75,0.00-37.55-22.40-37.55-50.075s 16.80-50.075, 37.55-50.075s 37.55,22.40, 37.55,50.075S 646.775,327.025, 626.025,327.025z
	 M 453.075,365.15c 0.375-0.725, 0.675-1.70, 0.925-2.90c 0.275-1.20, 0.45-2.725, 0.525-4.55c 0.125-1.825, 0.175-4.10, 0.175-6.825
	c0.00-3.025-0.075-5.60-0.225-7.675c-0.175-2.10-0.45-3.825-0.775-5.175c-0.40-1.375-0.90-2.375-1.55-2.975
	c-0.675-0.625-1.60-0.95-2.75-0.95s-2.95,0.725-5.475,2.175c-2.525,1.475-5.60,3.025-9.225,4.725s-7.875,3.275-12.675,4.675
	s-10.05,2.10-15.80,2.10c-4.50,0.00-8.40-0.525-11.725-1.625c-3.35-1.10-6.15-2.60-8.375-4.525c-2.25-1.925-3.925-4.25-5.00-6.925
	c-1.10-2.70-1.65-5.575-1.65-8.575c0.00-4.50, 1.225-8.375, 3.675-11.675c 2.45-3.275, 5.725-6.20, 9.875-8.75
	c 4.125-2.575, 8.80-4.95, 14.00-7.20s 10.525-4.625, 15.95-7.10c 5.425-2.525, 10.75-5.35, 15.975-8.55
	c 5.225-3.175, 9.875-6.975, 13.925-11.40c 4.075-4.45, 7.375-9.65, 9.875-15.65s 3.75-13.05, 3.75-21.20c0.00-10.625-2.00-19.975-5.95-27.975
	c-3.95-8.025-9.325-14.75-16.125-20.125s-14.70-9.40-23.775-12.10c-1.15-0.35-2.40-0.50-3.575-0.775l0.00-27.35 l-24.625,0.00 l0.00,24.125 
	c-0.325,0.00-0.60-0.075-0.925-0.075c-6.975,0.00-13.475,0.575-19.475,1.70c-6.00,1.15-11.30,2.525-15.875,4.10
	c-4.60,1.60-8.425,3.30-11.50,5.05c-3.10,1.75-5.30,3.30-6.65,4.65s-2.325,3.30-2.90,5.85s-0.875,6.25-0.875,11.05
	c0.00,3.225, 0.10,5.95, 0.325,8.125c 0.20,2.20, 0.55,3.975, 1.025,5.35c 0.475,1.35, 1.10,2.325, 1.875,2.90
	c 0.775,0.55, 1.70,0.85, 2.725,0.85c 1.475,0.00, 3.525-0.85, 6.20-2.60c 2.65-1.70, 6.075-3.625, 10.25-5.70s 9.15-3.975, 14.95-5.70
	c 5.775-1.725, 12.50-2.60, 20.10-2.60c 5.00,0.00, 9.50,0.60, 13.45,1.80c 3.975,1.20, 7.325,2.90, 10.10,5.075
	c 2.75,2.20, 4.85,4.925, 6.325,8.15c 1.475,3.25, 2.20,6.85, 2.20,10.825c0.00,4.60-1.275,8.55-3.75,11.825
	c-2.50,3.30-5.75,6.20-9.775,8.775c-4.025,2.55-8.575,4.95-13.675,7.175c-5.125,2.25-10.375,4.625-15.80,7.125
	c-5.425,2.50-10.70,5.35-15.80,8.525c-5.10,3.175-9.675,6.975-13.675,11.425c-4.00,4.425-7.275,9.675-9.775,15.70
	c-2.50,6.05-3.75,13.30-3.75,21.75c0.00,9.70, 1.80,18.225, 5.40,25.55c 3.60,7.35, 8.45,13.45, 14.55,18.30
	c 6.10,4.825, 13.30,8.475, 21.575,10.875c 4.25,1.225, 8.65,2.125, 13.175,2.725l0.00,25.875 l 24.625,0.00 l0.00-25.875 c 0.975-0.125, 1.95-0.075, 2.925-0.225
	c 4.80-0.725, 9.30-1.70, 13.475-2.95c 4.15-1.25, 7.85-2.625, 11.075-4.20c 3.25-1.55, 5.375-2.825, 6.45-3.875
	C 452.00,366.775, 452.70,365.90, 453.075,365.15z M 275.45,274.875c0.00-82.975, 56.05-150.25, 125.20-150.25L 122.675,124.625 c 1.40,3.95, 2.525,8.075, 2.525,12.50
	c0.00,20.75-16.825,37.575-37.55,37.575c-4.45,0.00-8.575-1.125-12.525-2.525l0.00,205.375 c 3.95-1.425, 8.075-2.525, 12.525-2.525
	c 20.75,0.00, 37.55,16.80, 37.55,37.55c0.00,4.45-1.125,8.575-2.525,12.525l 277.975,0.00 C 331.50,425.125, 275.45,357.85, 275.45,274.875z M 175.275,327.025
	c-20.75,0.00-37.55-22.40-37.55-50.075s 16.825-50.075, 37.55-50.075c 20.75,0.00, 37.55,22.40, 37.55,50.075S 196.025,327.025, 175.275,327.025z" horiz-adv-x="950" />
<glyph unicode="&#x6c;" d="M 712.50,175.00L 406.35,175.00 c 8.975,15.475, 15.85,32.25, 20.40,50.00L 712.50,225.00 c 13.825,0.00, 25.00-11.175, 25.00-25.00
	C 737.50,186.20, 726.325,175.00, 712.50,175.00z M 712.50,250.00L 431.60,250.00 c 1.025,8.20, 1.725,16.525, 1.725,25.00c0.00,8.50-0.70,16.80-1.725,25.00L 712.50,300.00 
	c 13.825,0.00, 25.00-11.175, 25.00-25.00C 737.50,261.20, 726.325,250.00, 712.50,250.00z M 712.50,325.00L 426.75,325.00 c-4.575,17.75-11.425,34.525-20.40,50.00L 712.50,375.00 c 13.825,0.00, 25.00-11.175, 25.00-25.00
	C 737.50,336.20, 726.325,325.00, 712.50,325.00z M 712.50,400.00L 389.30,400.00 c-16.25,20.275-36.325,37.325-59.225,50.00L 712.50,450.00 c 13.825,0.00, 25.00-11.175, 25.00-25.00
	C 737.50,411.20, 726.325,400.00, 712.50,400.00z M 712.50,475.00l-400.00,0.00 c-13.825,0.00-25.00,11.20-25.00,25.00c0.00,13.825, 11.175,25.00, 25.00,25.00l 400.00,0.00 c 13.825,0.00, 25.00-11.175, 25.00-25.00
	C 737.50,486.20, 726.325,475.00, 712.50,475.00z M 712.50,550.00l-400.00,0.00 c-13.825,0.00-25.00,11.20-25.00,25.00c0.00,13.825, 11.175,25.00, 25.00,25.00l 400.00,0.00 c 13.825,0.00, 25.00-11.175, 25.00-25.00
	C 737.50,561.20, 726.325,550.00, 712.50,550.00z M 412.50,275.00c0.00-96.65-78.375-175.00-175.00-175.00c-96.65,0.00-175.00,78.35-175.00,175.00s 78.35,175.00, 175.00,175.00C 334.125,450.00, 412.50,371.65, 412.50,275.00z
	 M 299.45,255.975c-2.525,5.975-5.775,11.175-9.85,15.60c-4.075,4.425-8.70,8.225-13.90,11.40c-5.20,3.175-10.50,6.00-15.925,8.525
	c-5.425,2.50-10.725,4.85-15.925,7.10c-5.20,2.225-9.875,4.625-13.975,7.175c-4.125,2.55-7.40,5.475-9.85,8.75
	c-2.45,3.275-3.675,7.15-3.675,11.65c0.00,3.00, 0.55,5.85, 1.625,8.55c 1.10,2.675, 2.75,5.00, 5.00,6.925
	c 2.225,1.90, 5.025,3.425, 8.35,4.50c 3.325,1.10, 7.25,1.625, 11.725,1.625c 5.725,0.00, 10.975-0.675, 15.775-2.075
	c 4.775-1.425, 9.00-2.95, 12.65-4.675c 3.65-1.70, 6.725-3.275, 9.225-4.725c 2.50-1.45, 4.325-2.15, 5.475-2.15
	s 2.05,0.30, 2.725,0.925c 0.65,0.625, 1.20,1.60, 1.55,2.975c 0.375,1.35, 0.60,3.075, 0.775,5.15
	c 0.15,2.10, 0.225,4.675, 0.225,7.70c0.00,2.70-0.05,4.975-0.15,6.775c-0.10,1.825-0.30,3.35-0.525,4.55
	c-0.275,1.20-0.575,2.175-0.925,2.90c-0.40,0.725-1.075,1.60-2.125,2.625c-1.05,1.05-3.175,2.35-6.40,3.875
	c-3.225,1.55-6.925,2.95-11.075,4.175c-4.175,1.25-8.65,2.225-13.425,2.95c-0.975,0.15-1.975,0.10-2.95,0.225l0.00,25.85 L 229.275,404.825 
	l0.00-25.85 l0.00,0.00c-4.525-0.60-8.90-1.50-13.15-2.725c-8.275-2.40-15.45-6.00-21.55-10.85s-10.95-10.95-14.525-18.25
	c-3.60-7.35-5.375-15.85-5.375-25.525c0.00-8.425, 1.25-15.675, 3.725-21.70c 2.50-6.025, 5.75-11.275, 9.775-15.70
	c 4.025-4.425, 8.55-8.20, 13.65-11.375c 5.10-3.20, 10.375-6.025, 15.775-8.525c 5.425-2.50, 10.675-4.85, 15.775-7.10
	s 9.65-4.65, 13.65-7.175c 4.025-2.575, 7.275-5.475, 9.775-8.75c 2.50-3.30, 3.75-7.225, 3.75-11.80c0.00-3.975-0.725-7.575-2.175-10.825
	c-1.475-3.225-3.575-5.925-6.325-8.125c-2.75-2.20-6.10-3.875-10.05-5.075c-3.975-1.20-8.425-1.80-13.45-1.80
	c-7.60,0.00-14.30,0.85-20.075,2.575c-5.775,1.725-10.75,3.625-14.925,5.725c-4.175,2.075-7.575,3.95-10.225,5.70
	c-2.65,1.70-4.70,2.575-6.175,2.575c-1.05,0.00-1.975-0.30-2.725-0.85c-0.80-0.575-1.425-1.55-1.875-2.90
	c-0.475-1.375-0.80-3.125-1.025-5.325s-0.325-4.90-0.325-8.125c0.00-4.80, 0.30-8.475, 0.85-11.025
	c 0.575-2.575, 1.55-4.525, 2.90-5.85c 1.35-1.35, 3.55-2.875, 6.625-4.65s 6.90-3.425, 11.475-5.025
	c 4.575-1.575, 9.875-2.95, 15.85-4.10c 5.975-1.125, 12.475-1.675, 19.45-1.675c 0.30,0.00, 0.575,0.05, 0.90,0.05l0.00-24.075 l 24.575,0.00 l0.00,27.30 
	c 1.175,0.30, 2.425,0.45, 3.575,0.775c 9.05,2.70, 16.975,6.75, 23.75,12.10c 6.775,5.35, 12.125,12.025, 16.10,20.05
	c 3.95,8.025, 5.90,17.325, 5.90,27.95C 303.175,242.95, 301.925,249.975, 299.45,255.975z M 389.30,150.00L 712.50,150.00 c 13.825,0.00, 25.00-11.175, 25.00-25.00
	c0.00-13.80-11.175-25.00-25.00-25.00L 330.075,100.00 C 352.975,112.675, 373.05,129.725, 389.30,150.00z" />
<glyph unicode="&#x6d;" d="M 616.85,202.275c0.00,0.00, 83.25,56.95, 83.25,169.275c0.00,167.20-177.20,229.025-272.475,227.375
			c-95.30-1.675-123.70-26.75-123.70-26.75S 271.50,595.75, 237.125,615.50C 210.825,625.75, 204.725,627.225, 186.45,621.35c-14.625,0.00-5.425-24.35, 0.45-33.125
			c 5.825-8.775, 34.15-57.25, 34.15-57.25s-59.45-61.225-63.85-101.475c0.00,0.725-28.00,0.225-43.35,0.225s-13.90-16.725-13.90-16.725
			l 0.425-117.85c0.00,0.00-0.95-16.725, 12.975-16.725c 13.90,0.00, 43.45-0.325, 43.45-0.325s 41.575-60.375, 67.925-71.35
			c0.00-0.725-22.775-62.575-22.775-62.575s-10.975-19.025, 8.775-26.35c 19.75-7.30, 71.275-28.925, 93.225-35.525
			c 21.925-6.575, 25.075,8.35, 25.075,8.35l 21.725,46.925l 142.125-0.225l 21.725-48.375c0.00,0.00, 4.175-22.45, 33.425-10.025
			c 29.275,12.425, 61.225,27.175, 85.375,39.60c 24.125,12.425, 8.25,35.65, 8.25,35.65L 616.85,202.275z M 233.05,405.90
			c-13.325,0.00-24.125,10.825-24.125,24.15s 10.80,24.125, 24.125,24.125s 24.15-10.80, 24.15-24.125S 246.375,405.90, 233.05,405.90z M 573.125,481.10
			c-7.70-9.125-12.725-2.40-18.925-0.575c0.00,0.00-26.275,24.375-64.875,35.75c-39.975,11.75-82.05,6.075-82.05,6.075
			c-6.20,1.825-13.725,2.025-13.775,11.60c 0.325,11.825, 14.675,11.925, 14.50,12.325c0.00,0.00, 47.35,4.375, 86.975-7.275
			c 38.975-11.45, 68.75-36.35, 68.75-36.35S 579.65,491.675, 573.125,481.10z" />
<glyph unicode="&#x6e;" d="M 386.90,263.475l-211.275-212.525L 175.625,624.05 l 423.775,0.00 l0.00-573.10 L 386.90,263.475z" />
</font>
</defs>
</svg>
